NotoSans-Italic.glyphspackage
{
category = Punctuation;
glyphname = comma;
kernLeft = period.right;
kernRight = period.left;
layers = (
{
layerId = "891911EE-97A3-4583-AC34-B57874F49FBA";
shapes = (
{
closed = 1;
nodes = (
(-20,-127,l),
(18,-72,o),
(62,22,o),
(80,80,c),
(76,91,l),
(52,91,l),
(36,26,o),
(-6,-69,o),
(-39,-127,c)
);
}
);
width = 156;
},
{
layerId = "4ABFEEF6-B0FE-443E-B48D-B4A70A3A2C9A";
shapes = (
{
closed = 1;
nodes = (
(-22,-129,l),
(20,-60,o),
(60,30,o),
(88,104,c),
(87,116,l),
(60,116,l),
(34,40,o),
(4,-32,o),
(-45,-129,c)
);
}
);
width = 183;
},
{
layerId = "FAB9F01D-70CE-4F71-A270-EC67BDAC6531";
shapes = (
{
closed = 1;
nodes = (
(60,-129,l),
(107,-56,o),
(156,34,o),
(188,105,c),
(184,116,l),
(45,116,l),
(20,47,o),
(-15,-50,o),
(-50,-129,c)
);
}
);
width = 285;
},
{
layerId = "E7382CC2-7CD9-4594-B524-5D480E09B385";
shapes = (
{
closed = 1;
nodes = (
(46,-135,l),
(88,-63,o),
(129,25,o),
(162,119,c),
(159,130,l),
(40,130,l),
(19,51,o),
(-22,-58,o),
(-52,-135,c)
);
}
);
width = 232;
},
{
layerId = "9733853B-DD8E-49B4-939D-1F0D465E8B6E";
shapes = (
{
closed = 1;
nodes = (
(24,-129,l),
(71,-56,o),
(123,34,o),
(156,105,c),
(152,116,l),
(56,116,l),
(31,47,o),
(-8,-50,o),
(-43,-129,c)
);
}
);
width = 256;
},
{
layerId = "A849C433-1DA2-4174-AEA9-F403839AA1E5";
shapes = (
{
closed = 1;
nodes = (
(15,-132,l),
(58,-60,o),
(99,22,o),
(130,102,c),
(127,112,l),
(46,112,l),
(27,41,o),
(-17,-65,o),
(-45,-132,c)
);
}
);
width = 202;
},
{
layerId = "1C9FFC3E-B033-49C1-8526-F3CD51FE3A6C";
shapes = (
{
closed = 1;
nodes = (
(74,-139,l),
(116,-64,o),
(156,28,o),
(192,136,c),
(190,146,l),
(34,146,l),
(11,60,o),
(-28,-52,o),
(-59,-139,c)
);
}
);
width = 260;
},
{
layerId = "84606D06-D269-45BD-896C-8402F9D7AD38";
shapes = (
{
closed = 1;
nodes = (
(90,-129,l),
(137,-56,o),
(184,34,o),
(215,105,c),
(211,116,l),
(41,116,l),
(16,47,o),
(-16,-50,o),
(-51,-129,c)
);
}
);
width = 306;
}
);
script = "";
subCategory = Other;
unicode = 44;
}
{
category = Punctuation;
glyphname = slash;
layers = (
{
layerId = "891911EE-97A3-4583-AC34-B57874F49FBA";
shapes = (
{
closed = 1;
nodes = (
(-19,2,l),
(358,712,l),
(332,712,l),
(-45,2,l)
);
}
);
width = 292;
},
{
layerId = "4ABFEEF6-B0FE-443E-B48D-B4A70A3A2C9A";
shapes = (
{
closed = 1;
nodes = (
(-14,0,l),
(392,714,l),
(363,714,l),
(-43,0,l)
);
}
);
width = 306;
},
{
layerId = "FAB9F01D-70CE-4F71-A270-EC67BDAC6531";
shapes = (
{
closed = 1;
nodes = (
(100,0,l),
(495,714,l),
(351,714,l),
(-44,0,l)
);
}
);
width = 421;
},
{
layerId = "E7382CC2-7CD9-4594-B524-5D480E09B385";
shapes = (
{
closed = 1;
nodes = (
(58,-6,l),
(451,720,l),
(339,720,l),
(-53,-6,l)
);
}
);
width = 367;
},
{
layerId = "9733853B-DD8E-49B4-939D-1F0D465E8B6E";
shapes = (
{
closed = 1;
nodes = (
(45,0,l),
(441,714,l),
(351,714,l),
(-46,0,l)
);
}
);
width = 356;
},
{
layerId = "A849C433-1DA2-4174-AEA9-F403839AA1E5";
shapes = (
{
closed = 1;
nodes = (
(23,-3,l),
(409,717,l),
(336,717,l),
(-49,-3,l)
);
}
);
width = 334;
},
{
layerId = "1C9FFC3E-B033-49C1-8526-F3CD51FE3A6C";
shapes = (
{
closed = 1;
nodes = (
(91,-10,l),
(490,724,l),
(342,724,l),
(-57,-10,l)
);
}
);
width = 397;
},
{
layerId = "84606D06-D269-45BD-896C-8402F9D7AD38";
shapes = (
{
closed = 1;
nodes = (
(124,-10,l),
(533,724,l),
(365,724,l),
(-44,-10,l)
);
}
);
width = 467;
}
);
script = "";
subCategory = Other;
unicode = 47;
}
{
category = Number;
glyphname = three;
layers = (
{
layerId = "891911EE-97A3-4583-AC34-B57874F49FBA";
shapes = (
{
closed = 1;
nodes = (
(218,-11,o),
(275,113,o),
(275,224,cs),
(275,311,o),
(242,353,o),
(195,368,c),
(196,370,l),
(284,386,o),
(347,486,o),
(347,589,cs),
(347,668,o),
(306,724,o),
(226,724,cs),
(168,724,o),
(128,699,o),
(103,677,c),
(120,654,l),
(142,675,o),
(175,699,o),
(224,699,cs),
(290,699,o),
(320,657,o),
(320,590,cs),
(320,493,o),
(261,383,o),
(141,383,cs),
(114,383,l),
(109,358,l),
(134,358,ls),
(203,358,o),
(248,324,o),
(248,221,cs),
(248,129,o),
(201,14,o),
(78,14,cs),
(34,14,o),
(2,27,o),
(-23,43,c),
(-23,12,l),
(-2,-1,o),
(38,-11,o),
(78,-11,cs)
);
}
);
width = 343;
},
{
layerId = "4ABFEEF6-B0FE-443E-B48D-B4A70A3A2C9A";
shapes = (
{
closed = 1;
nodes = (
(368,-10,o),
(471,81,o),
(471,209,cs),
(471,297,o),
(422,355,o),
(344,370,c),
(344,372,l),
(438,389,o),
(525,458,o),
(525,574,cs),
(525,662,o),
(458,724,o),
(364,724,cs),
(281,724,o),
(206,695,o),
(141,650,c),
(154,629,l),
(224,675,o),
(291,699,o),
(363,699,cs),
(443,699,o),
(498,649,o),
(498,575,cs),
(498,440,o),
(372,384,o),
(265,384,cs),
(186,384,l),
(181,359,l),
(260,359,ls),
(371,359,o),
(444,310,o),
(444,209,cs),
(444,96,o),
(354,15,o),
(211,15,cs),
(134,15,o),
(64,36,o),
(22,61,c),
(22,33,l),
(65,9,o),
(129,-10,o),
(210,-10,cs)
);
}
);
width = 550;
},
{
layerId = "FAB9F01D-70CE-4F71-A270-EC67BDAC6531";
shapes = (
{
closed = 1;
nodes = (
(406,-10,o),
(495,102,o),
(495,215,cs),
(495,306,o),
(437,351,o),
(365,365,c),
(365,369,l),
(477,389,o),
(539,462,o),
(539,561,cs),
(539,654,o),
(473,724,o),
(341,724,cs),
(236,724,o),
(171,695,o),
(107,653,c),
(169,553,l),
(203,575,o),
(250,602,o),
(309,602,cs),
(365,602,o),
(389,572,o),
(389,533,cs),
(389,448,o),
(299,419,o),
(214,419,cs),
(178,419,l),
(156,311,l),
(223,311,ls),
(320,311,o),
(349,275,o),
(349,227,cs),
(349,148,o),
(284,110,o),
(189,110,cs),
(129,110,o),
(61,127,o),
(7,159,c),
(7,29,l),
(55,3,o),
(122,-10,o),
(196,-10,cs)
);
}
);
width = 551;
},
{
layerId = "E7382CC2-7CD9-4594-B524-5D480E09B385";
shapes = (
{
closed = 1;
nodes = (
(279,-10,o),
(376,99,o),
(376,234,cs),
(376,309,o),
(341,355,o),
(282,371,c),
(282,374,l),
(377,405,o),
(439,486,o),
(439,585,cs),
(439,681,o),
(370,724,o),
(283,724,cs),
(219,724,o),
(168,707,o),
(112,665,c),
(139,570,l),
(181,601,o),
(221,616,o),
(254,616,cs),
(293,616,o),
(311,594,o),
(311,554,cs),
(311,473,o),
(256,420,o),
(171,420,cs),
(135,420,l),
(113,314,l),
(149,314,ls),
(216,314,o),
(246,285,o),
(246,227,cs),
(246,151,o),
(201,98,o),
(125,98,cs),
(86,98,o),
(30,110,o),
(-10,142,c),
(-10,23,l),
(34,-1,o),
(68,-10,o),
(125,-10,cs)
);
}
);
width = 434;
},
{
layerId = "9733853B-DD8E-49B4-939D-1F0D465E8B6E";
shapes = (
{
closed = 1;
nodes = (
(393,-10,o),
(470,97,o),
(470,210,cs),
(470,296,o),
(416,350,o),
(340,364,c),
(340,368,l),
(456,389,o),
(525,465,o),
(525,566,cs),
(525,660,o),
(461,724,o),
(341,724,cs),
(252,724,o),
(187,694,o),
(132,654,c),
(173,592,l),
(223,627,o),
(272,650,o),
(333,650,cs),
(393,650,o),
(435,616,o),
(435,555,cs),
(435,460,o),
(349,405,o),
(249,405,cs),
(184,405,l),
(169,332,l),
(233,332,ls),
(325,332,o),
(377,288,o),
(377,206,cs),
(377,119,o),
(318,64,o),
(211,64,cs),
(142,64,o),
(69,88,o),
(22,114,c),
(22,29,l),
(74,5,o),
(133,-10,o),
(210,-10,cs)
);
}
);
width = 551;
},
{
layerId = "A849C433-1DA2-4174-AEA9-F403839AA1E5";
shapes = (
{
closed = 1;
nodes = (
(249,-10,o),
(329,104,o),
(329,230,cs),
(329,307,o),
(293,353,o),
(241,370,c),
(242,373,l),
(336,398,o),
(395,485,o),
(395,588,cs),
(395,673,o),
(342,724,o),
(256,724,cs),
(196,724,o),
(150,704,o),
(106,670,c),
(130,609,l),
(167,637,o),
(203,654,o),
(242,654,cs),
(290,654,o),
(314,623,o),
(314,571,cs),
(314,479,o),
(254,403,o),
(157,403,cs),
(125,403,l),
(110,334,l),
(143,334,ls),
(211,334,o),
(247,298,o),
(247,223,cs),
(247,133,o),
(195,60,o),
(103,60,cs),
(62,60,o),
(17,72,o),
(-17,98,c),
(-17,18,l),
(17,-1,o),
(53,-10,o),
(106,-10,cs)
);
}
);
width = 391;
},
{
layerId = "1C9FFC3E-B033-49C1-8526-F3CD51FE3A6C";
shapes = (
{
closed = 1;
nodes = (
(306,-10,o),
(420,95,o),
(420,239,cs),
(420,311,o),
(386,356,o),
(320,373,c),
(320,376,l),
(415,411,o),
(480,486,o),
(480,583,cs),
(480,688,o),
(397,724,o),
(309,724,cs),
(241,724,o),
(185,710,o),
(117,660,c),
(147,533,l),
(195,567,o),
(238,580,o),
(266,580,cs),
(295,580,o),
(308,567,o),
(308,539,cs),
(308,467,o),
(258,435,o),
(185,435,cs),
(145,435,l),
(116,296,l),
(155,296,ls),
(221,296,o),
(246,271,o),
(246,231,cs),
(246,167,o),
(207,134,o),
(146,134,cs),
(109,134,o),
(43,146,o),
(-3,184,c),
(-3,28,l),
(50,-1,o),
(83,-10,o),
(144,-10,cs)
);
}
);
width = 474;
},
{
layerId = "84606D06-D269-45BD-896C-8402F9D7AD38";
shapes = (
{
closed = 1;
nodes = (
(370,-10,o),
(517,55,o),
(517,210,cs),
(517,288,o),
(471,351,o),
(383,368,c),
(383,372,l),
(480,392,o),
(550,450,o),
(550,555,cs),
(550,661,o),
(462,724,o),
(334,724,cs),
(224,724,o),
(158,696,o),
(89,652,c),
(166,531,l),
(211,555,o),
(254,572,o),
(298,572,cs),
(347,572,o),
(364,545,o),
(364,522,cs),
(364,468,o),
(305,437,o),
(212,437,cs),
(174,437,l),
(148,295,l),
(189,295,ls),
(303,295,o),
(325,272,o),
(325,230,cs),
(325,166,o),
(268,142,o),
(191,142,cs),
(128,142,o),
(65,156,o),
(7,191,c),
(7,29,l),
(50,4,o),
(124,-10,o),
(195,-10,cs)
);
}
);
width = 580;
}
);
script = "";
subCategory = "Decimal Digit";
unicode = 51;
}
{
category = Letter;
glyphname = C;
kernLeft = O.right;
kernRight = C.left;
layers = (
{
anchors = (
{
name = bottom;
pos = (113,0);
},
{
name = center;
pos = (226,357);
},
{
name = top;
pos = (265,714);
},
{
name = topright;
pos = (413,714);
}
);
layerId = "891911EE-97A3-4583-AC34-B57874F49FBA";
shapes = (
{
closed = 1;
nodes = (
(208,-10,o),
(231,-5,o),
(258,4,c),
(258,31,l),
(229,20,o),
(206,15,o),
(185,15,cs),
(103,15,o),
(64,76,o),
(64,224,cs),
(64,395,o),
(152,700,o),
(332,700,cs),
(362,700,o),
(386,692,o),
(400,678,c),
(416,700,l),
(397,715,o),
(373,725,o),
(334,725,cs),
(125,725,o),
(37,397,o),
(37,224,cs),
(37,58,o),
(87,-10,o),
(183,-10,cs)
);
}
);
width = 337;
},
{
anchors = (
{
name = bottom;
pos = (241,0);
},
{
name = center;
pos = (358,357);
},
{
name = top;
pos = (393,714);
},
{
name = topright;
pos = (670,714);
}
);
layerId = "4ABFEEF6-B0FE-443E-B48D-B4A70A3A2C9A";
shapes = (
{
closed = 1;
nodes = (
(396,-10,o),
(455,4,o),
(500,21,c),
(500,44,l),
(452,28,o),
(395,15,o),
(327,15,cs),
(192,15,o),
(110,112,o),
(110,270,cs),
(110,526,o),
(267,699,o),
(471,699,cs),
(523,699,o),
(574,690,o),
(621,662,c),
(633,687,l),
(586,712,o),
(533,724,o),
(471,724,cs),
(254,724,o),
(84,541,o),
(84,268,cs),
(84,100,o),
(173,-10,o),
(326,-10,cs)
);
}
);
width = 594;
},
{
anchors = (
{
name = bottom;
pos = (320,0);
},
{
name = center;
pos = (356,357);
},
{
name = top;
pos = (436,714);
},
{
name = topright;
pos = (686,714);
}
);
layerId = "FAB9F01D-70CE-4F71-A270-EC67BDAC6531";
shapes = (
{
closed = 1;
nodes = (
(409,-10,o),
(477,12,o),
(517,28,c),
(517,155,l),
(462,133,o),
(406,117,o),
(352,117,cs),
(255,117,o),
(212,170,o),
(212,278,cs),
(212,418,o),
(281,599,o),
(442,599,cs),
(502,599,o),
(548,578,o),
(594,552,c),
(652,674,l),
(589,708,o),
(532,725,o),
(442,725,cs),
(177,725,o),
(60,480,o),
(60,270,cs),
(60,99,o),
(149,-10,o),
(322,-10,cs)
);
}
);
width = 612;
},
{
anchors = (
{
name = bottom;
pos = (182,0);
},
{
name = center;
pos = (266,357);
},
{
name = top;
pos = (334,714);
},
{
name = topright;
pos = (506,714);
}
);
layerId = "E7382CC2-7CD9-4594-B524-5D480E09B385";
shapes = (
{
closed = 1;
nodes = (
(254,-10,o),
(308,-1,o),
(352,20,c),
(352,132,l),
(314,114,o),
(277,101,o),
(240,101,cs),
(191,101,o),
(167,138,o),
(167,227,cs),
(167,338,o),
(226,614,o),
(356,614,cs),
(384,614,o),
(410,603,o),
(437,581,c),
(498,681,l),
(457,712,o),
(406,724,o),
(353,724,cs),
(147,724,o),
(35,438,o),
(35,220,cs),
(35,74,o),
(94,-10,o),
(207,-10,cs)
);
}
);
width = 430;
},
{
anchors = (
{
name = bottom;
pos = (305,0);
},
{
name = center;
pos = (352,357);
},
{
name = top;
pos = (444,714);
},
{
name = topright;
pos = (662,714);
}
);
layerId = "9733853B-DD8E-49B4-939D-1F0D465E8B6E";
shapes = (
{
closed = 1;
nodes = (
(400,-10,o),
(448,1,o),
(500,20,c),
(500,98,l),
(449,81,o),
(397,69,o),
(342,69,cs),
(232,69,o),
(167,144,o),
(167,265,cs),
(167,445,o),
(259,645,o),
(458,645,cs),
(517,645,o),
(560,629,o),
(596,610,c),
(632,684,l),
(582,711,o),
(526,724,o),
(458,724,cs),
(197,724,o),
(72,478,o),
(72,263,cs),
(72,94,o),
(167,-10,o),
(326,-10,cs)
);
}
);
width = 587;
},
{
anchors = (
{
name = bottom;
pos = (148,0);
},
{
name = center;
pos = (248,357);
},
{
name = top;
pos = (300,714);
},
{
name = topright;
pos = (462,714);
}
);
layerId = "A849C433-1DA2-4174-AEA9-F403839AA1E5";
shapes = (
{
closed = 1;
nodes = (
(233,-10,o),
(272,-3,o),
(309,13,c),
(309,86,l),
(275,72,o),
(244,62,o),
(214,62,cs),
(148,62,o),
(119,112,o),
(119,227,cs),
(119,363,o),
(190,652,o),
(343,652,cs),
(371,652,o),
(396,643,o),
(418,624,c),
(460,689,l),
(429,714,o),
(390,725,o),
(344,725,cs),
(137,725,o),
(36,419,o),
(36,220,cs),
(36,68,o),
(90,-10,o),
(196,-10,cs)
);
}
);
width = 386;
},
{
anchors = (
{
name = bottom;
pos = (214,0);
},
{
name = center;
pos = (283,357);
},
{
name = top;
pos = (365,714);
},
{
name = topright;
pos = (546,714);
}
);
layerId = "1C9FFC3E-B033-49C1-8526-F3CD51FE3A6C";
shapes = (
{
closed = 1;
nodes = (
(274,-10,o),
(341,1,o),
(392,27,c),
(392,175,l),
(351,154,o),
(308,137,o),
(264,137,cs),
(230,137,o),
(211,162,o),
(211,227,cs),
(211,315,o),
(259,578,o),
(368,578,cs),
(396,578,o),
(423,566,o),
(455,541,c),
(533,673,l),
(483,711,o),
(421,724,o),
(361,724,cs),
(157,724,o),
(34,455,o),
(34,219,cs),
(34,80,o),
(97,-10,o),
(218,-10,cs)
);
}
);
width = 471;
},
{
anchors = (
{
name = bottom;
pos = (328,0);
},
{
name = center;
pos = (358,357);
},
{
name = top;
pos = (430,714);
},
{
name = topright;
pos = (703,714);
}
);
layerId = "84606D06-D269-45BD-896C-8402F9D7AD38";
shapes = (
{
closed = 1;
nodes = (
(389,-10,o),
(460,3,o),
(530,34,c),
(530,192,l),
(459,162,o),
(408,148,o),
(350,148,cs),
(282,148,o),
(244,191,o),
(244,278,cs),
(244,425,o),
(314,566,o),
(430,566,cs),
(485,566,o),
(532,548,o),
(593,512,c),
(665,661,l),
(598,701,o),
(525,725,o),
(430,725,cs),
(162,725,o),
(51,481,o),
(51,268,cs),
(51,102,o),
(136,-10,o),
(315,-10,cs)
);
}
);
width = 630;
}
);
script = latin;
subCategory = Uppercase;
unicode = 67;
}
{
category = Letter;
glyphname = L;
kernRight = L.left;
layers = (
{
anchors = (
{
name = bottom;
pos = (95,0);
},
{
name = center;
pos = (171,357);
},
{
name = top;
pos = (247,714);
},
{
name = topright;
pos = (327,714);
}
);
layerId = "891911EE-97A3-4583-AC34-B57874F49FBA";
shapes = (
{
closed = 1;
nodes = (
(216,0,l),
(221,25,l),
(33,25,l),
(180,714,l),
(154,714,l),
(2,0,l)
);
}
);
width = 302;
},
{
anchors = (
{
name = bottom;
pos = (190,0);
},
{
name = center;
pos = (266,357);
},
{
name = top;
pos = (342,714);
},
{
name = topright;
pos = (477,714);
}
);
layerId = "4ABFEEF6-B0FE-443E-B48D-B4A70A3A2C9A";
shapes = (
{
closed = 1;
nodes = (
(406,0,l),
(411,25,l),
(82,25,l),
(228,714,l),
(201,714,l),
(50,0,l)
);
}
);
width = 491;
},
{
anchors = (
{
name = bottom;
pos = (227,0);
},
{
name = center;
pos = (299,357);
},
{
name = top;
pos = (281,714);
},
{
name = topright;
pos = (496,714);
}
);
layerId = "FAB9F01D-70CE-4F71-A270-EC67BDAC6531";
shapes = (
{
closed = 1;
nodes = (
(425,0,l),
(451,125,l),
(201,125,l),
(326,714,l),
(177,714,l),
(26,0,l)
);
}
);
width = 518;
},
{
anchors = (
{
name = bottom;
pos = (129,0);
},
{
name = center;
pos = (216,357);
},
{
name = top;
pos = (280,714);
},
{
name = topright;
pos = (389,714);
}
);
layerId = "E7382CC2-7CD9-4594-B524-5D480E09B385";
shapes = (
{
closed = 1;
nodes = (
(295,0,l),
(317,110,l),
(145,110,l),
(274,714,l),
(149,714,l),
(-2,0,l)
);
}
);
width = 370;
},
{
anchors = (
{
name = bottom;
pos = (222,0);
},
{
name = center;
pos = (277,357);
},
{
name = top;
pos = (252,714);
},
{
name = topright;
pos = (460,714);
}
);
layerId = "9733853B-DD8E-49B4-939D-1F0D465E8B6E";
shapes = (
{
closed = 1;
nodes = (
(403,0,l),
(420,80,l),
(146,80,l),
(281,714,l),
(192,714,l),
(41,0,l)
);
}
);
width = 478;
},
{
anchors = (
{
name = bottom;
pos = (112,0);
},
{
name = center;
pos = (194,357);
},
{
name = top;
pos = (264,714);
},
{
name = topright;
pos = (355,714);
}
);
layerId = "A849C433-1DA2-4174-AEA9-F403839AA1E5";
shapes = (
{
closed = 1;
nodes = (
(256,0,l),
(270,72,l),
(95,72,l),
(231,714,l),
(151,714,l),
(0,0,l)
);
}
);
width = 337;
},
{
anchors = (
{
name = bottom;
pos = (144,0);
},
{
name = center;
pos = (237,357);
},
{
name = top;
pos = (295,714);
},
{
name = topright;
pos = (439,714);
}
);
layerId = "1C9FFC3E-B033-49C1-8526-F3CD51FE3A6C";
shapes = (
{
closed = 1;
nodes = (
(330,0,l),
(360,146,l),
(192,146,l),
(313,714,l),
(146,714,l),
(-5,0,l)
);
}
);
width = 400;
},
{
anchors = (
{
name = bottom;
pos = (234,0);
},
{
name = center;
pos = (306,357);
},
{
name = top;
pos = (288,714);
},
{
name = topright;
pos = (510,714);
}
);
layerId = "84606D06-D269-45BD-896C-8402F9D7AD38";
shapes = (
{
closed = 1;
nodes = (
(440,0,l),
(473,156,l),
(240,156,l),
(358,714,l),
(167,714,l),
(16,0,l)
);
}
);
width = 527;
}
);
script = latin;
subCategory = Uppercase;
unicode = 76;
}
{
category = Letter;
glyphname = R;
layers = (
{
anchors = (
{
name = bottom;
pos = (123,0);
},
{
name = center;
pos = (183,357);
},
{
name = top;
pos = (275,714);
},
{
name = topright;
pos = (433,714);
}
);
layerId = "891911EE-97A3-4583-AC34-B57874F49FBA";
shapes = (
{
closed = 1;
nodes = (
(29,0,l),
(97,321,l),
(182,321,l),
(238,0,l),
(265,0,l),
(208,325,l),
(312,345,o),
(364,453,o),
(364,569,cs),
(364,666,o),
(309,714,o),
(229,714,cs),
(154,714,l),
(3,0,l)
);
},
{
closed = 1;
nodes = (
(103,346,l),
(176,689,l),
(220,689,ls),
(297,689,o),
(337,652,o),
(337,566,cs),
(337,469,o),
(293,346,o),
(174,346,cs)
);
}
);
width = 357;
},
{
anchors = (
{
name = bottom;
pos = (225,0);
},
{
name = center;
pos = (304,357);
},
{
name = top;
pos = (377,714);
},
{
name = topright;
pos = (638,714);
}
);
layerId = "4ABFEEF6-B0FE-443E-B48D-B4A70A3A2C9A";
shapes = (
{
closed = 1;
nodes = (
(77,0,l),
(145,320,l),
(332,320,l),
(446,0,l),
(475,0,l),
(358,325,l),
(487,347,o),
(558,421,o),
(558,549,cs),
(558,660,o),
(487,714,o),
(348,714,cs),
(201,714,l),
(50,0,l)
);
},
{
closed = 1;
nodes = (
(150,345,l),
(223,689,l),
(342,689,ls),
(470,689,o),
(531,643,o),
(531,548,cs),
(531,405,o),
(428,345,o),
(302,345,cs)
);
}
);
width = 562;
},
{
anchors = (
{
name = bottom;
pos = (260,0);
},
{
name = center;
pos = (305,357);
},
{
name = top;
pos = (399,714);
},
{
name = topright;
pos = (683,714);
}
);
layerId = "FAB9F01D-70CE-4F71-A270-EC67BDAC6531";
shapes = (
{
closed = 1;
nodes = (
(175,0,l),
(233,274,l),
(291,274,l),
(392,0,l),
(554,0,l),
(427,303,l),
(517,334,o),
(584,405,o),
(584,518,cs),
(584,656,o),
(495,714,o),
(352,714,cs),
(177,714,l),
(26,0,l)
);
},
{
closed = 1;
nodes = (
(259,397,l),
(300,590,l),
(336,590,ls),
(402,590,o),
(432,563,o),
(432,510,cs),
(432,434,o),
(382,397,o),
(297,397,cs)
);
}
);
width = 609;
},
{
anchors = (
{
name = bottom;
pos = (176,0);
},
{
name = center;
pos = (235,357);
},
{
name = top;
pos = (327,714);
},
{
name = topright;
pos = (538,714);
}
);
layerId = "E7382CC2-7CD9-4594-B524-5D480E09B385";
shapes = (
{
closed = 1;
nodes = (
(123,0,l),
(182,282,l),
(215,282,l),
(265,0,l),
(403,0,l),
(333,307,l),
(419,338,o),
(473,431,o),
(473,552,cs),
(473,656,o),
(411,714,o),
(284,714,cs),
(149,714,l),
(-2,0,l)
);
},
{
closed = 1;
nodes = (
(204,384,l),
(251,607,l),
(271,607,ls),
(317,607,o),
(341,583,o),
(341,535,cs),
(341,462,o),
(307,384,o),
(233,384,cs)
);
}
);
width = 463;
},
{
anchors = (
{
name = bottom;
pos = (250,0);
},
{
name = center;
pos = (305,357);
},
{
name = top;
pos = (382,714);
},
{
name = topright;
pos = (648,714);
}
);
layerId = "9733853B-DD8E-49B4-939D-1F0D465E8B6E";
shapes = (
{
closed = 1;
nodes = (
(130,0,l),
(192,295,l),
(309,295,l),
(411,0,l),
(509,0,l),
(391,315,l),
(520,351,o),
(569,430,o),
(569,533,cs),
(569,652,o),
(496,714,o),
(349,714,cs),
(192,714,l),
(41,0,l)
);
},
{
closed = 1;
nodes = (
(208,371,l),
(265,636,l),
(341,636,ls),
(431,636,o),
(477,608,o),
(477,527,cs),
(477,435,o),
(419,371,o),
(286,371,cs)
);
}
);
width = 573;
},
{
anchors = (
{
name = bottom;
pos = (153,0);
},
{
name = center;
pos = (211,357);
},
{
name = top;
pos = (304,714);
},
{
name = topright;
pos = (493,714);
}
);
layerId = "A849C433-1DA2-4174-AEA9-F403839AA1E5";
shapes = (
{
closed = 1;
nodes = (
(80,0,l),
(143,299,l),
(199,299,l),
(253,0,l),
(340,0,l),
(276,315,l),
(366,338,o),
(423,440,o),
(423,559,cs),
(423,657,o),
(365,714,o),
(259,714,cs),
(151,714,l),
(0,0,l)
);
},
{
closed = 1;
nodes = (
(158,367,l),
(216,643,l),
(247,643,ls),
(307,643,o),
(339,611,o),
(339,549,cs),
(339,457,o),
(297,367,o),
(202,367,cs)
);
}
);
width = 418;
},
{
anchors = (
{
name = bottom;
pos = (197,0);
},
{
name = center;
pos = (257,357);
},
{
name = top;
pos = (348,714);
},
{
name = topright;
pos = (580,714);
}
);
layerId = "1C9FFC3E-B033-49C1-8526-F3CD51FE3A6C";
shapes = (
{
closed = 1;
nodes = (
(162,0,l),
(217,265,l),
(228,265,l),
(276,0,l),
(461,0,l),
(385,300,l),
(467,337,o),
(519,423,o),
(519,545,cs),
(519,654,o),
(454,714,o),
(307,714,cs),
(146,714,l),
(-5,0,l)
);
},
{
closed = 1;
nodes = (
(247,400,l),
(283,574,l),
(294,574,ls),
(326,574,o),
(342,556,o),
(342,522,cs),
(342,466,o),
(317,400,o),
(261,400,cs)
);
}
);
width = 505;
},
{
anchors = (
{
name = bottom;
pos = (276,0);
},
{
name = center;
pos = (313,357);
},
{
name = top;
pos = (414,714);
},
{
name = topright;
pos = (723,714);
}
);
layerId = "84606D06-D269-45BD-896C-8402F9D7AD38";
shapes = (
{
closed = 1;
nodes = (
(207,0,l),
(262,260,l),
(298,260,l),
(393,0,l),
(601,0,l),
(472,299,l),
(534,326,o),
(610,387,o),
(610,518,cs),
(610,649,o),
(520,714,o),
(356,714,cs),
(167,714,l),
(16,0,l)
);
},
{
closed = 1;
nodes = (
(293,405,l),
(327,568,l),
(353,568,ls),
(402,568,o),
(419,540,o),
(419,506,cs),
(419,433,o),
(369,405,o),
(318,405,cs)
);
}
);
width = 650;
}
);
script = latin;
subCategory = Uppercase;
unicode = 82;
}
{
category = Letter;
glyphname = U;
kernLeft = U.right;
kernRight = U.left;
layers = (
{
anchors = (
{
name = bottom;
pos = (156,0);
},
{
name = center;
pos = (237,352);
},
{
name = top;
pos = (308,714);
},
{
name = topright;
pos = (499,714);
}
);
layerId = "891911EE-97A3-4583-AC34-B57874F49FBA";
shapes = (
{
closed = 1;
nodes = (
(267,-10,o),
(305,82,o),
(336,225,cs),
(443,714,l),
(417,714,l),
(310,226,ls),
(281,92,o),
(250,15,o),
(155,15,cs),
(98,15,o),
(58,50,o),
(58,119,cs),
(58,143,o),
(61,175,o),
(68,209,cs),
(176,714,l),
(150,714,l),
(42,209,ls),
(35,174,o),
(31,142,o),
(31,118,cs),
(31,34,o),
(83,-10,o),
(154,-10,cs)
);
}
);
width = 423;
},
{
anchors = (
{
name = bottom;
pos = (290,0);
},
{
name = center;
pos = (390,352);
},
{
name = top;
pos = (442,714);
},
{
name = topright;
pos = (768,714);
}
);
layerId = "4ABFEEF6-B0FE-443E-B48D-B4A70A3A2C9A";
shapes = (
{
closed = 1;
nodes = (
(448,-10,o),
(556,69,o),
(595,252,cs),
(693,714,l),
(666,714,l),
(568,257,ls),
(533,94,o),
(436,15,o),
(301,15,cs),
(188,15,o),
(116,74,o),
(116,185,cs),
(116,206,o),
(119,231,o),
(124,256,cs),
(221,714,l),
(194,714,l),
(96,254,ls),
(91,228,o),
(88,205,o),
(88,183,cs),
(88,58,o),
(172,-10,o),
(300,-10,cs)
);
}
);
width = 692;
},
{
anchors = (
{
name = bottom;
pos = (291,0);
},
{
name = center;
pos = (384,352);
},
{
name = top;
pos = (436,714);
},
{
name = topright;
pos = (765,714);
}
);
layerId = "FAB9F01D-70CE-4F71-A270-EC67BDAC6531";
shapes = (
{
closed = 1;
nodes = (
(483,-10,o),
(570,100,o),
(602,252,c),
(700,714,l),
(551,714,l),
(456,266,ls),
(435,167,o),
(397,117,o),
(310,117,cs),
(248,117,o),
(218,148,o),
(218,204,cs),
(218,221,o),
(221,242,o),
(226,265,cs),
(321,714,l),
(172,714,l),
(76,263,ls),
(71,240,o),
(69,212,o),
(69,191,cs),
(69,70,o),
(147,-10,o),
(295,-10,cs)
);
}
);
width = 691;
},
{
anchors = (
{
name = bottom;
pos = (198,0);
},
{
name = center;
pos = (289,352);
},
{
name = top;
pos = (350,714);
},
{
name = topright;
pos = (584,714);
}
);
layerId = "E7382CC2-7CD9-4594-B524-5D480E09B385";
shapes = (
{
closed = 1;
nodes = (
(340,-10,o),
(408,75,o),
(439,222,cs),
(544,714,l),
(419,714,l),
(317,239,ls),
(297,142,o),
(269,102,o),
(216,102,cs),
(180,102,o),
(161,124,o),
(161,172,cs),
(161,189,o),
(163,211,o),
(169,234,cs),
(271,714,l),
(146,714,l),
(44,237,ls),
(38,207,o),
(34,176,o),
(34,152,cs),
(34,50,o),
(96,-10,o),
(199,-10,cs)
);
}
);
width = 509;
},
{
anchors = (
{
name = bottom;
pos = (298,0);
},
{
name = center;
pos = (383,352);
},
{
name = top;
pos = (434,714);
},
{
name = topright;
pos = (752,714);
}
);
layerId = "9733853B-DD8E-49B4-939D-1F0D465E8B6E";
shapes = (
{
closed = 1;
nodes = (
(474,-10,o),
(555,87,o),
(588,243,c),
(688,714,l),
(599,714,l),
(500,250,ls),
(474,131,o),
(423,69,o),
(305,69,cs),
(214,69,o),
(168,114,o),
(168,189,cs),
(168,210,o),
(172,247,o),
(179,278,cs),
(272,714,l),
(183,714,l),
(91,283,ls),
(83,245,o),
(79,211,o),
(79,188,cs),
(79,61,o),
(151,-10,o),
(300,-10,cs)
);
}
);
width = 677;
},
{
anchors = (
{
name = bottom;
pos = (180,0);
},
{
name = center;
pos = (265,352);
},
{
name = top;
pos = (331,714);
},
{
name = topright;
pos = (546,714);
}
);
layerId = "A849C433-1DA2-4174-AEA9-F403839AA1E5";
shapes = (
{
closed = 1;
nodes = (
(305,-10,o),
(362,80,o),
(392,223,cs),
(498,714,l),
(418,714,l),
(314,231,ls),
(288,114,o),
(254,63,o),
(186,63,cs),
(139,63,o),
(114,91,o),
(114,150,cs),
(114,170,o),
(117,195,o),
(122,220,cs),
(227,714,l),
(147,714,l),
(43,224,ls),
(36,194,o),
(33,164,o),
(33,140,cs),
(33,45,o),
(86,-10,o),
(176,-10,cs)
);
}
);
width = 472;
},
{
anchors = (
{
name = bottom;
pos = (216,0);
},
{
name = center;
pos = (311,352);
},
{
name = top;
pos = (367,714);
},
{
name = topright;
pos = (619,714);
}
);
layerId = "1C9FFC3E-B033-49C1-8526-F3CD51FE3A6C";
shapes = (
{
closed = 1;
nodes = (
(373,-10,o),
(451,70,o),
(483,221,cs),
(588,714,l),
(421,714,l),
(321,247,ls),
(304,167,o),
(282,139,o),
(243,139,cs),
(218,139,o),
(205,155,o),
(205,193,cs),
(205,207,o),
(207,226,o),
(212,246,cs),
(311,714,l),
(144,714,l),
(45,249,ls),
(39,219,o),
(35,187,o),
(35,164,cs),
(35,55,o),
(105,-10,o),
(220,-10,cs)
);
}
);
width = 544;
},
{
anchors = (
{
name = bottom;
pos = (286,0);
},
{
name = center;
pos = (384,352);
},
{
name = top;
pos = (432,714);
},
{
name = topright;
pos = (774,714);
}
);
layerId = "84606D06-D269-45BD-896C-8402F9D7AD38";
shapes = (
{
closed = 1;
nodes = (
(489,-10,o),
(574,85,o),
(611,259,cs),
(708,714,l),
(517,714,l),
(424,278,ls),
(404,185,o),
(373,150,o),
(316,150,cs),
(275,150,o),
(253,173,o),
(253,212,cs),
(253,229,o),
(256,249,o),
(260,268,cs),
(355,714,l),
(164,714,l),
(67,263,ls),
(63,242,o),
(61,217,o),
(61,197,cs),
(61,77,o),
(149,-10,o),
(298,-10,cs)
);
}
);
width = 701;
}
);
script = latin;
subCategory = Uppercase;
unicode = 85;
}
{
category = Letter;
glyphname = d;
kernLeft = o.right;
layers = (
{
anchors = (
{
name = bottom;
pos = (134,0);
},
{
name = center;
pos = (190,263);
},
{
name = top;
pos = (296,760);
},
{
name = topright;
pos = (465,760);
}
);
layerId = "891911EE-97A3-4583-AC34-B57874F49FBA";
shapes = (
{
closed = 1;
nodes = (
(183,-10,o),
(220,30,o),
(251,93,c),
(253,93,l),
(237,0,l),
(258,0,l),
(418,760,l),
(392,760,l),
(349,558,ls),
(341,522,o),
(334,483,o),
(328,451,c),
(325,451,l),
(318,499,o),
(291,536,o),
(239,536,cs),
(100,536,o),
(29,294,o),
(29,138,cs),
(29,42,o),
(64,-10,o),
(126,-10,cs)
);
},
{
closed = 1;
nodes = (
(86,15,o),
(56,51,o),
(56,140,cs),
(56,280,o),
(121,511,o),
(238,511,cs),
(282,511,o),
(308,473,o),
(308,416,cs),
(308,344,o),
(261,15,o),
(129,15,cs)
);
}
);
width = 379;
},
{
anchors = (
{
name = bottom;
pos = (228,0);
},
{
name = center;
pos = (284,264);
},
{
name = top;
pos = (389,760);
},
{
name = topright;
pos = (653,760);
}
);
layerId = "4ABFEEF6-B0FE-443E-B48D-B4A70A3A2C9A";
shapes = (
{
closed = 1;
nodes = (
(303,-10,o),
(381,72,o),
(423,141,c),
(425,141,l),
(397,0,l),
(419,0,l),
(580,760,l),
(554,760,l),
(508,543,ls),
(499,501,o),
(489,452,o),
(482,407,c),
(480,407,l),
(471,468,o),
(425,538,o),
(324,538,cs),
(139,538,o),
(51,340,o),
(51,178,cs),
(51,65,o),
(98,-10,o),
(201,-10,cs)
);
},
{
closed = 1;
nodes = (
(119,15,o),
(78,75,o),
(78,178,cs),
(78,335,o),
(159,513,o),
(323,513,cs),
(405,513,o),
(463,462,o),
(463,358,cs),
(463,173,o),
(330,15,o),
(203,15,cs)
);
}
);
width = 568;
},
{
anchors = (
{
name = bottom;
pos = (241,0);
},
{
name = center;
pos = (355,273);
},
{
name = top;
pos = (400,760);
},
{
name = topright;
pos = (673,760);
}
);
layerId = "FAB9F01D-70CE-4F71-A270-EC67BDAC6531";
shapes = (
{
closed = 1;
nodes = (
(268,-10,o),
(315,23,o),
(354,71,c),
(358,71,l),
(349,0,l),
(461,0,l),
(622,760,l),
(475,760,l),
(438,585,ls),
(429,544,o),
(425,482,o),
(425,476,c),
(421,476,l),
(395,521,o),
(362,556,o),
(297,556,cs),
(143,556,o),
(44,366,o),
(44,189,cs),
(44,44,o),
(119,-10,o),
(198,-10,cs)
);
},
{
closed = 1;
nodes = (
(217,109,o),
(193,138,o),
(193,195,cs),
(193,310,o),
(250,437,o),
(322,437,cs),
(364,437,o),
(390,403,o),
(390,351,cs),
(390,274,o),
(352,109,o),
(260,109,cs)
);
}
);
width = 594;
},
{
anchors = (
{
name = bottom;
pos = (172,0);
},
{
name = center;
pos = (266,265);
},
{
name = top;
pos = (333,760);
},
{
name = topright;
pos = (541,760);
}
);
layerId = "E7382CC2-7CD9-4594-B524-5D480E09B385";
shapes = (
{
closed = 1;
nodes = (
(179,-10,o),
(209,17,o),
(247,65,c),
(250,65,l),
(249,0,l),
(346,0,l),
(508,760,l),
(388,760,l),
(349,579,ls),
(344,556,o),
(339,523,o),
(334,487,c),
(331,487,l),
(314,533,o),
(276,555,o),
(230,555,cs),
(87,555,o),
(19,289,o),
(19,148,cs),
(19,49,o),
(60,-10,o),
(128.008,-10,cs)
);
},
{
closed = 1;
nodes = (
(155,92,o),
(143,116,o),
(143,163,cs),
(143,243,o),
(183,450,o),
(258,450,cs),
(286,450,o),
(300,428,o),
(300,384,cs),
(300,302,o),
(261,92,o),
(179,92,cs)
);
}
);
width = 455;
},
{
anchors = (
{
name = bottom;
pos = (239,0);
},
{
name = center;
pos = (347,268);
},
{
name = top;
pos = (395,760);
},
{
name = topright;
pos = (663,760);
}
);
layerId = "9733853B-DD8E-49B4-939D-1F0D465E8B6E";
shapes = (
{
closed = 1;
nodes = (
(268,-10,o),
(323,39,o),
(371,99,c),
(375,99,l),
(364,0,l),
(436,0,l),
(597,760,l),
(510,760,l),
(473,585,ls),
(462,537,o),
(457,498,o),
(451,453,c),
(446,453,l),
(424,502,o),
(383,545,o),
(311,545,cs),
(149,545,o),
(48,369,o),
(48,173,cs),
(48,51,o),
(107,-10,o),
(193,-10,cs)
);
},
{
closed = 1;
nodes = (
(167,63,o),
(138,99,o),
(138,171,cs),
(138,321,o),
(211,472,o),
(317,472,cs),
(388,472,o),
(417,428,o),
(417,364,cs),
(417,205,o),
(311,63,o),
(223,63,cs)
);
}
);
width = 579;
},
{
anchors = (
{
name = bottom;
pos = (155,0);
},
{
name = center;
pos = (229,265);
},
{
name = top;
pos = (317,760);
},
{
name = topright;
pos = (507,760);
}
);
layerId = "A849C433-1DA2-4174-AEA9-F403839AA1E5";
shapes = (
{
closed = 1;
nodes = (
(176,-10,o),
(211,20,o),
(248,74,c),
(250,74,l),
(244,0,l),
(306,0,l),
(467,760,l),
(390,760,l),
(350,570,ls),
(344,541,o),
(338,507,o),
(332,473,c),
(329,473,l),
(318,519,o),
(283,546,o),
(237,546,cs),
(92,546,o),
(24,286,o),
(24,139,cs),
(24,43,o),
(61,-10,o),
(127,-10,cs)
);
},
{
closed = 1;
nodes = (
(120,57,o),
(104,85,o),
(104,143,cs),
(104,257,o),
(155,477,o),
(249,477,cs),
(287,477,o),
(305,450,o),
(305,400,cs),
(305,307,o),
(261,57,o),
(154,57,cs)
);
}
);
width = 422;
},
{
anchors = (
{
name = bottom;
pos = (188,0);
},
{
name = center;
pos = (300,265);
},
{
name = top;
pos = (349,760);
},
{
name = topright;
pos = (572,760);
}
);
layerId = "1C9FFC3E-B033-49C1-8526-F3CD51FE3A6C";
shapes = (
{
closed = 1;
nodes = (
(180,-10,o),
(206,14,o),
(245,57,c),
(249,57,l),
(253,0,l),
(383,0,l),
(545,760,l),
(385,760,l),
(348,588,ls),
(344,571,o),
(339,538,o),
(335,500,c),
(332,500,l),
(311,546,o),
(269,563,o),
(223,563,cs),
(82,563,o),
(14,291,o),
(14,156,cs),
(14,54,o),
(58,-10,o),
(129,-10,cs)
);
},
{
closed = 1;
nodes = (
(187,125,o),
(179,144,o),
(179,181,cs),
(179,229,o),
(209,424,o),
(266,424,cs),
(286,424,o),
(296,407,o),
(296,370,cs),
(296,295,o),
(260,125,o),
(201,125,cs)
);
}
);
width = 487;
},
{
anchors = (
{
name = bottom;
pos = (247,0);
},
{
name = center;
pos = (361,277);
},
{
name = top;
pos = (405,760);
},
{
name = topright;
pos = (684,760);
}
);
layerId = "84606D06-D269-45BD-896C-8402F9D7AD38";
shapes = (
{
closed = 1;
nodes = (
(268,-10,o),
(302,22,o),
(329,60,c),
(333,60,l),
(328,0,l),
(479,0,l),
(640,760,l),
(449,760,l),
(419,613,ls),
(409,567,o),
(406,501,o),
(406,489,c),
(402,489,l),
(372,534,o),
(346,563,o),
(286,563,cs),
(118,563,o),
(41,336,o),
(41,201,cs),
(41,44,o),
(113,-10,o),
(198,-10,cs)
);
},
{
closed = 1;
nodes = (
(248,142,o),
(234,167,o),
(234,212,cs),
(234,307,o),
(280,411,o),
(332,411,cs),
(359,411,o),
(371,383,o),
(371,341,cs),
(371,260,o),
(334,142,o),
(276,142,cs)
);
}
);
width = 604;
}
);
script = latin;
subCategory = Lowercase;
unicode = 100;
}
{
category = Letter;
glyphname = e;
kernLeft = o.right;
kernRight = o.left;
layers = (
{
anchors = (
{
name = bottom;
pos = (107,0);
},
{
name = center;
pos = (168,263);
},
{
name = top;
pos = (219,526);
},
{
name = topright;
pos = (362,526);
}
);
layerId = "891911EE-97A3-4583-AC34-B57874F49FBA";
shapes = (
{
closed = 1;
nodes = (
(179,-10,o),
(208,0,o),
(229,12,c),
(229,41,l),
(204,26,o),
(176,15,o),
(145,15,cs),
(82,15,o),
(54,55,o),
(54,147,cs),
(54,186,o),
(57,220,o),
(63,251,c),
(69,251,ls),
(241,251,o),
(309,354,o),
(309,447,cs),
(309,511,o),
(277,536,o),
(230,536,cs),
(122,536,o),
(27,355,o),
(27,142,cs),
(27,38,o),
(67,-10,o),
(140,-10,cs)
);
},
{
closed = 1;
nodes = (
(67,276,l),
(93,407,o),
(159,511,o),
(229,511,cs),
(265,511,o),
(282,487,o),
(282,446,cs),
(282,366,o),
(225,276,o),
(72,276,c)
);
}
);
width = 326;
},
{
anchors = (
{
name = bottom;
pos = (190,0);
},
{
name = center;
pos = (260,264);
},
{
name = top;
pos = (302,528);
},
{
name = topright;
pos = (527,528);
}
);
layerId = "4ABFEEF6-B0FE-443E-B48D-B4A70A3A2C9A";
shapes = (
{
closed = 1;
nodes = (
(301,-10,o),
(357,6,o),
(386,22,c),
(386,48,l),
(354,34,o),
(308,15,o),
(251,15,cs),
(152,15,o),
(89,78,o),
(89,194,cs),
(89,217,o),
(91,241,o),
(93,256,c),
(127,256,ls),
(308,256,o),
(458,294,o),
(458,424,cs),
(458,491,o),
(407,538,o),
(333,538,cs),
(181,538,o),
(62,387,o),
(62,194,cs),
(62,48,o),
(152,-10,o),
(246,-10,cs)
);
},
{
closed = 1;
nodes = (
(97,281,l),
(127,428,o),
(232,513,o),
(329,513,cs),
(396,513,o),
(431,475,o),
(431,423,cs),
(431,325,o),
(312,281,o),
(145,281,cs)
);
}
);
width = 491;
},
{
anchors = (
{
name = bottom;
pos = (245,0);
},
{
name = center;
pos = (288,273);
},
{
name = top;
pos = (343,546);
},
{
name = topright;
pos = (595,546);
}
);
layerId = "FAB9F01D-70CE-4F71-A270-EC67BDAC6531";
shapes = (
{
closed = 1;
nodes = (
(338,-10,o),
(393,4,o),
(450,32,c),
(450,143,l),
(386,113,o),
(346,101,o),
(289,101,cs),
(227,101,o),
(192,138,o),
(192,197,cs),
(192,204,o),
(192,209,o),
(193,217,c),
(218,217,ls),
(430,217,o),
(532,292,o),
(532,407,cs),
(532,494,o),
(471,556,o),
(349,556,cs),
(150,556,o),
(44,384,o),
(44,201,cs),
(44,59,o),
(132,-10,o),
(260,-10,cs)
);
},
{
closed = 1;
nodes = (
(209,316,l),
(226,395,o),
(285,450,o),
(340,450,cs),
(372,450,o),
(391,435,o),
(391,404,cs),
(391,357,o),
(344,316,o),
(231,316,cs)
);
}
);
width = 557;
},
{
anchors = (
{
name = bottom;
pos = (155,0);
},
{
name = center;
pos = (216,272);
},
{
name = top;
pos = (267,530);
},
{
name = topright;
pos = (458,530);
}
);
layerId = "E7382CC2-7CD9-4594-B524-5D480E09B385";
shapes = (
{
closed = 1;
nodes = (
(235,-10,o),
(283,0,o),
(331,31,c),
(331,124,l),
(283,97,o),
(253,88,o),
(211,88,cs),
(163,88,o),
(139,114,o),
(139,178,cs),
(139,196,o),
(141,215,o),
(145,233,c),
(153,233,ls),
(311,233,o),
(412,300,o),
(412,427,cs),
(412,507,o),
(358,554,o),
(278,554,cs),
(110,554,o),
(21,358,o),
(21,165,cs),
(21,55,o),
(82,-10,o),
(182,-10,cs)
);
},
{
closed = 1;
nodes = (
(162,320,l),
(184,407,o),
(221,459,o),
(261,459,cs),
(287,459,o),
(301,442,o),
(301,416,cs),
(301,361,o),
(267,320,o),
(165,320,c)
);
}
);
width = 422;
},
{
anchors = (
{
name = bottom;
pos = (225,0);
},
{
name = center;
pos = (258,268);
},
{
name = top;
pos = (314,536);
},
{
name = topright;
pos = (536,536);
}
);
layerId = "9733853B-DD8E-49B4-939D-1F0D465E8B6E";
shapes = (
{
closed = 1;
nodes = (
(310,-10,o),
(353,6,o),
(404,29,c),
(404,104,l),
(351,78,o),
(308,63,o),
(258,63,cs),
(176,63,o),
(137,113,o),
(137,195,cs),
(137,206,o),
(138,220,o),
(139,232,c),
(156,232,ls),
(376,232,o),
(469,316,o),
(469,421,cs),
(469,499,o),
(417,546,o),
(316,546,cs),
(150,546,o),
(48,362,o),
(48,192,cs),
(48,68,o),
(118,-10,o),
(242,-10,cs)
);
},
{
closed = 1;
nodes = (
(152,303,l),
(181,411,o),
(247,473,o),
(311,473,cs),
(360,473,o),
(383,448,o),
(383,414,cs),
(383,332,o),
(279,303,o),
(159,303,cs)
);
}
);
width = 499;
},
{
anchors = (
{
name = bottom;
pos = (135,0);
},
{
name = center;
pos = (194,268);
},
{
name = top;
pos = (247,529);
},
{
name = topright;
pos = (417,529);
}
);
layerId = "A849C433-1DA2-4174-AEA9-F403839AA1E5";
shapes = (
{
closed = 1;
nodes = (
(210,-10,o),
(250,-1,o),
(285,21,c),
(285,86,l),
(246,64,o),
(219,55,o),
(183,55,cs),
(128,55,o),
(101,88,o),
(101,163,cs),
(101,189,o),
(104,216,o),
(109,241,c),
(116,241,ls),
(272,241,o),
(365,316,o),
(365,435,cs),
(365,508,o),
(323,546,o),
(257,546,cs),
(124,546,o),
(24,370,o),
(24,154,cs),
(24,49,o),
(76,-10,o),
(164,-10,cs)
);
},
{
closed = 1;
nodes = (
(120,301,l),
(145,406,o),
(194,481,o),
(246,481,cs),
(278,481,o),
(292,462,o),
(292,431,cs),
(292,353,o),
(242,301,o),
(123,301,c)
);
}
);
width = 382;
},
{
anchors = (
{
name = bottom;
pos = (175,0);
},
{
name = center;
pos = (236,276);
},
{
name = top;
pos = (287,530);
},
{
name = topright;
pos = (497,530);
}
);
layerId = "1C9FFC3E-B033-49C1-8526-F3CD51FE3A6C";
shapes = (
{
closed = 1;
nodes = (
(257,-10,o),
(313,1,o),
(372,40,c),
(372,159,l),
(317,128,o),
(284,119,o),
(236,119,cs),
(195,119,o),
(174,138,o),
(174,193,cs),
(174,202,o),
(175,214,o),
(177,225,c),
(187,225,ls),
(345,225,o),
(455,285,o),
(455,419,cs),
(455,506,o),
(390,562,o),
(297,562,cs),
(97,562,o),
(17,349,o),
(17,176,cs),
(17,60,o),
(86,-10,o),
(199,-10,cs)
);
},
{
closed = 1;
nodes = (
(201,339,l),
(220,408,o),
(246,437,o),
(274,437,cs),
(294,437,o),
(309,423,o),
(309,403,cs),
(309,366,o),
(288,339,o),
(203,339,c)
);
}
);
width = 461;
},
{
anchors = (
{
name = bottom;
pos = (260,0);
},
{
name = center;
pos = (299,276);
},
{
name = top;
pos = (352,553);
},
{
name = topright;
pos = (618,553);
}
);
layerId = "84606D06-D269-45BD-896C-8402F9D7AD38";
shapes = (
{
closed = 1;
nodes = (
(356,-10,o),
(412,10,o),
(471,40,c),
(471,174,l),
(414,144,o),
(367,126,o),
(311,126,cs),
(258,126,o),
(231,149,o),
(231,198,cs),
(231,201,o),
(231,203,o),
(231,206,c),
(260,206,ls),
(466,206,o),
(557,287,o),
(557,409,cs),
(557,502,o),
(482,563,o),
(358,563,cs),
(143,563,o),
(41,390,o),
(41,209,cs),
(41,73,o),
(120,-10,o),
(260,-10,cs)
);
},
{
closed = 1;
nodes = (
(250,324,l),
(257,375,o),
(293,435,o),
(337,435,cs),
(365,435,o),
(378,419,o),
(378,398,cs),
(378,364,o),
(349,324,o),
(264,324,cs)
);
}
);
width = 579;
}
);
script = latin;
subCategory = Lowercase;
unicode = 101;
}
{
category = Letter;
glyphname = f;
kernLeft = f.right;
kernRight = f.left;
layers = (
{
anchors = (
{
name = bottom;
pos = (-93,-240);
},
{
name = center;
pos = (85,262);
},
{
name = top;
pos = (259,765);
},
{
name = topright;
pos = (291,765);
}
);
layerId = "891911EE-97A3-4583-AC34-B57874F49FBA";
shapes = (
{
closed = 1;
nodes = (
(-24,-240,o),
(-1,-180,o),
(15,-107,cs),
(145,501,l),
(214,501,l),
(219,526,l),
(150,526,l),
(172,627,ls),
(188,699,o),
(205,740,o),
(252,740,cs),
(267,740,o),
(282,736,o),
(292,731,c),
(302,755,l),
(293,759,o),
(272,765,o),
(256,765,cs),
(194,765,o),
(168,723,o),
(148,635,cs),
(124,527,l),
(63,521,l),
(59,501,l),
(119,501,l),
(-11,-104,ls),
(-25,-169,o),
(-42,-215,o),
(-93,-215,cs),
(-111,-215,o),
(-120,-213,o),
(-131,-209,c),
(-131,-234,l),
(-123,-237,o),
(-111,-240,o),
(-93,-240,cs)
);
}
);
width = 184;
},
{
anchors = (
{
name = bottom;
pos = (-71,-240);
},
{
name = center;
pos = (140,262);
},
{
name = top;
pos = (337,765);
},
{
name = topright;
pos = (410,765);
}
);
layerId = "4ABFEEF6-B0FE-443E-B48D-B4A70A3A2C9A";
shapes = (
{
closed = 1;
nodes = (
(-14,-240,o),
(25,-205,o),
(43,-120,cs),
(176,503,l),
(296,503,l),
(301,528,l),
(181,528,l),
(197,605,ls),
(216,698,o),
(255,740,o),
(336,740,cs),
(360,740,o),
(384,736,o),
(405,727,c),
(413,752,l),
(394,759,o),
(368,765,o),
(337,765,cs),
(239,765,o),
(193,707,o),
(172,609,cs),
(155,528,l),
(60,525,l),
(56,503,l),
(149,503,l),
(18,-116,ls),
(4,-180,o),
(-25,-215,o),
(-71,-215,cs),
(-89,-215,o),
(-113,-211,o),
(-132,-204,c),
(-132,-230,l),
(-119,-235,o),
(-89,-240,o),
(-71,-240,cs)
);
}
);
width = 264;
},
{
anchors = (
{
name = bottom;
pos = (-22,-240);
},
{
name = center;
pos = (187,262);
},
{
name = top;
pos = (364,765);
},
{
name = topright;
pos = (498,765);
}
);
layerId = "FAB9F01D-70CE-4F71-A270-EC67BDAC6531";
shapes = (
{
closed = 1;
nodes = (
(101,-240,o),
(154,-159,o),
(175,-59,cs),
(280,434,l),
(387,434,l),
(411,546,l),
(304,546,l),
(310,576,ls),
(318,618,o),
(341,647,o),
(378,647,c),
(404,647,o),
(424,640,o),
(443,632,c),
(482,741,l),
(450,756,o),
(412,765,o),
(367,765,c),
(260,765,o),
(195,719,o),
(166,587,cs),
(157,546,l),
(68,505,l),
(53,434,l),
(133,434,l),
(33,-37,ls),
(21,-95,o),
(-11,-120,o),
(-51,-120,cs),
(-70,-120,o),
(-86,-117,o),
(-107,-110,c),
(-107,-228,l),
(-87,-235,o),
(-53,-240,o),
(-22,-240,c)
);
}
);
width = 373;
},
{
anchors = (
{
name = bottom;
pos = (-53,-240);
},
{
name = center;
pos = (134,262);
},
{
name = top;
pos = (292,765);
},
{
name = topright;
pos = (397,765);
}
);
layerId = "E7382CC2-7CD9-4594-B524-5D480E09B385";
shapes = (
{
closed = 1;
nodes = (
(53,-240,o),
(89,-166,o),
(112,-54,cs),
(219,444,l),
(297,444,l),
(317,545,l),
(240,545,l),
(250,590,ls),
(260,634,o),
(272,663,o),
(303,663,cs),
(315,663,o),
(331,658,o),
(344,651,c),
(386,743,l),
(354,759,o),
(321,765,o),
(288,765,cs),
(179,765,o),
(149,677,o),
(130,589,cs),
(119,543,l),
(56,508,l),
(43,444,l),
(99,444,l),
(-5,-44,ls),
(-16,-97,o),
(-25,-134,o),
(-70,-134,cs),
(-83,-134,o),
(-105,-131,o),
(-117,-126,c),
(-117,-231,l),
(-95,-239,o),
(-75,-240,o),
(-53,-240,cs)
);
}
);
width = 271;
},
{
anchors = (
{
name = bottom;
pos = (-48,-240);
},
{
name = center;
pos = (165,262);
},
{
name = top;
pos = (349,765);
},
{
name = topright;
pos = (454,765);
}
);
layerId = "9733853B-DD8E-49B4-939D-1F0D465E8B6E";
shapes = (
{
closed = 1;
nodes = (
(48,-240,o),
(94,-174,o),
(118,-63,cs),
(230,469,l),
(345,469,l),
(358,536,l),
(243,536,l),
(255,587,ls),
(273,670,o),
(301,693,o),
(353,693,c),
(379,693,o),
(401,686,o),
(420,679,c),
(443,746,l),
(421,756,o),
(382,765,o),
(349,765,c),
(250,765,o),
(198,724,o),
(167,587,cs),
(156,539,l),
(56,506,l),
(49,469,l),
(142,469,l),
(32,-53,ls),
(16,-127,o),
(-8,-167,o),
(-56,-167,cs),
(-77,-167,o),
(-94,-162,o),
(-112,-156,c),
(-112,-230,l),
(-95,-236,o),
(-74,-240,o),
(-48,-240,c)
);
}
);
width = 318;
},
{
anchors = (
{
name = bottom;
pos = (-72,-240);
},
{
name = center;
pos = (111,262);
},
{
name = top;
pos = (271,765);
},
{
name = topright;
pos = (346,765);
}
);
layerId = "A849C433-1DA2-4174-AEA9-F403839AA1E5";
shapes = (
{
closed = 1;
nodes = (
(22,-240,o),
(48,-160,o),
(69,-61,cs),
(184,470,l),
(257,470,l),
(271,536,l),
(198,536,l),
(209,591,ls),
(224,660,o),
(239,697,o),
(277,697,cs),
(290,697,o),
(304,694,o),
(317,687,c),
(346,749,l),
(325,760,o),
(299,765,o),
(273,765,cs),
(184,765,o),
(156,702,o),
(133,593,cs),
(120,537,l),
(57,513,l),
(49,470,l),
(106,470,l),
(-6,-55,ls),
(-22,-129,o),
(-32,-171,o),
(-80,-171,cs),
(-95,-171,o),
(-111,-168,o),
(-123,-164,c),
(-123,-233,l),
(-107,-238,o),
(-91,-240,o),
(-72,-240,cs)
);
}
);
width = 230;
},
{
anchors = (
{
name = bottom;
pos = (-36,-240);
},
{
name = center;
pos = (156,262);
},
{
name = top;
pos = (301,765);
},
{
name = topright;
pos = (435,765);
}
);
layerId = "1C9FFC3E-B033-49C1-8526-F3CD51FE3A6C";
shapes = (
{
closed = 1;
nodes = (
(84,-240,o),
(127,-170,o),
(153,-45,cs),
(253,420,l),
(334,420,l),
(361,553,l),
(280,553,l),
(288,587,l),
(293,609,o),
(303,630,o),
(327,630,cs),
(338,630,o),
(355,625,o),
(369,617,c),
(423,737,l),
(382,758,o),
(342,765,o),
(303,765,cs),
(175,765,o),
(142,654,o),
(127,582,cs),
(119,548,l),
(55,503,l),
(38,420,l),
(92,420,l),
(-3,-32,ls),
(-10,-67,o),
(-17,-100,o),
(-60,-100,cs),
(-72,-100,o),
(-98,-96,o),
(-110,-90,c),
(-110,-229,l),
(-83,-239,o),
(-60,-240,o),
(-36,-240,cs)
);
}
);
width = 309;
},
{
anchors = (
{
name = bottom;
pos = (-1,-240);
},
{
name = center;
pos = (205,262);
},
{
name = top;
pos = (366,765);
},
{
name = topright;
pos = (534,765);
}
);
layerId = "84606D06-D269-45BD-896C-8402F9D7AD38";
shapes = (
{
closed = 1;
nodes = (
(134,-240,o),
(194,-163,o),
(217,-57,cs),
(317,411,l),
(419,411,l),
(451,553,l),
(348,553,l),
(356,588,ls),
(361,611,o),
(378,623,o),
(401,623,cs),
(422,623,o),
(445,617,o),
(464,608,c),
(512,737,l),
(478,754,o),
(426,765,o),
(374,765,cs),
(262,765,o),
(196,712,o),
(168,587,cs),
(160,551,l),
(68,504,l),
(47,411,l),
(128,411,l),
(35,-27,ls),
(26,-69,o),
(3,-88,o),
(-45,-88,cs),
(-63,-88,o),
(-84,-84,o),
(-102,-79,c),
(-102,-227,l),
(-79,-234,o),
(-36,-240,o),
(-1,-240,cs)
);
}
);
width = 410;
}
);
script = latin;
subCategory = Lowercase;
unicode = 102;
}
{
category = Letter;
glyphname = m;
kernLeft = n.right;
kernRight = m;
layers = (
{
anchors = (
{
name = bottom;
pos = (217,0);
},
{
name = center;
pos = (260,268);
},
{
name = top;
pos = (329,526);
},
{
name = topright;
pos = (581,526);
}
);
layerId = "891911EE-97A3-4583-AC34-B57874F49FBA";
shapes = (
{
closed = 1;
nodes = (
(32,0,l),
(94,291,ls),
(120,413,o),
(151,511,o),
(235,511,cs),
(274,511,o),
(295,489,o),
(295,451,cs),
(295,439,o),
(294,422,o),
(290,405,cs),
(202,0,l),
(228,0,l),
(311,379,ls),
(327,450,o),
(357,511,o),
(424,511,cs),
(462,511,o),
(489,491,o),
(489,450,cs),
(489,434,o),
(486,414,o),
(480,386,cs),
(398,0,l),
(424,0,l),
(506,385,ls),
(510,404,o),
(515,435,o),
(515,453,cs),
(515,510,o),
(475,536,o),
(428,536,cs),
(377,536,o),
(340,509,o),
(319,465,c),
(317,465,l),
(314,510,o),
(286,536,o),
(237,536,cs),
(190,536,o),
(152,507,o),
(128,455,c),
(126,455,l),
(139,526,l),
(117,526,l),
(6,0,l)
);
}
);
width = 545;
},
{
anchors = (
{
name = bottom;
pos = (365,0);
},
{
name = center;
pos = (407,269);
},
{
name = top;
pos = (477,528);
},
{
name = topright;
pos = (878,528);
}
);
layerId = "4ABFEEF6-B0FE-443E-B48D-B4A70A3A2C9A";
shapes = (
{
closed = 1;
nodes = (
(58,0,l),
(116,274,ls),
(141,393,o),
(231,513,o),
(331,513,cs),
(395,513,o),
(432,474,o),
(432,407,cs),
(432,389,o),
(430,358,o),
(424,330,cs),
(353,0,l),
(379,0,l),
(437,275,ls),
(462,394,o),
(552,513,o),
(653,513,cs),
(717,513,o),
(756,479,o),
(756,404,cs),
(756,387,o),
(754,367,o),
(749,345,cs),
(676,0,l),
(702,0,l),
(774,342,ls),
(779,365,o),
(782,389,o),
(782,408,cs),
(782,493,o),
(737,538,o),
(658,538,cs),
(558,538,o),
(489,454,o),
(457,389,c),
(456,389,l),
(461,478,o),
(428,538,o),
(337,538,cs),
(236,538,o),
(170,453,o),
(139,389,c),
(137,389,l),
(166,528,l),
(144,528,l),
(32,0,l)
);
}
);
width = 842;
},
{
anchors = (
{
name = bottom;
pos = (403,0);
},
{
name = center;
pos = (436,278);
},
{
name = top;
pos = (528,546);
},
{
name = topright;
pos = (943,546);
}
);
layerId = "FAB9F01D-70CE-4F71-A270-EC67BDAC6531";
shapes = (
{
closed = 1;
nodes = (
(165,0,l),
(213,226,ls),
(238,342,o),
(285,437,o),
(352,437,cs),
(384,437,o),
(400,418,o),
(400,377,cs),
(400,361,o),
(397,341,o),
(392,319,cs),
(325,0,l),
(472,0,l),
(519,227,ls),
(543,344,o),
(591,437,o),
(658,437,cs),
(690,437,o),
(706,418,o),
(706,377,cs),
(706,361,o),
(703,341,o),
(698,319,cs),
(631,0,l),
(778,0,l),
(843,311,ls),
(850,344,o),
(854,375,o),
(854,399,cs),
(854,495,o),
(809,556,o),
(718,556,cs),
(642,556,o),
(585,510,o),
(544,445,c),
(540,445,l),
(527,514,o),
(487,556,o),
(412,556,cs),
(336,556,o),
(282,510,o),
(240,445,c),
(236,445,l),
(246,546,l),
(134,546,l),
(18,0,l)
);
}
);
width = 905;
},
{
anchors = (
{
name = bottom;
pos = (280,0);
},
{
name = center;
pos = (321,277);
},
{
name = top;
pos = (392,545);
},
{
name = topright;
pos = (707,545);
}
);
layerId = "E7382CC2-7CD9-4594-B524-5D480E09B385";
shapes = (
{
closed = 1;
nodes = (
(114,0,l),
(176,292,ls),
(190,365,o),
(216,446,o),
(268,446,cs),
(289,446,o),
(300,432,o),
(300,403,cs),
(300,387,o),
(296,362,o),
(291,336,cs),
(219,0,l),
(339,0,l),
(407,319,ls),
(419,377,o),
(444,446,o),
(490,446,cs),
(512,446,o),
(523,432,o),
(523,402,cs),
(523,385,o),
(519,359,o),
(513,332,cs),
(443,0,l),
(563,0,l),
(640,363,ls),
(646,392,o),
(650,421,o),
(650,443,cs),
(650,515,o),
(613,555,o),
(549,555,cs),
(500,555,o),
(457,529,o),
(426,486,c),
(423,486,l),
(409,533,o),
(377,555,o),
(323,555,cs),
(274,555,o),
(232,526,o),
(203,479,c),
(199,479,l),
(206,545,l),
(109,545,l),
(-7,0,l)
);
}
);
width = 671;
},
{
anchors = (
{
name = bottom;
pos = (386,0);
},
{
name = center;
pos = (423,273);
},
{
name = top;
pos = (506,536);
},
{
name = topright;
pos = (912,536);
}
);
layerId = "9733853B-DD8E-49B4-939D-1F0D465E8B6E";
shapes = (
{
closed = 1;
nodes = (
(116,0,l),
(165,231,ls),
(202,407,o),
(289,472,o),
(354,472,cs),
(401,472,o),
(419,446,o),
(419,402,cs),
(419,386,o),
(416,366,o),
(410,336,cs),
(339,0,l),
(427,0,l),
(478,242,l),
(512,403,o),
(598,472,o),
(663,472,cs),
(710,472,o),
(731,446,o),
(731,406,cs),
(731,386,o),
(728,366,o),
(722,336,cs),
(650,0,l),
(739,0,l),
(808,326,l),
(815,356,o),
(819,382,o),
(819,414,cs),
(819,499,o),
(772,546,o),
(689,546,cs),
(607,546,o),
(545,486,o),
(505,427,c),
(501,427,l),
(493,501,o),
(454,546,o),
(381,546,cs),
(299,546,o),
(244,486,o),
(208,437,c),
(203,437,l),
(214,536,l),
(142,536,l),
(28,0,l)
);
}
);
width = 875;
},
{
anchors = (
{
name = bottom;
pos = (251,0);
},
{
name = center;
pos = (292,273);
},
{
name = top;
pos = (363,529);
},
{
name = topright;
pos = (649,529);
}
);
layerId = "A849C433-1DA2-4174-AEA9-F403839AA1E5";
shapes = (
{
closed = 1;
nodes = (
(77,0,l),
(139,292,ls),
(158,387,o),
(188,476,o),
(256,476,cs),
(284,476,o),
(298,458,o),
(298,424,cs),
(298,410,o),
(296,389,o),
(291,368,cs),
(213,0,l),
(290,0,l),
(364,347,ls),
(377,410,o),
(408,476,o),
(463,476,cs),
(491,476,o),
(506,458,o),
(506,423,cs),
(506,409,o),
(502,384,o),
(497,360,cs),
(421,0,l),
(498,0,l),
(577,375,ls),
(582,399,o),
(586,424,o),
(586,444,cs),
(586,511,o),
(552,546,o),
(495,546,cs),
(447,546,o),
(408,521,o),
(378,477,c),
(376,477,l),
(366,524,o),
(337,546,o),
(286,546,cs),
(238,546,o),
(198,518,o),
(169,466,c),
(166,466,l),
(176,536,l),
(113,536,l),
(-1,0,l)
);
}
);
width = 613;
},
{
anchors = (
{
name = bottom;
pos = (307,0);
},
{
name = center;
pos = (348,281);
},
{
name = top;
pos = (419,553);
},
{
name = topright;
pos = (761,553);
}
);
layerId = "1C9FFC3E-B033-49C1-8526-F3CD51FE3A6C";
shapes = (
{
closed = 1;
nodes = (
(148,0,l),
(210,293,ls),
(220,345,o),
(243,419,o),
(279,419,cs),
(294,419,o),
(301,408,o),
(301,384,cs),
(301,366,o),
(296,336,o),
(290,307,cs),
(225,0,l),
(385,0,l),
(447,293,ls),
(458,345,o),
(477,419,o),
(515,419,cs),
(531,419,o),
(538,407,o),
(538,382,cs),
(538,364,o),
(534,336,o),
(528,307,cs),
(463,0,l),
(623,0,l),
(698,353,ls),
(705,386,o),
(709,417,o),
(709,441,cs),
(709,518,o),
(670,563,o),
(598,563,cs),
(550,563,o),
(503,536,o),
(470,495,c),
(467,495,l),
(449,541,o),
(415,563,o),
(357,563,cs),
(308,563,o),
(264,534,o),
(234,490,c),
(230,490,l),
(233,553,l),
(105,553,l),
(-13,0,l)
);
}
);
width = 725;
},
{
anchors = (
{
name = bottom;
pos = (413,0);
},
{
name = center;
pos = (445,281);
},
{
name = top;
pos = (539,553);
},
{
name = topright;
pos = (965,553);
}
);
layerId = "84606D06-D269-45BD-896C-8402F9D7AD38";
shapes = (
{
closed = 1;
nodes = (
(200,0,l),
(258,269,ls),
(283,383,o),
(314,413,o),
(351,413,cs),
(371,413,o),
(386,400,o),
(386,367,cs),
(386,351,o),
(382,323,o),
(379,308,cs),
(315,0,l),
(504,0,l),
(558,265,ls),
(578,363,o),
(606,413,o),
(654,413,cs),
(675,413,o),
(688,399,o),
(688,373,cs),
(688,345,o),
(684,321,o),
(681,308,cs),
(618,0,l),
(807,0,l),
(868,300,ls),
(875,335,o),
(879,370,o),
(879,400,cs),
(879,507,o),
(830,563,o),
(739,563,cs),
(667,563,o),
(613,531,o),
(571,462,c),
(567,462,l),
(550,527,o),
(511,563,o),
(435,563,cs),
(359,563,o),
(314,535,o),
(275,462,c),
(271,462,l),
(279,553,l),
(128,553,l),
(11,0,l)
);
}
);
width = 926;
}
);
script = latin;
subCategory = Lowercase;
unicode = 109;
}
{
category = Letter;
glyphname = r;
kernLeft = n.right;
kernRight = r.left;
layers = (
{
anchors = (
{
name = bottom;
pos = (61,0);
},
{
name = center;
pos = (141,268);
},
{
name = top;
pos = (173,526);
},
{
name = topright;
pos = (269,526);
}
);
layerId = "891911EE-97A3-4583-AC34-B57874F49FBA";
shapes = (
{
closed = 1;
nodes = (
(32,0,l),
(92,282,ls),
(113,381,o),
(151,511,o),
(242,511,cs),
(254,511,o),
(264,509,o),
(271,506,c),
(277,530,l),
(270,533,o),
(258,536,o),
(242,536,cs),
(189,536,o),
(149,498,o),
(123,437,c),
(121,437,l),
(138,526,l),
(117,526,l),
(6,0,l)
);
}
);
width = 233;
},
{
anchors = (
{
name = bottom;
pos = (129,0);
},
{
name = center;
pos = (213,268);
},
{
name = top;
pos = (241,528);
},
{
name = topright;
pos = (406,528);
}
);
layerId = "4ABFEEF6-B0FE-443E-B48D-B4A70A3A2C9A";
shapes = (
{
closed = 1;
nodes = (
(58,0,l),
(114,266,ls),
(143,402,o),
(243,511,o),
(336,511,cs),
(358,511,o),
(376,508,o),
(389,504,c),
(395,528,l),
(379,533,o),
(358,536,o),
(336,536,cs),
(243,536,o),
(171,447,o),
(140,389,c),
(138,389,l),
(166,528,l),
(144,528,l),
(32,0,l)
);
}
);
width = 370;
},
{
anchors = (
{
name = bottom;
pos = (96,0);
},
{
name = center;
pos = (238,278);
},
{
name = top;
pos = (293,546);
},
{
name = topright;
pos = (459,546);
}
);
layerId = "FAB9F01D-70CE-4F71-A270-EC67BDAC6531";
shapes = (
{
closed = 1;
nodes = (
(165,0,l),
(217,244,ls),
(241,359,o),
(304,417,o),
(377,417,cs),
(397,417,o),
(415,413,o),
(426,409,c),
(458,551,l),
(447,554,o),
(427,556,o),
(411,556,cs),
(340,556,o),
(285,514,o),
(241,445,c),
(236,445,l),
(246,546,l),
(134,546,l),
(18,0,l)
);
}
);
width = 421;
},
{
anchors = (
{
name = bottom;
pos = (102,0);
},
{
name = center;
pos = (178,277);
},
{
name = top;
pos = (214,530);
},
{
name = topright;
pos = (351,530);
}
);
layerId = "E7382CC2-7CD9-4594-B524-5D480E09B385";
shapes = (
{
closed = 1;
nodes = (
(113,0,l),
(172,279,ls),
(187,351,o),
(222,426,o),
(285,426,cs),
(301,426,o),
(315,423,o),
(328,418,c),
(364,548,l),
(348,553,o),
(336,555,o),
(323,555,cs),
(268,555,o),
(233,526,o),
(200,461,c),
(196,461,l),
(203,545,l),
(109,545,l),
(-7,0,l)
);
}
);
width = 315;
},
{
anchors = (
{
name = bottom;
pos = (75,0);
},
{
name = center;
pos = (228,273);
},
{
name = top;
pos = (288,536);
},
{
name = topright;
pos = (435,536);
}
);
layerId = "9733853B-DD8E-49B4-939D-1F0D465E8B6E";
shapes = (
{
closed = 1;
nodes = (
(116,0,l),
(168,245,ls),
(190,351,o),
(259,466,o),
(359,466,c),
(376,466,o),
(392,464,o),
(410,460,c),
(429,539,l),
(411,544,o),
(390,546,o),
(371,546,c),
(295,546,o),
(250,492,o),
(208,437,c),
(203,437,l),
(214,536,l),
(142,536,l),
(28,0,l)
);
}
);
width = 398;
},
{
anchors = (
{
name = bottom;
pos = (82,0);
},
{
name = center;
pos = (161,273);
},
{
name = top;
pos = (194,529);
},
{
name = topright;
pos = (312,529);
}
);
layerId = "A849C433-1DA2-4174-AEA9-F403839AA1E5";
shapes = (
{
closed = 1;
nodes = (
(77,0,l),
(136,280,ls),
(154,366,o),
(194,465,o),
(263,465,cs),
(277,465,o),
(288,463,o),
(299,458,c),
(322,540,l),
(309,544,o),
(297,546,o),
(284,546,cs),
(232,546,o),
(195,514,o),
(165,448,c),
(162,448,l),
(173,536,l),
(113,536,l),
(-0.005,0,l)
);
}
);
width = 276;
},
{
anchors = (
{
name = bottom;
pos = (120,0);
},
{
name = center;
pos = (196,281);
},
{
name = top;
pos = (232,530);
},
{
name = topright;
pos = (388,530);
}
);
layerId = "1C9FFC3E-B033-49C1-8526-F3CD51FE3A6C";
shapes = (
{
closed = 1;
nodes = (
(148,0,l),
(206,278,ls),
(218,338,o),
(250,389,o),
(305,389,cs),
(323,389,o),
(339,386,o),
(354,380,c),
(404,556,l),
(384,562,o),
(372,563,o),
(359,563,cs),
(302,563,o),
(269,537,o),
(233,473,c),
(229,473,l),
(231,553,l),
(105,553,l),
(-12,0,l)
);
}
);
width = 352;
},
{
anchors = (
{
name = bottom;
pos = (111,0);
},
{
name = center;
pos = (245,281);
},
{
name = top;
pos = (303,553);
},
{
name = topright;
pos = (476,553);
}
);
layerId = "84606D06-D269-45BD-896C-8402F9D7AD38";
shapes = (
{
closed = 1;
nodes = (
(200,0,l),
(252,243,ls),
(275,349,o),
(319,383,o),
(378,383,cs),
(402,383,o),
(424,378,o),
(438,372,c),
(479,559,l),
(473,561,o),
(454,563,o),
(440,563,cs),
(365,563,o),
(320,539,o),
(274,461,c),
(270,461,l),
(279,553,l),
(128,553,l),
(11,0,l)
);
}
);
width = 437;
}
);
script = latin;
subCategory = Lowercase;
unicode = 114;
}
{
category = Letter;
glyphname = w;
kernLeft = v.right;
kernRight = v.left;
layers = (
{
anchors = (
{
name = bottom;
pos = (174,0);
},
{
name = center;
pos = (282,262);
},
{
name = top;
pos = (286,526);
},
{
name = topright;
pos = (496,526);
}
);
layerId = "891911EE-97A3-4583-AC34-B57874F49FBA";
shapes = (
{
closed = 1;
nodes = (
(87,-1,l),
(247,391,ls),
(260,423,o),
(271,451,o),
(281,481,c),
(282,481,l),
(279,450,o),
(279,416,o),
(279,390,cs),
(272,-1,l),
(298,-1,l),
(505,526,l),
(479,526,l),
(334,151,ls),
(319,112,o),
(306,78,o),
(295,47,c),
(293,47,l),
(296,81,o),
(298,130,o),
(298,156,cs),
(304,526,l),
(278,526,l),
(128,162,ls),
(113,125,o),
(93,78,o),
(84,48,c),
(82,48,l),
(83,83,o),
(84,118,o),
(84,157,cs),
(87,526,l),
(63,526,l),
(59,-1,l)
);
}
);
width = 460;
},
{
anchors = (
{
name = bottom;
pos = (270,0);
},
{
name = center;
pos = (367,264);
},
{
name = top;
pos = (382,528);
},
{
name = topright;
pos = (687,528);
}
);
layerId = "4ABFEEF6-B0FE-443E-B48D-B4A70A3A2C9A";
shapes = (
{
closed = 1;
nodes = (
(110,0,l),
(312,389,ls),
(328,419,o),
(341,447,o),
(358,483,c),
(359,483,l),
(361,447,o),
(363,423,o),
(367,389,cs),
(407,0,l),
(430,0,l),
(681,528,l),
(654,528,l),
(477,156,ls),
(451,100,o),
(438,73,o),
(427,42,c),
(425,42,l),
(424,74,o),
(421,105,o),
(416,156,cs),
(377,528,l),
(357,528,l),
(164,156,ls),
(132,95,o),
(122,73,o),
(108,42,c),
(106,42,l),
(106,74,o),
(105,105,o),
(102,156,cs),
(80,528,l),
(54,528,l),
(87,0,l)
);
}
);
width = 651;
},
{
anchors = (
{
name = bottom;
pos = (333,0);
},
{
name = center;
pos = (450,273);
},
{
name = top;
pos = (442,546);
},
{
name = topright;
pos = (826,546);
}
);
layerId = "FAB9F01D-70CE-4F71-A270-EC67BDAC6531";
shapes = (
{
closed = 1;
nodes = (
(244,0,l),
(358,264,ls),
(374,301,o),
(398,372,o),
(415,420,c),
(421,420,l),
(418,372,o),
(416,295,o),
(416,254,cs),
(419,0,l),
(580,0,l),
(839,546,l),
(689,546,l),
(582,304,ls),
(565,265,o),
(538,184,o),
(524,139,c),
(519,139,l),
(524,193,o),
(524,239,o),
(524,284,cs),
(524,546,l),
(364,546,l),
(251,284,ls),
(243,266,o),
(213,189,o),
(199,139,c),
(195,139,l),
(200,200,o),
(200,251,o),
(200,304,cs),
(198,546,l),
(61,546,l),
(86,0,l)
);
}
);
width = 788;
},
{
anchors = (
{
name = bottom;
pos = (251,0);
},
{
name = center;
pos = (358,272);
},
{
name = top;
pos = (363,530);
},
{
name = topright;
pos = (649,530);
}
);
layerId = "E7382CC2-7CD9-4594-B524-5D480E09B385";
shapes = (
{
closed = 1;
nodes = (
(185,0,l),
(300,304,ls),
(309,331,o),
(318,355,o),
(327,383,c),
(329,383,l),
(327,351,o),
(324,320,o),
(322,289,cs),
(307,0,l),
(446,0,l),
(665,545,l),
(545,545,l),
(458,314,ls),
(442,272,o),
(428,227,o),
(414,185,c),
(412,185,l),
(414,221,o),
(418,263,o),
(420,302,cs),
(431,545,l),
(295,545,l),
(200,298,ls),
(188,264,o),
(174,224,o),
(165,192,c),
(162,192,l),
(165,228,o),
(169,267,o),
(172,308,cs),
(181,545,l),
(64,545,l),
(52,0,l)
);
}
);
width = 613;
},
{
anchors = (
{
name = bottom;
pos = (299,0);
},
{
name = center;
pos = (409,268);
},
{
name = top;
pos = (409,536);
},
{
name = topright;
pos = (760,536);
}
);
layerId = "9733853B-DD8E-49B4-939D-1F0D465E8B6E";
shapes = (
{
closed = 1;
nodes = (
(183,0,l),
(323,300,ls),
(355,368,o),
(369,402,o),
(387,451,c),
(391,451,l),
(391,388,o),
(389,343,o),
(392,290,cs),
(407,0,l),
(513,0,l),
(761,536,l),
(668,536,l),
(551,273,ls),
(519,200,o),
(491,128,o),
(474,77,c),
(470,77,l),
(472,128,o),
(470,200,o),
(469,249,cs),
(452,536,l),
(357,536,l),
(216,233,ls),
(196,191,o),
(166,119,o),
(151,77,c),
(147,77,l),
(150,115,o),
(153,177,o),
(151,250,cs),
(143,536,l),
(57,536,l),
(79,0,l)
);
}
);
width = 723;
},
{
anchors = (
{
name = bottom;
pos = (216,0);
},
{
name = center;
pos = (322,268);
},
{
name = top;
pos = (328,529);
},
{
name = topright;
pos = (579,529);
}
);
layerId = "A849C433-1DA2-4174-AEA9-F403839AA1E5";
shapes = (
{
closed = 1;
nodes = (
(141,0,l),
(276,352,ls),
(286,378,o),
(295,403,o),
(303,430,c),
(305,430,l),
(302,397,o),
(300,364,o),
(299,332,cs),
(286,0,l),
(376,0,l),
(591,536,l),
(513,536,l),
(401,244,ls),
(384,200,o),
(370,159,o),
(355,115,c),
(353,115,l),
(355,155,o),
(359,197,o),
(360,233,cs),
(370,536,l),
(283,536,l),
(159,219,ls),
(148,191,o),
(134,152,o),
(124,119,c),
(122,119,l),
(125,153,o),
(128,190,o),
(129,230,cs),
(138,536,l),
(63,536,l),
(53,0,l)
);
}
);
width = 543;
},
{
anchors = (
{
name = bottom;
pos = (283,0);
},
{
name = center;
pos = (391,276);
},
{
name = top;
pos = (395,530);
},
{
name = topright;
pos = (714,530);
}
);
layerId = "1C9FFC3E-B033-49C1-8526-F3CD51FE3A6C";
shapes = (
{
closed = 1;
nodes = (
(226,0,l),
(321,261,ls),
(330,287,o),
(338,311,o),
(347,339,c),
(350,339,l),
(348,309,o),
(345,279,o),
(343,249,cs),
(326,0,l),
(510,0,l),
(733,553,l),
(573,553,l),
(510,380,ls),
(495,339,o),
(480,290,o),
(468,249,c),
(465,249,l),
(468,283,o),
(472,323,o),
(475,366,cs),
(487,553,l),
(305,553,l),
(237,369,ls),
(223,331,o),
(210,290,o),
(201,260,c),
(198,260,l),
(202,297,o),
(207,338,o),
(210,380,cs),
(221,553,l),
(64,553,l),
(50,0,l)
);
}
);
width = 678;
},
{
anchors = (
{
name = bottom;
pos = (348,0);
},
{
name = center;
pos = (464,276);
},
{
name = top;
pos = (455,553);
},
{
name = topright;
pos = (862,553);
}
);
layerId = "84606D06-D269-45BD-896C-8402F9D7AD38";
shapes = (
{
closed = 1;
nodes = (
(281,0,l),
(372,237,ls),
(387,277,o),
(411,345,o),
(425,400,c),
(429,400,l),
(423,347,o),
(419,270,o),
(417,219,cs),
(410,0,l),
(616,0,l),
(879,553,l),
(691,553,l),
(580,284,ls),
(565,247,o),
(555,217,o),
(543,177,c),
(539,177,l),
(544,221,o),
(545,261,o),
(546,281,cs),
(560,553,l),
(361,553,l),
(255,271,ls),
(245,243,o),
(234,209,o),
(226,177,c),
(222,177,l),
(225,208,o),
(228,247,o),
(228,283,cs),
(228,553,l),
(50,553,l),
(82,0,l)
);
}
);
width = 823;
}
);
script = latin;
subCategory = Lowercase;
unicode = 119;
}
{
category = Letter;
glyphname = x;
kernRight = k.left;
layers = (
{
anchors = (
{
name = bottom;
pos = (86,0);
},
{
name = center;
pos = (137,263);
},
{
name = top;
pos = (198,526);
},
{
name = topright;
pos = (320,526);
}
);
layerId = "891911EE-97A3-4583-AC34-B57874F49FBA";
shapes = (
{
closed = 1;
nodes = (
(-14,0,l),
(138,247,l),
(184,0,l),
(210,0,l),
(158,268,l),
(317,526,l),
(288,526,l),
(148,295,l),
(106,526,l),
(80,526,l),
(128,275,l),
(-43,0,l)
);
}
);
width = 284;
},
{
anchors = (
{
name = bottom;
pos = (172,0);
},
{
name = center;
pos = (218,264);
},
{
name = top;
pos = (284,528);
},
{
name = topright;
pos = (491,528);
}
);
layerId = "4ABFEEF6-B0FE-443E-B48D-B4A70A3A2C9A";
shapes = (
{
closed = 1;
nodes = (
(-1,0,l),
(220,253,l),
(340,0,l),
(369,0,l),
(239,271,l),
(469,528,l),
(437,528,l),
(225,291,l),
(116,528,l),
(86,528,l),
(206,273,l),
(-33,0,l)
);
}
);
width = 455;
},
{
anchors = (
{
name = bottom;
pos = (208,0);
},
{
name = center;
pos = (265,273);
},
{
name = top;
pos = (317,546);
},
{
name = topright;
pos = (569,546);
}
);
layerId = "FAB9F01D-70CE-4F71-A270-EC67BDAC6531";
shapes = (
{
closed = 1;
nodes = (
(122,0,l),
(251,167,l),
(312,0,l),
(471,0,l),
(352,272,l),
(580,546,l),
(407,546,l),
(288,383,l),
(232,546,l),
(75,546,l),
(185,280,l),
(-49,0,l)
);
}
);
width = 531;
},
{
anchors = (
{
name = bottom;
pos = (146,0);
},
{
name = center;
pos = (200,272);
},
{
name = top;
pos = (258,530);
},
{
name = topright;
pos = (441,530);
}
);
layerId = "E7382CC2-7CD9-4594-B524-5D480E09B385";
shapes = (
{
closed = 1;
nodes = (
(82,0,l),
(182,174,l),
(210,0,l),
(339,0,l),
(278,277,l),
(449,545,l),
(315,545,l),
(224,384,l),
(200,545,l),
(71,545,l),
(129,281,l),
(-49,0,l)
);
}
);
width = 405;
},
{
anchors = (
{
name = bottom;
pos = (185,0);
},
{
name = center;
pos = (236,268);
},
{
name = top;
pos = (284,536);
},
{
name = topright;
pos = (520,536);
}
);
layerId = "9733853B-DD8E-49B4-939D-1F0D465E8B6E";
shapes = (
{
closed = 1;
nodes = (
(65,0,l),
(230,208,l),
(321,0,l),
(410,0,l),
(287,272,l),
(510,536,l),
(408,536,l),
(251,338,l),
(168,536,l),
(79,536,l),
(195,276,l),
(-37,0,l)
);
}
);
width = 483;
},
{
anchors = (
{
name = bottom;
pos = (116,0);
},
{
name = center;
pos = (168,268);
},
{
name = top;
pos = (228,529);
},
{
name = topright;
pos = (380,529);
}
);
layerId = "A849C433-1DA2-4174-AEA9-F403839AA1E5";
shapes = (
{
closed = 1;
nodes = (
(38,0,l),
(157,205,l),
(193,0,l),
(274,0,l),
(217,272,l),
(382,536,l),
(297,536,l),
(187,345,l),
(156,536,l),
(75,536,l),
(126,279,l),
(-46,0,l)
);
}
);
width = 344;
},
{
anchors = (
{
name = bottom;
pos = (174,0);
},
{
name = center;
pos = (228,276);
},
{
name = top;
pos = (286,530);
},
{
name = topright;
pos = (496,530);
}
);
layerId = "1C9FFC3E-B033-49C1-8526-F3CD51FE3A6C";
shapes = (
{
closed = 1;
nodes = (
(123,0,l),
(203,145,l),
(225,0,l),
(398,0,l),
(333,282,l),
(509,553,l),
(330,553,l),
(258,421,l),
(240,553,l),
(67,553,l),
(131,282,l),
(-53,0,l)
);
}
);
width = 460;
},
{
anchors = (
{
name = bottom;
pos = (224,0);
},
{
name = center;
pos = (286,276);
},
{
name = top;
pos = (340,553);
},
{
name = topright;
pos = (605,553);
}
);
layerId = "84606D06-D269-45BD-896C-8402F9D7AD38";
shapes = (
{
closed = 1;
nodes = (
(163,0,l),
(266,160,l),
(305,0,l),
(514,0,l),
(403,272,l),
(630,553,l),
(406,553,l),
(315,400,l),
(278,553,l),
(72,553,l),
(173,282,l),
(-58,0,l)
);
}
);
width = 566;
}
);
script = latin;
subCategory = Lowercase;
unicode = 120;
}
{
category = Letter;
glyphname = y;
kernLeft = v.right;
kernRight = v.left;
layers = (
{
anchors = (
{
name = bottom;
pos = (39,-243);
},
{
name = center;
pos = (114,141);
},
{
name = top;
pos = (203,526);
},
{
name = topright;
pos = (330,526);
}
);
layerId = "891911EE-97A3-4583-AC34-B57874F49FBA";
shapes = (
{
closed = 1;
nodes = (
(-14,-243,o),
(18,-210,o),
(55,-126,cs),
(344,526,l),
(317,526,l),
(148,144,ls),
(138,122,o),
(123,87,o),
(111,57,c),
(109,57,l),
(110,85,o),
(110,119,o),
(110,141,cs),
(107,526,l),
(81,526,l),
(87,13,l),
(30,-118,ls),
(-2,-192,o),
(-29,-218,o),
(-71,-218,cs),
(-88,-218,o),
(-100,-214,o),
(-109,-208,c),
(-115,-233,l),
(-108,-238,o),
(-93,-243,o),
(-73,-243,cs)
);
}
);
width = 294;
},
{
anchors = (
{
name = bottom;
pos = (97,-243);
},
{
name = center;
pos = (172,142);
},
{
name = top;
pos = (261,528);
},
{
name = topright;
pos = (446,528);
}
);
layerId = "4ABFEEF6-B0FE-443E-B48D-B4A70A3A2C9A";
shapes = (
{
closed = 1;
nodes = (
(6,-243,o),
(50,-196,o),
(96,-115,cs),
(459,528,l),
(430,528,l),
(228,168,ls),
(195,110,o),
(172,66,o),
(157,37,c),
(155,37,l),
(152,67,o),
(145,110,o),
(135,172,cs),
(76,528,l),
(50,528,l),
(138,7,l),
(74,-103,ls),
(28,-182,o),
(-7,-218,o),
(-55,-218,cs),
(-82,-218,o),
(-98,-214,o),
(-114,-207,c),
(-114,-233,l),
(-99,-240,o),
(-82,-243,o),
(-57,-243,cs)
);
}
);
width = 410;
},
{
anchors = (
{
name = bottom;
pos = (151,-240);
},
{
name = center;
pos = (251,153);
},
{
name = top;
pos = (299,546);
},
{
name = topright;
pos = (557,546);
}
);
layerId = "FAB9F01D-70CE-4F71-A270-EC67BDAC6531";
shapes = (
{
closed = 1;
nodes = (
(100,-240,o),
(180,-189,o),
(239,-78,cs),
(571,546,l),
(411,546,l),
(284,283,ls),
(258,228,o),
(244,183,o),
(231,150,c),
(227,150,l),
(227,189,o),
(226,248,o),
(221,293,cs),
(194,546,l),
(50,546,l),
(130,0,l),
(117,-24,ls),
(87,-80,o),
(50,-120,o),
(-12,-120,cs),
(-35,-120,o),
(-52,-117,o),
(-69,-114,c),
(-69,-231,l),
(-53,-236,o),
(-32,-240,o),
(3,-240,cs)
);
}
);
width = 519;
},
{
anchors = (
{
name = bottom;
pos = (94,-240);
},
{
name = center;
pos = (190,152);
},
{
name = top;
pos = (257,530);
},
{
name = topright;
pos = (438,530);
}
);
layerId = "E7382CC2-7CD9-4594-B524-5D480E09B385";
shapes = (
{
closed = 1;
nodes = (
(84,-240,o),
(128,-175,o),
(171,-82,cs),
(456,545,l),
(330,545,l),
(220,284,ls),
(211,261,o),
(197,220,o),
(186,183,c),
(183,183,l),
(185,218,o),
(186,254,o),
(186,288,cs),
(185,545,l),
(64,545,l),
(88,7,l),
(54,-68,ls),
(35,-109,o),
(19,-132,o),
(-14,-132,cs),
(-27,-132,o),
(-41,-129,o),
(-56,-123,c),
(-76,-231,l),
(-59,-237,o),
(-38,-240,o),
(-11,-240,cs)
);
}
);
width = 402;
},
{
anchors = (
{
name = bottom;
pos = (126,-240);
},
{
name = center;
pos = (210,148);
},
{
name = top;
pos = (272,536);
},
{
name = topright;
pos = (504,536);
}
);
layerId = "9733853B-DD8E-49B4-939D-1F0D465E8B6E";
shapes = (
{
closed = 1;
nodes = (
(69,-240,o),
(121,-190,o),
(175,-90,cs),
(515,536,l),
(421,536,l),
(265,242,ls),
(241,198,o),
(200,104,o),
(187,72,c),
(184,72,l),
(184,114,o),
(180,206,o),
(171,271,cs),
(136,536,l),
(48,536,l),
(129,-8,l),
(94,-70,ls),
(59,-134,o),
(24,-168,o),
(-30,-168,cs),
(-54,-168,o),
(-76,-164,o),
(-94,-159,c),
(-94,-230,l),
(-75,-236,o),
(-57,-240,o),
(-25,-240,cs)
);
}
);
width = 467;
},
{
anchors = (
{
name = bottom;
pos = (63,-241);
},
{
name = center;
pos = (149,147);
},
{
name = top;
pos = (227,529);
},
{
name = topright;
pos = (376,529);
}
);
layerId = "A849C433-1DA2-4174-AEA9-F403839AA1E5";
shapes = (
{
closed = 1;
nodes = (
(36,-241,o),
(73,-187,o),
(111,-103,cs),
(392,536,l),
(312,536,l),
(181,226,ls),
(170,198,o),
(154,157,o),
(141,116,c),
(138,116,l),
(141,157,o),
(142,199,o),
(142,239,cs),
(141,536,l),
(64,536,l),
(77,2,l),
(39,-85,ls),
(16,-138,o),
(-4,-170,o),
(-43,-170,cs),
(-58,-170,o),
(-71,-167,o),
(-84,-162,c),
(-94,-231,l),
(-80,-237,o),
(-63,-241,o),
(-41,-241,cs)
);
}
);
width = 340;
},
{
anchors = (
{
name = bottom;
pos = (122,-240);
},
{
name = center;
pos = (226,156);
},
{
name = top;
pos = (285,530);
},
{
name = topright;
pos = (493,530);
}
);
layerId = "1C9FFC3E-B033-49C1-8526-F3CD51FE3A6C";
shapes = (
{
closed = 1;
nodes = (
(127,-240,o),
(177,-163,o),
(225,-62,cs),
(513,553,l),
(345,553,l),
(255,339,ls),
(248,320,o),
(234,278,o),
(226,245,c),
(223,245,l),
(224,275,o),
(225,306,o),
(225,336,cs),
(224,553,l),
(62,553,l),
(96,10,l),
(66,-52,ls),
(52,-81,o),
(39,-96,o),
(11,-96,cs),
(0,-96,o),
(-14,-93,o),
(-31,-87,c),
(-60,-230,l),
(-40,-237,o),
(-17,-240,o),
(16,-240,cs)
);
}
);
width = 457;
},
{
anchors = (
{
name = bottom;
pos = (162,-240);
},
{
name = center;
pos = (268,156);
},
{
name = top;
pos = (314,553);
},
{
name = topright;
pos = (583,553);
}
);
layerId = "84606D06-D269-45BD-896C-8402F9D7AD38";
shapes = (
{
closed = 1;
nodes = (
(138,-240,o),
(213,-185,o),
(273,-70,cs),
(600,553,l),
(397,553,l),
(288,301,ls),
(278,277,o),
(263,236,o),
(254,206,c),
(250,206,l),
(251,235,o),
(252,265,o),
(249,299,cs),
(230,553,l),
(40,553,l),
(119,6,l),
(108,-14,ls),
(80,-64,o),
(48,-88,o),
(-10,-88,cs),
(-32,-88,o),
(-51,-85,o),
(-63,-82,c),
(-63,-232,l),
(-49,-236,o),
(-26,-240,o),
(12,-240,cs)
);
}
);
width = 544;
}
);
script = latin;
subCategory = Lowercase;
unicode = 121;
}
{
category = Symbol;
glyphname = registered;
kernLeft = copyright;
kernRight = copyright;
layers = (
{
layerId = "84606D06-D269-45BD-896C-8402F9D7AD38";
shapes = (
{
closed = 1;
nodes = (
(384,153,l),
(384,309,l),
(401,309,l),
(472,153,l),
(608,153,l),
(513,330,l),
(552,348,o),
(582,380,o),
(582,448,cs),
(582,532,o),
(528,580,o),
(389,580,cs),
(253,580,l),
(253,153,l)
);
},
{
closed = 1;
nodes = (
(384,395,l),
(384,485,l),
(390,485,ls),
(427,485,o),
(450,478,o),
(450,443,cs),
(450,407,o),
(427,395,o),
(389,395,cs)
);
},
{
closed = 1;
nodes = (
(625,-10,o),
(779,144,o),
(779,357,cs),
(779,570,o),
(625,724,o),
(412,724,cs),
(199,724,o),
(45,570,o),
(45,357,cs),
(45,144,o),
(199,-10,o),
(412,-10,cs)
);
},
{
closed = 1;
nodes = (
(247,70,o),
(133,188,o),
(133,357,cs),
(133,526,o),
(247,644,o),
(412,644,cs),
(575,644,o),
(689,526,o),
(689,357,cs),
(689,188,o),
(575,70,o),
(412,70,cs)
);
}
);
width = 824;
},
{
layerId = "1C9FFC3E-B033-49C1-8526-F3CD51FE3A6C";
shapes = (
{
closed = 1;
nodes = (
(372,153,l),
(372,309,l),
(398,309,l),
(460,153,l),
(592,153,l),
(507,330,l),
(556,354,o),
(576,392,o),
(576,448,cs),
(576,536,o),
(517,580,o),
(397,580,cs),
(249,580,l),
(249,153,l)
);
},
{
closed = 1;
nodes = (
(372,395,l),
(372,485,l),
(390,485,ls),
(435,485,o),
(450,474,o),
(450,443,cs),
(450,407,o),
(427,395,o),
(389,395,cs)
);
},
{
closed = 1;
nodes = (
(631,-10,o),
(779,142,o),
(779,354,cs),
(779,570,o),
(624,724,o),
(411,724,cs),
(201,724,o),
(45,573,o),
(45,359,cs),
(45,156,o),
(186,-10,o),
(413,-10,cs)
);
},
{
closed = 1;
nodes = (
(253,64,o),
(129,179,o),
(129,355,cs),
(129,522,o),
(241,650,o),
(410,650,cs),
(572,650,o),
(695,532,o),
(695,358,cs),
(695,192,o),
(583,64,o),
(414,64,cs)
);
}
);
width = 824;
},
{
layerId = "9733853B-DD8E-49B4-939D-1F0D465E8B6E";
shapes = (
{
closed = 1;
nodes = (
(355,138,l),
(355,311,l),
(417,311,l),
(517,138,l),
(603,138,l),
(487,332,l),
(527,348,o),
(565,383,o),
(565,446,cs),
(565,532,o),
(516,575,o),
(407,575,cs),
(279,575,l),
(279,138,l)
);
},
{
closed = 1;
nodes = (
(355,373,l),
(355,511,l),
(404,511,ls),
(462,511,o),
(488,491,o),
(488,444,cs),
(488,402,o),
(457,373,o),
(405,373,cs)
);
},
{
closed = 1;
nodes = (
(629,-10,o),
(783,144,o),
(783,357,cs),
(783,570,o),
(619,724,o),
(416,724,cs),
(203,724,o),
(49,570,o),
(49,357,cs),
(49,144,o),
(203,-10,o),
(416,-10,cs)
);
},
{
closed = 1;
nodes = (
(235,43,o),
(105,184,o),
(105,357,cs),
(105,540,o),
(235,671,o),
(416,671,cs),
(597,671,o),
(726,530,o),
(726,357,cs),
(726,174,o),
(587,43,o),
(416,43,cs)
);
}
);
width = 832;
},
{
layerId = "FAB9F01D-70CE-4F71-A270-EC67BDAC6531";
shapes = (
{
closed = 1;
nodes = (
(355,138,l),
(355,306,l),
(417,306,l),
(512,138,l),
(603,138,l),
(487,332,l),
(527,348,o),
(565,383,o),
(565,446,cs),
(565,532,o),
(516,580,o),
(407,580,cs),
(274,580,l),
(274,138,l)
);
},
{
closed = 1;
nodes = (
(355,373,l),
(355,511,l),
(404,511,ls),
(462,511,o),
(483,491,o),
(483,444,cs),
(483,402,o),
(457,373,o),
(405,373,cs)
);
},
{
closed = 1;
nodes = (
(629,-10,o),
(783,144,o),
(783,357,cs),
(783,570,o),
(619,724,o),
(416,724,cs),
(207,724,o),
(49,560,o),
(49,357,cs),
(49,144,o),
(203,-10,o),
(416,-10,cs)
);
},
{
closed = 1;
nodes = (
(241,54,o),
(117,180,o),
(117,357,cs),
(117,534,o),
(245,661,o),
(416,661,cs),
(585,661,o),
(713,524,o),
(713,357,cs),
(713,180,o),
(580,54,o),
(416,54,cs)
);
}
);
width = 832;
},
{
layerId = "A849C433-1DA2-4174-AEA9-F403839AA1E5";
shapes = (
{
closed = 1;
nodes = (
(354,145,l),
(354,315,l),
(421,315,l),
(503,145,l),
(581,145,l),
(485,331,l),
(533,353,o),
(556,391,o),
(556,448,cs),
(556,533,o),
(500,574,o),
(400,574,cs),
(283,574,l),
(283,145,l)
);
},
{
closed = 1;
nodes = (
(353,369,l),
(353,516,l),
(396,516,ls),
(455,516,o),
(482,494,o),
(482,445,cs),
(482,393,o),
(449,369,o),
(396,369,cs)
);
},
{
closed = 1;
nodes = (
(626,-10,o),
(782,144,o),
(782,357,cs),
(782,563,o),
(632,724,o),
(415,724,cs),
(211,724,o),
(48,575,o),
(48,357,cs),
(48,158,o),
(189,-10,o),
(415,-10,cs)
);
},
{
closed = 1;
nodes = (
(240,43,o),
(104,169,o),
(104,357,cs),
(104,533,o),
(230,671,o),
(415,671,cs),
(593,671,o),
(725,539,o),
(725,357,cs),
(725,181,o),
(600,43,o),
(415,43,cs)
);
}
);
width = 830;
},
{
layerId = "E7382CC2-7CD9-4594-B524-5D480E09B385";
shapes = (
{
closed = 1;
nodes = (
(365,150,l),
(365,312,l),
(407,312,l),
(482,150,l),
(594,150,l),
(498,330,l),
(547,353,o),
(568,392,o),
(568,448,cs),
(568,535,o),
(510,578,o),
(398,578,cs),
(262,578,l),
(262,150,l)
);
},
{
closed = 1;
nodes = (
(365,385,l),
(365,497,l),
(393,497,ls),
(443,497,o),
(463,482,o),
(463,444,cs),
(463,402,o),
(436,385,o),
(392,385,cs)
);
},
{
closed = 1;
nodes = (
(624,-10,o),
(784,141,o),
(784,355,cs),
(784,566,o),
(629,724,o),
(414,724,cs),
(206,724,o),
(42,575,o),
(42,356,cs),
(42,149,o),
(188,-10,o),
(409,-10,cs)
);
},
{
closed = 1;
nodes = (
(247,56,o),
(117,174,o),
(117,354,cs),
(117,526,o),
(235,658,o),
(412,658,cs),
(581,658,o),
(708,537,o),
(708,355,cs),
(708,179,o),
(588,56,o),
(416,56,cs)
);
}
);
width = 826;
},
{
layerId = "4ABFEEF6-B0FE-443E-B48D-B4A70A3A2C9A";
shapes = (
{
closed = 1;
nodes = (
(323,143,l),
(323,324,l),
(436,324,l),
(545,143,l),
(577,143,l),
(463,329,l),
(516,345,o),
(556,384,o),
(556,449,cs),
(556,533,o),
(498,569,o),
(416,569,cs),
(298,569,l),
(298,143,l)
);
},
{
closed = 1;
nodes = (
(322,346,l),
(322,545,l),
(414,545,ls),
(483,545,o),
(532,517,o),
(532,449,cs),
(532,377,o),
(479,346,o),
(412,346,cs)
);
},
{
closed = 1;
nodes = (
(617,-8,o),
(782,156,o),
(782,357,cs),
(782,546,o),
(629,722,o),
(416,722,cs),
(217,722,o),
(50,565,o),
(50,357,cs),
(50,157,o),
(202,-8,o),
(416,-8,cs)
);
},
{
closed = 1;
nodes = (
(213,17,o),
(76,172,o),
(76,357,cs),
(76,546,o),
(225,697,o),
(416,697,cs),
(611,697,o),
(756,540,o),
(756,357,cs),
(756,176,o),
(611,17,o),
(416,17,cs)
);
}
);
width = 832;
},
{
layerId = "891911EE-97A3-4583-AC34-B57874F49FBA";
shapes = (
{
closed = 1;
nodes = (
(322,143,l),
(322,324,l),
(436,324,l),
(528,143,l),
(558,143,l),
(462,330,l),
(513,344,o),
(555,376,o),
(555,448,cs),
(555,533,o),
(497,569,o),
(415,569,cs),
(296,569,l),
(296,143,l)
);
},
{
closed = 1;
nodes = (
(321,348,l),
(321,545,l),
(412,545,ls),
(481,545,o),
(529,517,o),
(529,449,cs),
(529,377,o),
(477,348,o),
(410,348,cs)
);
},
{
closed = 1;
nodes = (
(633,-8,o),
(781,146,o),
(781,355,cs),
(781,562,o),
(637,722,o),
(416,722,cs),
(206,722,o),
(49,577,o),
(49,357,cs),
(49,147,o),
(191,-8,o),
(412,-8,cs)
);
},
{
closed = 1;
nodes = (
(206,17,o),
(75,164,o),
(75,357,cs),
(75,555,o),
(214,697,o),
(414,697,cs),
(620,697,o),
(755,547,o),
(755,357,cs),
(755,166,o),
(619,17,o),
(412,17,cs)
);
}
);
width = 830;
}
);
script = "";
subCategory = Other;
unicode = 174;
}
{
category = Letter;
glyphname = eth;
kernRight = o.left;
layers = (
{
anchors = (
{
name = bottom;
pos = (123,0);
},
{
name = center;
pos = (181,379);
},
{
name = top;
pos = (286,768);
}
);
layerId = "891911EE-97A3-4583-AC34-B57874F49FBA";
shapes = (
{
closed = 1;
nodes = (
(278,-10,o),
(315,256,o),
(315,387,cs),
(315,496,o),
(287,602,o),
(238,673,c),
(355,736,l),
(344,757,l),
(224,693,l),
(193,727,o),
(159,752,o),
(124,768,c),
(112,749,l),
(148,731,o),
(187,702,o),
(201,681,c),
(82,617,l),
(92,594,l),
(215,662,l),
(266,591,o),
(291,486,o),
(291,368,c),
(289,368,l),
(282,416,o),
(258,461,o),
(200,461,cs),
(72,461,o),
(8,281,o),
(8,138,cs),
(8,43,o),
(46,-10,o),
(116,-10,cs)
);
},
{
closed = 1;
nodes = (
(66,15,o),
(33,53,o),
(33,139,cs),
(33,267,o),
(88,436,o),
(198,436,cs),
(250,436,o),
(279,384,o),
(279,306,cs),
(279,217,o),
(238,15,o),
(117,15,cs)
);
}
);
width = 357;
},
{
anchors = (
{
name = bottom;
pos = (220,0);
},
{
name = center;
pos = (284,376);
},
{
name = top;
pos = (382,762);
}
);
layerId = "4ABFEEF6-B0FE-443E-B48D-B4A70A3A2C9A";
shapes = (
{
closed = 1;
nodes = (
(403,-10,o),
(494,157,o),
(494,342,cs),
(494,481,o),
(449,591,o),
(398,665,c),
(518,731,l),
(507,752,l),
(383,683,l),
(362,709,o),
(334,738,o),
(303,762,c),
(284,741,l),
(316,718,o),
(341,695,o),
(361,670,c),
(231,598,l),
(242,577,l),
(376,652,l),
(434,572,o),
(469,453,o),
(469,344,c),
(467,344,l),
(449,411,o),
(387,465,o),
(296,465,cs),
(137,465,o),
(50,326,o),
(50,182,cs),
(50,74,o),
(115,-10,o),
(224,-10,cs)
);
},
{
closed = 1;
nodes = (
(139,15,o),
(77,82,o),
(77,183,cs),
(77,320,o),
(159,440,o),
(295,440,cs),
(415,440,o),
(454,347,o),
(454,288,cs),
(454,108,o),
(338,15,o),
(225,15,cs)
);
}
);
width = 551;
},
{
anchors = (
{
name = bottom;
pos = (231,0);
},
{
name = center;
pos = (300,377);
},
{
name = top;
pos = (394,765);
}
);
layerId = "FAB9F01D-70CE-4F71-A270-EC67BDAC6531";
shapes = (
{
closed = 1;
nodes = (
(456,-10,o),
(542,172,o),
(542,388,cs),
(542,486,o),
(524,566,o),
(471,635,c),
(565,687,l),
(528,761,l),
(412,697,l),
(384,720,o),
(343,745,o),
(299,765,c),
(241,674,l),
(265,662,o),
(287,650,o),
(302,635,c),
(204,580,l),
(247,508,l),
(360,572,l),
(397,536,o),
(412,479,o),
(417,425,c),
(412,425,l),
(389,457,o),
(350,486,o),
(284,486,cs),
(127,486,o),
(35,352,o),
(35,198,cs),
(35,51,o),
(125,-10,o),
(251,-10,cs)
);
},
{
closed = 1;
nodes = (
(209,100,o),
(183,132,o),
(183,184,cs),
(183,275,o),
(224,376,o),
(305,376,cs),
(354,376,o),
(377,340,o),
(377,294,cs),
(377,201,o),
(329,100,o),
(258,100,cs)
);
}
);
width = 577;
},
{
anchors = (
{
name = bottom;
pos = (166,0);
},
{
name = center;
pos = (227,378);
},
{
name = top;
pos = (329,767);
}
);
layerId = "E7382CC2-7CD9-4594-B524-5D480E09B385";
shapes = (
{
closed = 1;
nodes = (
(366,-10,o),
(421,254,o),
(421,428,cs),
(421,511,o),
(402,587,o),
(361,652,c),
(442,709,l),
(401,765,l),
(320,707,l),
(296,731,o),
(271,750,o),
(244,767,c),
(183,700,l),
(205,682,o),
(224,664,o),
(238,648,c),
(154,591,l),
(194,535,l),
(271,588,l),
(298,545,o),
(306,499,o),
(306,437,c),
(305,437,l),
(291,463,o),
(271,485,o),
(236,485,cs),
(83,485,o),
(12,291,o),
(12,162,cs),
(12,52,o),
(67,-10,o),
(167.002,-10,cs)
);
},
{
closed = 1;
nodes = (
(150,92,o),
(134,117,o),
(134,167,cs),
(134,253,o),
(175,382,o),
(240,382,cs),
(271,382,o),
(286,356,o),
(286,308,cs),
(286,223,o),
(243,92,o),
(180,92,cs)
);
}
);
width = 443;
},
{
anchors = (
{
name = bottom;
pos = (228,0);
},
{
name = center;
pos = (299,377);
},
{
name = top;
pos = (391,765);
}
);
layerId = "9733853B-DD8E-49B4-939D-1F0D465E8B6E";
shapes = (
{
closed = 1;
nodes = (
(451,-10,o),
(521,206,o),
(521,398,cs),
(521,509,o),
(487,584,o),
(441,644,c),
(556,708,l),
(524,761,l),
(398,691,l),
(368,721,o),
(335,744,o),
(304,765,c),
(257,705,l),
(284,687,o),
(307,669,o),
(327,651,c),
(213,588,l),
(242,534,l),
(372,606,l),
(429,536,o),
(443,468,o),
(442,393,c),
(439,392,l),
(419,435,o),
(375,473,o),
(298,473,cs),
(142,473,o),
(43,337,o),
(43,183,cs),
(43,60,o),
(116,-10,o),
(235,-10,cs)
);
},
{
closed = 1;
nodes = (
(163,63,o),
(133,114,o),
(133,184,cs),
(133,290,o),
(183,401,o),
(302,401,cs),
(387,401,o),
(417,338,o),
(417,280,cs),
(417,204,o),
(373,63,o),
(240,63,cs)
);
}
);
width = 570;
},
{
anchors = (
{
name = bottom;
pos = (146,0);
},
{
name = center;
pos = (205,379);
},
{
name = top;
pos = (309,768);
}
);
layerId = "A849C433-1DA2-4174-AEA9-F403839AA1E5";
shapes = (
{
closed = 1;
nodes = (
(322,-10,o),
(373,258,o),
(373,423,cs),
(373,514,o),
(352,593,o),
(306,662,c),
(401,721,l),
(374,760,l),
(277,699,l),
(249,727,o),
(221,750,o),
(190,768,c),
(150,723,l),
(180,702,o),
(205,680,o),
(219,663,c),
(122,603,l),
(147,563,l),
(245,623,l),
(290,564,o),
(302,489,o),
(302,393,c),
(301,393,l),
(290,436,o),
(271,474,o),
(220,474,cs),
(77,474,o),
(10,278,o),
(10,149,cs),
(10,47,o),
(58,-10,o),
(142,-10,cs)
);
},
{
closed = 1;
nodes = (
(110,57,o),
(89,87,o),
(89,153,cs),
(89,262,o),
(137,406,o),
(222,406,cs),
(261,406,o),
(282,371,o),
(282,309,cs),
(282,206,o),
(234,57,o),
(149,57,cs)
);
}
);
width = 404;
},
{
anchors = (
{
name = bottom;
pos = (184,0);
},
{
name = center;
pos = (246,379);
},
{
name = top;
pos = (347,769);
}
);
layerId = "1C9FFC3E-B033-49C1-8526-F3CD51FE3A6C";
shapes = (
{
closed = 1;
nodes = (
(405,-10,o),
(465,251,o),
(465,434,cs),
(465,510,o),
(448,581,o),
(411,643,c),
(479,698,l),
(424,769,l),
(359,714,l),
(339,734,o),
(317,751,o),
(293,767,c),
(212,679,l),
(227,664,o),
(241,649,o),
(254,634,c),
(184,579,l),
(236,509,l),
(295,555,l),
(305,527,o),
(310,507,o),
(310,476,c),
(308,476,l),
(291,488,o),
(271,495,o),
(251,495,cs),
(88,495,o),
(13,302,o),
(13,174,cs),
(13,57,o),
(75,-10,o),
(190,-10,cs)
);
},
{
closed = 1;
nodes = (
(187,125,o),
(176,144,o),
(176,180,cs),
(176,245,o),
(211,359,o),
(257,359,cs),
(280,359,o),
(290,343,o),
(290,308,cs),
(290,237,o),
(250,125,o),
(208,125,cs)
);
}
);
width = 479;
},
{
anchors = (
{
name = bottom;
pos = (223,0);
},
{
name = center;
pos = (301,379);
},
{
name = top;
pos = (387,768);
}
);
layerId = "84606D06-D269-45BD-896C-8402F9D7AD38";
shapes = (
{
closed = 1;
nodes = (
(471,-10,o),
(549,148,o),
(549,350,cs),
(549,453,o),
(520,570,o),
(472,630,c),
(562,674,l),
(522,755,l),
(406,701,l),
(372,728,o),
(334,750,o),
(293,768,c),
(237,680,l),
(252,669,o),
(268,657,o),
(283,644,c),
(176,594,l),
(216,512,l),
(349,574,l),
(373,539,o),
(388,493,o),
(393,454,c),
(388,452,l),
(369,475,o),
(339,495,o),
(289,495,cs),
(130,495,o),
(41,367,o),
(41,208,cs),
(41,72,o),
(124,-10,o),
(254,-10,cs)
);
},
{
closed = 1;
nodes = (
(244,127,o),
(230,151,o),
(230,199,cs),
(230,255,o),
(254,358,o),
(318,358,cs),
(348,358,o),
(359,328,o),
(359,279,cs),
(359,224,o),
(333,127,o),
(271,127,cs)
);
}
);
width = 564;
}
);
script = latin;
subCategory = Lowercase;
unicode = 240;
}
{
category = Letter;
glyphname = dcroat;
kernLeft = o.right;
layers = (
{
anchors = (
{
name = bottom;
pos = (136,0);
},
{
name = center;
pos = (244,375);
},
{
name = top;
pos = (298,760);
}
);
layerId = "891911EE-97A3-4583-AC34-B57874F49FBA";
shapes = (
{
closed = 1;
nodes = (
(183,-10,o),
(220,30,o),
(251,93,c),
(253,93,l),
(237,0,l),
(258,0,l),
(392,636,l),
(454,636,l),
(459,661,l),
(397,661,l),
(418,760,l),
(392,760,l),
(371,661,l),
(264,661,l),
(259,636,l),
(366,636,l),
(349,558,ls),
(341,522,o),
(334,483,o),
(328,451,c),
(325,451,l),
(318,499,o),
(291,536,o),
(239,536,cs),
(100,536,o),
(29,294,o),
(29,138,cs),
(29,42,o),
(64,-10,o),
(126,-10,cs)
);
},
{
closed = 1;
nodes = (
(86,15,o),
(56,51,o),
(56,140,cs),
(56,280,o),
(121,511,o),
(238,511,cs),
(282,511,o),
(308,473,o),
(308,416,cs),
(308,344,o),
(261,15,o),
(129,15,cs)
);
}
);
width = 379;
},
{
anchors = (
{
name = bottom;
pos = (228,0);
},
{
name = center;
pos = (340,375);
},
{
name = top;
pos = (389,760);
}
);
layerId = "4ABFEEF6-B0FE-443E-B48D-B4A70A3A2C9A";
shapes = (
{
closed = 1;
nodes = (
(310,-10,o),
(385,69,o),
(423,139,c),
(425,139,l),
(397,0,l),
(419,0,l),
(552,630,l),
(624,630,l),
(630,655,l),
(558,655,l),
(580,760,l),
(554,760,l),
(532,655,l),
(308,655,l),
(303,630,l),
(526,630,l),
(508,543,ls),
(499,501,o),
(489,452,o),
(482,407,c),
(480,407,l),
(471,472,o),
(425,538,o),
(324,538,cs),
(139,538,o),
(51,340,o),
(51,178,cs),
(51,65,o),
(110,-10,o),
(206,-10,cs)
);
},
{
closed = 1;
nodes = (
(126,15,o),
(78,78,o),
(78,178,cs),
(78,335,o),
(159,513,o),
(323,513,cs),
(405,513,o),
(462,463,o),
(462,362,cs),
(462,183,o),
(348,15,o),
(209,15,cs)
);
}
);
width = 568;
},
{
anchors = (
{
name = bottom;
pos = (239,0);
},
{
name = center;
pos = (362,375);
},
{
name = top;
pos = (400,760);
}
);
layerId = "FAB9F01D-70CE-4F71-A270-EC67BDAC6531";
shapes = (
{
closed = 1;
nodes = (
(273,-10,o),
(318,28,o),
(354,71,c),
(358,71,l),
(351,0,l),
(461,0,l),
(584,584,l),
(660,584,l),
(680,681,l),
(605,681,l),
(622,760,l),
(475,760,l),
(458,681,l),
(314,681,l),
(294,584,l),
(438,584,l),
(430,540,ls),
(425,511,o),
(421,471,o),
(421,453,c),
(417,453,l),
(394,495,o),
(358,526,o),
(291,526,cs),
(125,526,o),
(44,336,o),
(44,189,cs),
(44,54,o),
(112,-10,o),
(203,-10,cs)
);
},
{
closed = 1;
nodes = (
(219,109,o),
(193,138,o),
(193,195,cs),
(193,296,o),
(245,407,o),
(322,407,cs),
(369,407,o),
(389,376,o),
(389,329,cs),
(389,243,o),
(344,109,o),
(262,109,cs)
);
}
);
width = 594;
},
{
anchors = (
{
name = bottom;
pos = (172,0);
},
{
name = center;
pos = (283,375);
},
{
name = top;
pos = (334,760);
}
);
layerId = "E7382CC2-7CD9-4594-B524-5D480E09B385";
shapes = (
{
closed = 1;
nodes = (
(179,-10,o),
(209,17,o),
(247,65,c),
(250,65,l),
(249,0,l),
(346,0,l),
(472,592,l),
(528,592,l),
(547,680,l),
(491,680,l),
(508,760,l),
(388,760,l),
(371,680,l),
(289,680,l),
(270,592,l),
(352,592,l),
(347,567,ls),
(342,544,o),
(338,517,o),
(334,487,c),
(331,487,l),
(314,533,o),
(276,555,o),
(230,555,cs),
(87,555,o),
(19,289,o),
(19,148,cs),
(19,49,o),
(60,-10,o),
(128.008,-10,cs)
);
},
{
closed = 1;
nodes = (
(155,92,o),
(143,116,o),
(143,163,cs),
(143,243,o),
(183,450,o),
(258,450,cs),
(286,450,o),
(300,428,o),
(300,384,cs),
(300,302,o),
(261,92,o),
(179,92,cs)
);
}
);
width = 455;
},
{
anchors = (
{
name = bottom;
pos = (233,0);
},
{
name = center;
pos = (349,375);
},
{
name = top;
pos = (395,760);
}
);
layerId = "9733853B-DD8E-49B4-939D-1F0D465E8B6E";
shapes = (
{
closed = 1;
nodes = (
(268,-10,o),
(323,40,o),
(371,99,c),
(375,99,l),
(364,0,l),
(436,0,l),
(564,604,l),
(637,604,l),
(651,670,l),
(578,670,l),
(597,760,l),
(510,760,l),
(492,670,l),
(311,670,l),
(298,604,l),
(476,604,l),
(464,544,ls),
(458,514,o),
(454,479,o),
(451,455,c),
(446,455,l),
(424,503,o),
(381,546,o),
(308,546,cs),
(146,546,o),
(48,368,o),
(48,173,cs),
(48,52,o),
(107,-10,o),
(193,-10,cs)
);
},
{
closed = 1;
nodes = (
(167,63,o),
(138,99,o),
(138,171,cs),
(138,321,o),
(209,473,o),
(316,473,cs),
(386,473,o),
(417,429,o),
(417,364,cs),
(417,205,o),
(310,63,o),
(223,63,cs)
);
}
);
width = 579;
},
{
anchors = (
{
name = bottom;
pos = (156,0);
},
{
name = center;
pos = (265,375);
},
{
name = top;
pos = (317,760);
}
);
layerId = "A849C433-1DA2-4174-AEA9-F403839AA1E5";
shapes = (
{
closed = 1;
nodes = (
(176,-10,o),
(211,20,o),
(248,74,c),
(250,74,l),
(244,0,l),
(306,0,l),
(436,611,l),
(494,611,l),
(507,671,l),
(449,671,l),
(467,760,l),
(390,760,l),
(372,671,l),
(277,671,l),
(264,611,l),
(359,611,l),
(349,564,ls),
(343,535,o),
(338,505,o),
(332,473,c),
(329,473,l),
(318,519,o),
(283,546,o),
(237,546,cs),
(92,546,o),
(24,286,o),
(24,139,cs),
(24,43,o),
(61,-10,o),
(127,-10,cs)
);
},
{
closed = 1;
nodes = (
(120,57,o),
(104,85,o),
(104,143,cs),
(104,257,o),
(155,477,o),
(249,477,cs),
(287,477,o),
(305,450,o),
(305,400,cs),
(305,307,o),
(261,57,o),
(154,57,cs)
);
}
);
width = 422;
},
{
anchors = (
{
name = bottom;
pos = (188,0);
},
{
name = center;
pos = (299,375);
},
{
name = top;
pos = (349,760);
}
);
layerId = "1C9FFC3E-B033-49C1-8526-F3CD51FE3A6C";
shapes = (
{
closed = 1;
nodes = (
(180,-10,o),
(206,14,o),
(245,57,c),
(249,57,l),
(253,0,l),
(383,0,l),
(505,574,l),
(559,574,l),
(584,688,l),
(530,688,l),
(545,760,l),
(385,760,l),
(370,688,l),
(299,688,l),
(275,574,l),
(345,574,l),
(344,570,l),
(341,552,o),
(338,529,o),
(335,500,c),
(332,500,l),
(311,546,o),
(269,563,o),
(223,563,cs),
(82,563,o),
(14,291,o),
(14,156,cs),
(14,54,o),
(58,-10,o),
(129,-10,cs)
);
},
{
closed = 1;
nodes = (
(187,125,o),
(179,144,o),
(179,181,cs),
(179,229,o),
(209,424,o),
(266,424,cs),
(286,424,o),
(296,407,o),
(296,370,cs),
(296,295,o),
(260,125,o),
(201,125,cs)
);
}
);
width = 487;
},
{
anchors = (
{
name = bottom;
pos = (243,0);
},
{
name = center;
pos = (371,375);
},
{
name = top;
pos = (405,760);
}
);
layerId = "84606D06-D269-45BD-896C-8402F9D7AD38";
shapes = (
{
closed = 1;
nodes = (
(276,-10,o),
(302,22,o),
(329,60,c),
(333,60,l),
(328,0,l),
(479,0,l),
(599,570,l),
(676,570,l),
(701,688,l),
(624,688,l),
(640,760,l),
(449,760,l),
(434,688,l),
(315,688,l),
(291,570,l),
(410,570,l),
(409,563,ls),
(399,517,o),
(396,451,o),
(396,439,c),
(392,439,l),
(362,484,o),
(328,513,o),
(268,513,cs),
(128,513,o),
(41,353,o),
(41,201,cs),
(41,44,o),
(113,-10,o),
(198,-10,cs)
);
},
{
closed = 1;
nodes = (
(248,142,o),
(234,167,o),
(234,212,cs),
(234,274,o),
(263,361,o),
(317,361,cs),
(344,361,o),
(360,333,o),
(360,291,cs),
(360,211,o),
(328,142,o),
(276,142,cs)
);
}
);
width = 604;
}
);
script = latin;
subCategory = Lowercase;
unicode = 273;
}
{
category = Letter;
glyphname = tbar;
kernLeft = t.right;
kernRight = t.left;
layers = (
{
anchors = (
{
name = bottom;
pos = (29,0);
},
{
name = center;
pos = (103,322);
},
{
name = top;
pos = (168,655);
}
);
layerId = "891911EE-97A3-4583-AC34-B57874F49FBA";
shapes = (
{
closed = 1;
nodes = (
(90,-10,o),
(102,-7,o),
(113,-3,c),
(113,21,l),
(104,18,o),
(93,15,o),
(77,15,cs),
(52,15,o),
(41,30,o),
(41,56,cs),
(41,74,o),
(46,101,o),
(53,136,cs),
(85,285,l),
(167,285,l),
(172,310,l),
(90,310,l),
(131,501,l),
(195,501,l),
(200,526,l),
(136,526,l),
(163,655,l),
(142,655,l),
(109,527,l),
(63,524,l),
(58,501,l),
(105,501,l),
(64,310,l),
(11,310,l),
(6,285,l),
(59,285,l),
(27,138,ls),
(20,106,o),
(15,74,o),
(15,53,cs),
(15,12,o),
(37,-10,o),
(73,-10,cs)
);
}
);
width = 170;
},
{
anchors = (
{
name = bottom;
pos = (99,0);
},
{
name = center;
pos = (173,324);
},
{
name = top;
pos = (239,659);
}
);
layerId = "4ABFEEF6-B0FE-443E-B48D-B4A70A3A2C9A";
shapes = (
{
closed = 1;
nodes = (
(180,-10,o),
(203,-4,o),
(224,3,c),
(224,28,l),
(203,20,o),
(179,15,o),
(147,15,cs),
(97,15,o),
(78,40,o),
(78,84,cs),
(78,101,o),
(80,121,o),
(85,143,cs),
(115,285,l),
(242,285,l),
(248,310,l),
(120,310,l),
(161,503,l),
(324,503,l),
(330,528,l),
(167,528,l),
(195,659,l),
(174,659,l),
(140,528,l),
(63,525,l),
(58,503,l),
(135,503,l),
(94,310,l),
(22,310,l),
(17,285,l),
(89,285,l),
(58,140,ls),
(53,119,o),
(51,99,o),
(51,82,cs),
(51,24,o),
(79,-10,o),
(146,-10,cs)
);
}
);
width = 309;
},
{
anchors = (
{
name = bottom;
pos = (147,0);
},
{
name = center;
pos = (222,326);
},
{
name = top;
pos = (288,662);
}
);
layerId = "FAB9F01D-70CE-4F71-A270-EC67BDAC6531";
shapes = (
{
closed = 1;
nodes = (
(254,-10,o),
(299,1,o),
(330,16,c),
(330,126,l),
(300,115,o),
(278,109,o),
(251,109,cs),
(225,109,o),
(208,119,o),
(208,145,cs),
(208,151,o),
(209,161,o),
(211,171,cs),
(226,243,l),
(341,243,l),
(361,340,l),
(247,340,l),
(267,434,l),
(405,434,l),
(429,546,l),
(291,546,l),
(315,662,l),
(220,662,l),
(156,547,l),
(60,506,l),
(46,434,l),
(120,434,l),
(100,340,l),
(35,340,l),
(15,243,l),
(80,243,l),
(64,171,ls),
(59,151,o),
(58,132,o),
(58,116,cs),
(58,21,o),
(114,-10,o),
(200,-10,cs)
);
}
);
width = 410;
},
{
anchors = (
{
name = bottom;
pos = (90,0);
},
{
name = center;
pos = (165,325);
},
{
name = top;
pos = (229,661);
}
);
layerId = "E7382CC2-7CD9-4594-B524-5D480E09B385";
shapes = (
{
closed = 1;
nodes = (
(159.993,-10,o),
(205,-4,o),
(235,11,c),
(235,108,l),
(214,99,o),
(193,96,o),
(183,96,cs),
(161,96,o),
(153,105,o),
(153,128,cs),
(153,138,o),
(156,151,o),
(159,166,cs),
(176,248,l),
(257,248,l),
(277,335,l),
(194,335,l),
(218,444,l),
(303,444,l),
(324,545,l),
(239,545,l),
(264,661,l),
(179,661,l),
(129,542,l),
(62,508,l),
(49,444,l),
(98,444,l),
(75,335,l),
(26,335,l),
(7,248,l),
(56,248,l),
(42,179,ls),
(35,145,o),
(32,121,o),
(32,99,cs),
(32,35,o),
(59,-10,o),
(130,-10,cs)
);
}
);
width = 291;
},
{
anchors = (
{
name = bottom;
pos = (109,0);
},
{
name = center;
pos = (192,324);
},
{
name = top;
pos = (249,658);
}
);
layerId = "9733853B-DD8E-49B4-939D-1F0D465E8B6E";
shapes = (
{
closed = 1;
nodes = (
(214,-10,o),
(253,0,o),
(269,8,c),
(269,75,l),
(243,67,o),
(222,62,o),
(198,62,c),
(160,62,o),
(145,86,o),
(145,117,c),
(145,136,o),
(150,159,o),
(154,177,c),
(176,282,l),
(295,282,l),
(308,348,l),
(190,348,l),
(216,469,l),
(350,469,l),
(364,536,l),
(229,536,l),
(256,658,l),
(204,658,l),
(142,547,l),
(52,509,l),
(44,469,l),
(127,469,l),
(101,348,l),
(34,348,l),
(20,282,l),
(87,282,l),
(66,178,ls),
(61,152,o),
(57,127,o),
(57,107,c),
(57,20,o),
(113,-10,o),
(185,-10,c)
);
}
);
width = 332;
},
{
anchors = (
{
name = bottom;
pos = (62,0);
},
{
name = center;
pos = (138,324);
},
{
name = top;
pos = (202,658);
}
);
layerId = "A849C433-1DA2-4174-AEA9-F403839AA1E5";
shapes = (
{
closed = 1;
nodes = (
(124.007,-10,o),
(153,-5,o),
(175,5,c),
(175,68,l),
(160,62,o),
(145,59,o),
(134,59,cs),
(111,59,o),
(101,70,o),
(101,96,cs),
(101,109,o),
(104,126,o),
(108,146,cs),
(137,279,l),
(216,279,l),
(229,340,l),
(149,340,l),
(177,470,l),
(254,470,l),
(268,536,l),
(191,536,l),
(217,658,l),
(162,658,l),
(119,535,l),
(62,514,l),
(53,470,l),
(101,470,l),
(73,340,l),
(21,340,l),
(8,279,l),
(60,279,l),
(32,147,ls),
(26,119,o),
(23,96,o),
(23,79,cs),
(23,24,o),
(47,-10,o),
(101,-10,cs)
);
}
);
width = 236;
},
{
anchors = (
{
name = bottom;
pos = (115,0);
},
{
name = center;
pos = (191,327);
},
{
name = top;
pos = (255,664);
}
);
layerId = "1C9FFC3E-B033-49C1-8526-F3CD51FE3A6C";
shapes = (
{
closed = 1;
nodes = (
(193,-10,o),
(252,-3,o),
(289,17,c),
(289,145,l),
(264,134,o),
(238,130,o),
(228,130,cs),
(208,130,o),
(201,138,o),
(201,158,cs),
(201,165,o),
(203,175,o),
(205,184,cs),
(212,220,l),
(296,220,l),
(321,333,l),
(236,333,l),
(255,420,l),
(349,420,l),
(377,553,l),
(283,553,l),
(307,664,l),
(194,664,l),
(138,548,l),
(62,503,l),
(45,420,l),
(95,420,l),
(77,333,l),
(30,333,l),
(6,220,l),
(52,220,l),
(50,207,ls),
(42,169,o),
(39,143,o),
(39,119,cs),
(39,45,o),
(69,-10,o),
(156,-10,cs)
);
}
);
width = 342;
},
{
anchors = (
{
name = bottom;
pos = (170,0);
},
{
name = center;
pos = (239,326);
},
{
name = top;
pos = (311,663);
}
);
layerId = "84606D06-D269-45BD-896C-8402F9D7AD38";
shapes = (
{
closed = 1;
nodes = (
(274,-10,o),
(323,2,o),
(364,22,c),
(364,162,l),
(332,149,o),
(295,141,o),
(275,141,cs),
(257,141,o),
(244,143,o),
(244,165,cs),
(244,176,o),
(247,190,o),
(251,209,cs),
(252,216,l),
(374,216,l),
(399,334,l),
(278,334,l),
(295,410,l),
(436,410,l),
(467,553,l),
(326,553,l),
(349,663,l),
(223,663,l),
(157,547,l),
(51,504,l),
(31,410,l),
(106,410,l),
(89,334,l),
(36,334,l),
(11,216,l),
(64,216,l),
(57,180,ls),
(53,159,o),
(50,135,o),
(50,116,cs),
(50,22,o),
(106,-10,o),
(202,-10,cs)
);
}
);
width = 457;
}
);
script = latin;
subCategory = Lowercase;
unicode = 359;
}
{
category = Letter;
glyphname = dtopbar;
layers = (
{
anchors = (
{
name = bottom;
pos = (214,0);
},
{
name = center;
pos = (315,375);
},
{
name = top;
pos = (375,760);
}
);
layerId = "4ABFEEF6-B0FE-443E-B48D-B4A70A3A2C9A";
shapes = (
{
closed = 1;
nodes = (
(303,-10,o),
(381,72,o),
(423,141,c),
(425,141,l),
(397,0,l),
(419,0,l),
(580,760,l),
(232,760,l),
(227,735,l),
(549,735,l),
(508,543,ls),
(499,501,o),
(489,452,o),
(482,407,c),
(480,407,l),
(471,468,o),
(425,538,o),
(324,538,cs),
(139,538,o),
(51,340,o),
(51,178,cs),
(51,65,o),
(98,-10,o),
(201,-10,cs)
);
},
{
closed = 1;
nodes = (
(119,15,o),
(78,75,o),
(78,178,cs),
(78,335,o),
(159,513,o),
(323,513,cs),
(405,513,o),
(463,462,o),
(463,358,cs),
(463,173,o),
(330,15,o),
(203,15,cs)
);
}
);
width = 539;
},
{
anchors = (
{
name = bottom;
pos = (233,0);
},
{
name = center;
pos = (322,375);
},
{
name = top;
pos = (395,760);
}
);
layerId = "9733853B-DD8E-49B4-939D-1F0D465E8B6E";
shapes = (
{
closed = 1;
nodes = (
(268,-10,o),
(323,39,o),
(371,99,c),
(375,99,l),
(364,0,l),
(436,0,l),
(597,760,l),
(209,760,l),
(193,686,l),
(495,686,l),
(473,585,ls),
(463,537,o),
(457,498,o),
(451,453,c),
(446,453,l),
(424,502,o),
(383,545,o),
(311,545,cs),
(149,545,o),
(48,369,o),
(48,173,cs),
(48,51,o),
(107,-10,o),
(193,-10,cs)
);
},
{
closed = 1;
nodes = (
(167,63,o),
(138,99,o),
(138,171,cs),
(138,321,o),
(211,472,o),
(317,472,cs),
(388,472,o),
(417,428,o),
(417,364,cs),
(417,205,o),
(311,63,o),
(223,63,cs)
);
}
);
width = 579;
},
{
anchors = (
{
name = bottom;
pos = (239,0);
},
{
name = center;
pos = (333,375);
},
{
name = top;
pos = (400,760);
}
);
layerId = "FAB9F01D-70CE-4F71-A270-EC67BDAC6531";
shapes = (
{
closed = 1;
nodes = (
(268,-10,o),
(315,23,o),
(354,71,c),
(358,71,l),
(349,0,l),
(461,0,l),
(622,760,l),
(207,760,l),
(183,648,l),
(451,648,l),
(438,585,ls),
(429,544,o),
(425,482,o),
(425,476,c),
(421,476,l),
(396,516,o),
(357,546,o),
(295,546,cs),
(141,546,o),
(44,371,o),
(44,189,cs),
(44,44,o),
(119,-10,o),
(198,-10,cs)
);
},
{
closed = 1;
nodes = (
(217,109,o),
(193,138,o),
(193,195,cs),
(193,314,o),
(249,427,o),
(321,427,cs),
(366,427,o),
(390,398,o),
(390,351,cs),
(390,274,o),
(352,109,o),
(260,109,cs)
);
}
);
width = 594;
},
{
anchors = (
{
name = bottom;
pos = (243,0);
},
{
name = center;
pos = (340,375);
},
{
name = top;
pos = (405,760);
}
);
layerId = "84606D06-D269-45BD-896C-8402F9D7AD38";
shapes = (
{
closed = 1;
nodes = (
(262,-10,o),
(300,16,o),
(329,60,c),
(332,60,l),
(328,0,l),
(478,0,l),
(639,760,l),
(206,760,l),
(177,626,l),
(421,626,l),
(413,585,ls),
(407,548,o),
(406,508,o),
(408,489,c),
(404,489,l),
(377,524,o),
(339,547,o),
(284,547,cs),
(136,547,o),
(41,370,o),
(41,198,cs),
(41,55,o),
(107,-10,o),
(202,-10,cs)
);
},
{
closed = 1;
nodes = (
(248,142,o),
(234,169,o),
(234,213,cs),
(234,311,o),
(276,401,o),
(324,401,cs),
(358,401,o),
(372,378,o),
(372,337,cs),
(372,280,o),
(341,142,o),
(274,142,cs)
);
}
);
width = 603;
},
{
anchors = (
{
name = bottom;
pos = (136,0);
},
{
name = center;
pos = (223,375);
},
{
name = top;
pos = (298,760);
}
);
layerId = "891911EE-97A3-4583-AC34-B57874F49FBA";
shapes = (
{
closed = 1;
nodes = (
(183,-10,o),
(220,30,o),
(251,93,c),
(253,93,l),
(237,0,l),
(258,0,l),
(418,760,l),
(191,760,l),
(185,735,l),
(387,735,l),
(349,558,ls),
(341,522,o),
(334,483,o),
(328,451,c),
(325,451,l),
(318,499,o),
(291,536,o),
(239,536,cs),
(100,536,o),
(29,294,o),
(29,138,cs),
(29,42,o),
(64,-10,o),
(126,-10,cs)
);
},
{
closed = 1;
nodes = (
(86,15,o),
(56,51,o),
(56,140,cs),
(56,280,o),
(121,511,o),
(238,511,cs),
(282,511,o),
(308,473,o),
(308,416,cs),
(308,344,o),
(261,15,o),
(129,15,cs)
);
}
);
width = 383;
},
{
anchors = (
{
name = bottom;
pos = (156,0);
},
{
name = center;
pos = (245,375);
},
{
name = top;
pos = (317,760);
}
);
layerId = "A849C433-1DA2-4174-AEA9-F403839AA1E5";
shapes = (
{
closed = 1;
nodes = (
(176,-10,o),
(211,20,o),
(248,74,c),
(250,74,l),
(244,0,l),
(306,0,l),
(467,760,l),
(192,760,l),
(177,691,l),
(376,691,l),
(350,570,ls),
(344,541,o),
(338,507,o),
(332,473,c),
(329,473,l),
(318,519,o),
(283,546,o),
(237,546,cs),
(92,546,o),
(24,286,o),
(24,139,cs),
(24,43,o),
(61,-10,o),
(127,-10,cs)
);
},
{
closed = 1;
nodes = (
(120,57,o),
(104,85,o),
(104,143,cs),
(104,257,o),
(155,477,o),
(249,477,cs),
(287,477,o),
(305,450,o),
(305,400,cs),
(305,307,o),
(261,57,o),
(154,57,cs)
);
}
);
width = 423;
},
{
anchors = (
{
name = bottom;
pos = (172,0);
},
{
name = center;
pos = (263,375);
},
{
name = top;
pos = (334,760);
}
);
layerId = "E7382CC2-7CD9-4594-B524-5D480E09B385";
shapes = (
{
closed = 1;
nodes = (
(179,-10,o),
(209,17,o),
(247,65,c),
(250,65,l),
(249,0,l),
(346,0,l),
(508,760,l),
(194,760,l),
(171,653,l),
(365,653,l),
(349,579,ls),
(345,556,o),
(339,523,o),
(334,487,c),
(331,487,l),
(314,533,o),
(276,555,o),
(230,555,cs),
(87,555,o),
(19,289,o),
(19,148,cs),
(19,49,o),
(60,-10,o),
(128.008,-10,cs)
);
},
{
closed = 1;
nodes = (
(155,92,o),
(143,116,o),
(143,163,cs),
(143,243,o),
(183,450,o),
(258,450,cs),
(286,450,o),
(300,428,o),
(300,384,cs),
(300,302,o),
(261,92,o),
(179,92,cs)
);
}
);
width = 456;
},
{
anchors = (
{
name = bottom;
pos = (188,0);
},
{
name = center;
pos = (279,375);
},
{
name = top;
pos = (349,760);
}
);
layerId = "1C9FFC3E-B033-49C1-8526-F3CD51FE3A6C";
shapes = (
{
closed = 1;
nodes = (
(180,-10,o),
(206,14,o),
(245,57,c),
(249,57,l),
(253,0,l),
(383,0,l),
(545,760,l),
(195,760,l),
(165,618,l),
(354,618,l),
(348,588,ls),
(345,571,o),
(339,538,o),
(335,500,c),
(332,500,l),
(311,546,o),
(269,563,o),
(223,563,cs),
(82,563,o),
(14,291,o),
(14,156,cs),
(14,54,o),
(58,-10,o),
(129,-10,cs)
);
},
{
closed = 1;
nodes = (
(187,125,o),
(179,144,o),
(179,181,cs),
(179,229,o),
(209,424,o),
(266,424,cs),
(286,424,o),
(296,407,o),
(296,370,cs),
(296,295,o),
(260,125,o),
(201,125,cs)
);
}
);
width = 487;
}
);
script = latin;
subCategory = Lowercase;
unicode = 396;
}
{
category = Letter;
glyphname = Fhook;
layers = (
{
anchors = (
{
name = bottom;
pos = (64,0);
},
{
name = center;
pos = (266,236);
},
{
name = top;
pos = (432,714);
},
{
name = topright;
pos = (655,714);
}
);
layerId = "4ABFEEF6-B0FE-443E-B48D-B4A70A3A2C9A";
shapes = (
{
closed = 1;
nodes = (
(121,-241,o),
(152,-164,o),
(178,-45,cs),
(266,363,l),
(540,363,l),
(546,388,l),
(272,388,l),
(335,689,l),
(627,689,l),
(632,714,l),
(313,714,l),
(151,-43,ls),
(129,-144,o),
(105,-216,o),
(26,-216,cs),
(-46,-216,o),
(-73,-164,o),
(-73,-116,cs),
(-73,-92,o),
(-68,-75,o),
(-62,-58,c),
(-88,-49,l),
(-94,-66,o),
(-100,-87,o),
(-100,-114,cs),
(-100,-178,o),
(-65,-241,o),
(27,-241,cs)
);
}
);
width = 559;
},
{
anchors = (
{
name = bottom;
pos = (82,0);
},
{
name = center;
pos = (272,236);
},
{
name = top;
pos = (424,714);
},
{
name = topright;
pos = (642,714);
}
);
layerId = "9733853B-DD8E-49B4-939D-1F0D465E8B6E";
shapes = (
{
closed = 1;
nodes = (
(138,-241,o),
(193,-183,o),
(220,-53,cs),
(301,333,l),
(537,333,l),
(554,412,l),
(318,412,l),
(364,635,l),
(618,635,l),
(634,714,l),
(292,714,l),
(133,-43,ls),
(115,-127,o),
(90,-162,o),
(49,-162,cs),
(15,-162,o),
(-3,-136,o),
(-3,-107,cs),
(-3,-94,o),
(-1,-85,o),
(2,-76,c),
(-74,-47,l),
(-84,-68,o),
(-89,-88,o),
(-89,-112,cs),
(-89,-183,o),
(-39,-241,o),
(46,-241,cs)
);
}
);
width = 557;
},
{
anchors = (
{
name = bottom;
pos = (148,0);
},
{
name = center;
pos = (322,236);
},
{
name = top;
pos = (519,714);
},
{
name = topright;
pos = (764,714);
}
);
layerId = "FAB9F01D-70CE-4F71-A270-EC67BDAC6531";
shapes = (
{
closed = 1;
nodes = (
(249,-242,o),
(309,-159,o),
(331,-55,cs),
(409,308,l),
(620,308,l),
(647,432,l),
(436,432,l),
(469,590,l),
(697,590,l),
(723,714,l),
(346,714,l),
(183,-38,ls),
(172,-90,o),
(152,-132,o),
(107,-132,cs),
(75,-132,o),
(50,-112,o),
(50,-72,cs),
(50,-55,o),
(55,-38,o),
(65,-22,c),
(-43,24,l),
(-67,-8,o),
(-78,-44,o),
(-78,-79,cs),
(-78,-181,o),
(-8,-242,o),
(113,-242,cs)
);
}
);
width = 680;
},
{
anchors = (
{
name = bottom;
pos = (179,0);
},
{
name = center;
pos = (352,236);
},
{
name = top;
pos = (567,714);
},
{
name = topright;
pos = (831,714);
}
);
layerId = "84606D06-D269-45BD-896C-8402F9D7AD38";
shapes = (
{
closed = 1;
nodes = (
(302,-242,o),
(368,-167,o),
(394,-46,cs),
(466,292,l),
(660,292,l),
(694,448,l),
(501,448,l),
(524,559,l),
(734,559,l),
(767,714,l),
(365,714,l),
(203,-51,ls),
(194,-93,o),
(169,-108,o),
(146,-108,cs),
(108,-108,o),
(94,-79,o),
(94,-54,cs),
(94,-32,o),
(100,-9,o),
(106,0,c),
(-35,51,l),
(-47,30,o),
(-62,-10,o),
(-62,-51,cs),
(-62,-162,o),
(18,-242,o),
(158,-242,cs)
);
}
);
width = 748;
},
{
anchors = (
{
name = bottom;
pos = (50,0);
},
{
name = center;
pos = (208,237);
},
{
name = top;
pos = (378,714);
},
{
name = topright;
pos = (524,714);
}
);
layerId = "891911EE-97A3-4583-AC34-B57874F49FBA";
shapes = (
{
closed = 1;
nodes = (
(84,-240,o),
(123,-194,o),
(142,-105,cs),
(242,363,l),
(430,363,l),
(435,388,l),
(247,388,l),
(312,689,l),
(512,689,l),
(517,714,l),
(291,714,l),
(117,-104,ls),
(101,-180,o),
(68,-215,o),
(16,-215,cs),
(-43,-215,o),
(-75,-173,o),
(-75,-109,cs),
(-75,-85,o),
(-70,-65,o),
(-65,-54,c),
(-88,-46,l),
(-94,-61,o),
(-100,-80,o),
(-100,-109,cs),
(-100,-183,o),
(-65,-240,o),
(16,-240,cs)
);
}
);
width = 449;
},
{
anchors = (
{
name = bottom;
pos = (82,0);
},
{
name = center;
pos = (240,236);
},
{
name = top;
pos = (411,714);
},
{
name = topright;
pos = (563,714);
}
);
layerId = "A849C433-1DA2-4174-AEA9-F403839AA1E5";
shapes = (
{
closed = 1;
nodes = (
(144,-241,o),
(184,-185,o),
(203,-96,cs),
(294,338,l),
(452,338,l),
(467,410,l),
(310,410,l),
(359,642,l),
(529,642,l),
(544,714,l),
(294,714,l),
(122,-93,ls),
(111,-143,o),
(95,-173,o),
(58,-173,cs),
(23,-173,o),
(7,-145,o),
(7,-112,cs),
(7,-98,o),
(9,-83,o),
(15,-72,c),
(-49,-50,l),
(-58,-68,o),
(-63,-90,o),
(-63,-114,cs),
(-63,-186,o),
(-21,-241,o),
(59,-241,cs)
);
}
);
width = 479;
},
{
anchors = (
{
name = bottom;
pos = (105,0);
},
{
name = center;
pos = (248,236);
},
{
name = top;
pos = (427,714);
},
{
name = topright;
pos = (595,714);
}
);
layerId = "E7382CC2-7CD9-4594-B524-5D480E09B385";
shapes = (
{
closed = 1;
nodes = (
(181,-241,o),
(227,-173,o),
(248,-77,cs),
(333,318,l),
(478,318,l),
(502,427,l),
(356,427,l),
(394,605,l),
(552,605,l),
(575,714,l),
(292,714,l),
(126,-62,ls),
(117,-105,o),
(98,-125,o),
(71,-125,cs),
(43,-125,o),
(33,-103,o),
(33,-82,cs),
(33,-66,o),
(36,-53,o),
(41,-39,c),
(-59,-3,l),
(-69,-26,o),
(-78,-52,o),
(-78,-94,cs),
(-78,-181,o),
(-23,-241,o),
(74,-241,cs)
);
}
);
width = 510;
},
{
anchors = (
{
name = bottom;
pos = (170,0);
},
{
name = center;
pos = (292,237);
},
{
name = top;
pos = (478,714);
},
{
name = topright;
pos = (661,714);
}
);
layerId = "1C9FFC3E-B033-49C1-8526-F3CD51FE3A6C";
shapes = (
{
closed = 1;
nodes = (
(241,-240,o),
(308,-168,o),
(331,-56,cs),
(403,298,l),
(537,298,l),
(568,442,l),
(434,442,l),
(462,570,l),
(608,570,l),
(638,714,l),
(325,714,l),
(165,-51,ls),
(158,-84,o),
(145,-103,o),
(123,-103,cs),
(98,-103,o),
(86,-81,o),
(86,-53,cs),
(86,-37,o),
(88,-23,o),
(94,-7,c),
(-36,39,l),
(-47,7,o),
(-53,-24,o),
(-53,-54,cs),
(-53,-170,o),
(19,-240,o),
(134,-240,cs)
);
}
);
width = 576;
}
);
metricRight = F;
script = latin;
subCategory = Uppercase;
unicode = 401;
}
{
category = Letter;
glyphname = Yr;
layers = (
{
anchors = (
{
name = bottom;
pos = (220,0);
},
{
name = center;
pos = (293,303);
},
{
name = top;
pos = (372,714);
}
);
layerId = "4ABFEEF6-B0FE-443E-B48D-B4A70A3A2C9A";
shapes = (
{
closed = 1;
nodes = (
(453,-108,l),
(337,215,l),
(466,237,o),
(536,313,o),
(536,434,cs),
(536,552,o),
(469,606,o),
(336,606,cs),
(204,606,l),
(227,714,l),
(201,714,l),
(50,0,l),
(76,0,l),
(121,212,l),
(310,212,l),
(424,-108,l)
);
},
{
closed = 1;
nodes = (
(126,237,l),
(199,581,l),
(330,581,ls),
(457,581,o),
(509,535,o),
(509,433,cs),
(509,297,o),
(413,237,o),
(280,237,cs)
);
}
);
width = 552;
},
{
anchors = (
{
name = bottom;
pos = (230,0);
},
{
name = center;
pos = (294,307);
},
{
name = top;
pos = (382,714);
}
);
layerId = "9733853B-DD8E-49B4-939D-1F0D465E8B6E";
shapes = (
{
closed = 1;
nodes = (
(488,-100,l),
(370,215,l),
(499,251,o),
(548,330,o),
(548,433,cs),
(548,552,o),
(475,614,o),
(328,614,cs),
(260,614,l),
(281,714,l),
(192,714,l),
(41,0,l),
(129,0,l),
(170,195,l),
(288,195,l),
(390,-100,l)
);
},
{
closed = 1;
nodes = (
(187,271,l),
(243,536,l),
(320,536,ls),
(410,536,o),
(456,508,o),
(456,427,cs),
(456,335,o),
(398,271,o),
(265,271,cs)
);
}
);
width = 573;
},
{
anchors = (
{
name = bottom;
pos = (247,0);
},
{
name = center;
pos = (294,307);
},
{
name = top;
pos = (399,714);
}
);
layerId = "FAB9F01D-70CE-4F71-A270-EC67BDAC6531";
shapes = (
{
closed = 1;
nodes = (
(533,-100,l),
(406,203,l),
(496,234,o),
(563,305,o),
(563,418,cs),
(563,556,o),
(474,614,o),
(331,614,cs),
(305,614,l),
(326,714,l),
(177,714,l),
(26,0,l),
(175,0,l),
(212,174,l),
(270,174,l),
(371,-100,l)
);
},
{
closed = 1;
nodes = (
(238,297,l),
(279,490,l),
(315,490,ls),
(381,490,o),
(411,463,o),
(411,410,cs),
(411,334,o),
(361,297,o),
(276,297,cs)
);
}
);
width = 609;
},
{
anchors = (
{
name = bottom;
pos = (258,0);
},
{
name = center;
pos = (294,307);
},
{
name = top;
pos = (410,714);
}
);
layerId = "84606D06-D269-45BD-896C-8402F9D7AD38";
shapes = (
{
closed = 1;
nodes = (
(564,-100,l),
(431,196,l),
(493,224,o),
(573,291,o),
(573,412,cs),
(573,518,o),
(522,614,o),
(346,614,cs),
(336,614,l),
(357,714,l),
(166,714,l),
(15,0,l),
(207,0,l),
(240,162,l),
(257,162,l),
(358,-100,l)
);
},
{
closed = 1;
nodes = (
(272,312,l),
(303,464,l),
(311,464,ls),
(361,464,o),
(380,439,o),
(380,402,cs),
(380,334,o),
(335,312,o),
(283,312,cs)
);
}
);
width = 633;
},
{
anchors = (
{
name = bottom;
pos = (106,-100);
},
{
name = center;
pos = (173,307);
},
{
name = top;
pos = (279,714);
}
);
layerId = "891911EE-97A3-4583-AC34-B57874F49FBA";
shapes = (
{
closed = 1;
nodes = (
(244,-100,l),
(187,225,l),
(291,245,o),
(343,353,o),
(343,469,cs),
(343,566,o),
(288,614,o),
(208,614,cs),
(159,614,l),
(180,714,l),
(154,714,l),
(3,0,l),
(29,0,l),
(76,221,l),
(161,221,l),
(217,-100,l)
);
},
{
closed = 1;
nodes = (
(82,246,l),
(154,589,l),
(199,589,ls),
(276,589,o),
(316,552,o),
(316,466,cs),
(316,369,o),
(272,246,o),
(153,246,cs)
);
}
);
width = 366;
},
{
anchors = (
{
name = bottom;
pos = (139,-69);
},
{
name = center;
pos = (201,307);
},
{
name = top;
pos = (305,714);
}
);
layerId = "A849C433-1DA2-4174-AEA9-F403839AA1E5";
shapes = (
{
closed = 1;
nodes = (
(319,-100,l),
(255,215,l),
(345,238,o),
(402,340,o),
(402,459,cs),
(402,557,o),
(344,614,o),
(240,614,cs),
(210,614,l),
(231,714,l),
(151,714,l),
(0,0,l),
(80,0,l),
(122,199,l),
(178,199,l),
(232,-100,l)
);
},
{
closed = 1;
nodes = (
(137,267,l),
(195,543,l),
(226,543,ls),
(286,543,o),
(318,511,o),
(318,449,cs),
(318,357,o),
(276,267,o),
(181,267,cs)
);
}
);
width = 419;
},
{
anchors = (
{
name = bottom;
pos = (169,-33);
},
{
name = center;
pos = (225,307);
},
{
name = top;
pos = (327,714);
}
);
layerId = "E7382CC2-7CD9-4594-B524-5D480E09B385";
shapes = (
{
closed = 1;
nodes = (
(382,-100,l),
(312,207,l),
(398,238,o),
(452,331,o),
(452,452,cs),
(452,556,o),
(390,614,o),
(269,614,cs),
(253,614,l),
(274,714,l),
(149,714,l),
(-2,0,l),
(123,0,l),
(161,182,l),
(194,182,l),
(244,-100,l)
);
},
{
closed = 1;
nodes = (
(183,284,l),
(230,507,l),
(250,507,ls),
(296,507,o),
(320,483,o),
(320,435,cs),
(320,362,o),
(286,284,o),
(212,284,cs)
);
}
);
width = 464;
},
{
anchors = (
{
name = bottom;
pos = (197,0);
},
{
name = center;
pos = (246,307);
},
{
name = top;
pos = (348,714);
}
);
layerId = "1C9FFC3E-B033-49C1-8526-F3CD51FE3A6C";
shapes = (
{
closed = 1;
nodes = (
(440,-100,l),
(364,200,l),
(446,237,o),
(498,323,o),
(498,445,cs),
(498,554,o),
(433,614,o),
(295,614,cs),
(292,614,l),
(313,714,l),
(146,714,l),
(-5,0,l),
(162,0,l),
(196,165,l),
(207,165,l),
(255,-100,l)
);
},
{
closed = 1;
nodes = (
(226,300,l),
(262,474,l),
(273,474,ls),
(305,474,o),
(321,456,o),
(321,422,cs),
(321,366,o),
(296,300,o),
(240,300,cs)
);
}
);
width = 505;
}
);
script = latin;
subCategory = Uppercase;
unicode = 422;
}
{
category = Letter;
glyphname = Thook;
layers = (
{
anchors = (
{
name = bottom;
pos = (185,0);
},
{
name = center;
pos = (334,357);
},
{
name = top;
pos = (337,714);
}
);
layerId = "4ABFEEF6-B0FE-443E-B48D-B4A70A3A2C9A";
shapes = (
{
closed = 1;
nodes = (
(199,0,l),
(345,689,l),
(571,689,l),
(576,714,l),
(239,714,ls),
(145,714,o),
(93,649,o),
(93,563,cs),
(93,539,o),
(97,523,o),
(100,513,c),
(127,513,l),
(124,522,o),
(120,539,o),
(120,563,cs),
(120,630,o),
(156,689,o),
(239,689,cs),
(318,689,l),
(172,0,l)
);
}
);
width = 481;
},
{
anchors = (
{
name = bottom;
pos = (213,0);
},
{
name = center;
pos = (354,357);
},
{
name = top;
pos = (365,714);
}
);
layerId = "9733853B-DD8E-49B4-939D-1F0D465E8B6E";
shapes = (
{
closed = 1;
nodes = (
(281,0,l),
(416,635,l),
(612,635,l),
(628,714,l),
(241,714,ls),
(130,714,o),
(80,656,o),
(80,571,cs),
(80,559,o),
(83,541,o),
(87,533,c),
(162,533,l),
(159,542,o),
(157,555,o),
(157,565,cs),
(157,614,o),
(183,635,o),
(233,635,cs),
(325,635,l),
(191,0,l)
);
}
);
width = 540;
},
{
anchors = (
{
name = bottom;
pos = (230,0);
},
{
name = center;
pos = (348,357);
},
{
name = top;
pos = (382,714);
}
);
layerId = "FAB9F01D-70CE-4F71-A270-EC67BDAC6531";
shapes = (
{
closed = 1;
nodes = (
(324,0,l),
(448,588,l),
(620,588,l),
(647,714,l),
(260,714,ls),
(120,714,o),
(50,636,o),
(50,524,cs),
(50,511,o),
(51,496,o),
(54,486,c),
(165,486,l),
(164,491,o),
(162,501,o),
(162,511,cs),
(162,558,o),
(190,588,o),
(236,588,cs),
(299,588,l),
(175,0,l)
);
}
);
width = 576;
},
{
anchors = (
{
name = bottom;
pos = (242,0);
},
{
name = center;
pos = (345,357);
},
{
name = top;
pos = (394,714);
}
);
layerId = "84606D06-D269-45BD-896C-8402F9D7AD38";
shapes = (
{
closed = 1;
nodes = (
(356,0,l),
(472,556,l),
(627,556,l),
(662,714,l),
(273,714,ls),
(103,714,o),
(29,629,o),
(29,488,cs),
(29,477,o),
(30,467,o),
(32,459,c),
(167,459,l),
(166,465,o),
(166,470,o),
(166,480,cs),
(166,529,o),
(190,561,o),
(246,561,cs),
(283,561,l),
(165,0,l)
);
}
);
width = 602;
},
{
anchors = (
{
name = bottom;
pos = (106,0);
},
{
name = center;
pos = (240,357);
},
{
name = top;
pos = (258,714);
}
);
layerId = "891911EE-97A3-4583-AC34-B57874F49FBA";
shapes = (
{
closed = 1;
nodes = (
(119,0,l),
(265,689,l),
(393,689,l),
(398,714,l),
(219.008,714,ls),
(114,714,o),
(82,659,o),
(82,596,cs),
(82,582,o),
(83,574,o),
(85,563,c),
(112,563,l),
(110,574,o),
(109,583,o),
(109,598,cs),
(109,649,o),
(133,689,o),
(211,689,cs),
(239,689,l),
(93,0,l)
);
}
);
width = 323;
},
{
anchors = (
{
name = bottom;
pos = (140,0);
},
{
name = center;
pos = (274,357);
},
{
name = top;
pos = (292,714);
}
);
layerId = "A849C433-1DA2-4174-AEA9-F403839AA1E5";
shapes = (
{
closed = 1;
nodes = (
(195,0,l),
(331,641,l),
(453,641,l),
(469,714,l),
(232,714,ls),
(128,714,o),
(79,656,o),
(79,579,cs),
(79,561,o),
(81,543,o),
(84,532,c),
(155,532,l),
(152,544,o),
(150,557,o),
(150,572,cs),
(150,612,o),
(169,641,o),
(229,641,cs),
(250,641,l),
(115,0,l)
);
}
);
width = 392;
},
{
anchors = (
{
name = bottom;
pos = (169,0);
},
{
name = center;
pos = (301,357);
},
{
name = top;
pos = (320,714);
}
);
layerId = "E7382CC2-7CD9-4594-B524-5D480E09B385";
shapes = (
{
closed = 1;
nodes = (
(257,0,l),
(385,603,l),
(504,603,l),
(527,714,l),
(242,714,ls),
(138,714,o),
(76,653,o),
(76,563,cs),
(76,542,o),
(79,517,o),
(84,506,c),
(190,506,l),
(185,517,o),
(183,534,o),
(183,547,cs),
(183,583,o),
(198,603,o),
(245,603,cs),
(259,603,l),
(132,0,l)
);
}
);
width = 450;
},
{
anchors = (
{
name = bottom;
pos = (196,0);
},
{
name = center;
pos = (327,357);
},
{
name = top;
pos = (347,714);
}
);
layerId = "1C9FFC3E-B033-49C1-8526-F3CD51FE3A6C";
shapes = (
{
closed = 1;
nodes = (
(315,0,l),
(435,567,l),
(551,567,l),
(582,714,l),
(251,714,ls),
(147,714,o),
(73,650,o),
(73,549,cs),
(73,524,o),
(77,492,o),
(83,481,c),
(222,481,l),
(216,493,o),
(213,512,o),
(213,525,cs),
(213,555,o),
(225,567,o),
(259,567,cs),
(268,567,l),
(148,0,l)
);
}
);
width = 504;
}
);
script = latin;
subCategory = Uppercase;
unicode = 428;
}
{
category = Letter;
glyphname = Ezhreversed;
layers = (
{
anchors = (
{
name = bottom;
pos = (183,0);
},
{
name = center;
pos = (274,352);
},
{
name = top;
pos = (335,714);
}
);
layerId = "4ABFEEF6-B0FE-443E-B48D-B4A70A3A2C9A";
shapes = (
{
closed = 1;
nodes = (
(317,-10,o),
(382,14,o),
(423,37,c),
(423,65,l),
(372,37,o),
(313,15,o),
(226,15,cs),
(130,15,o),
(67,69,o),
(67,169,cs),
(67,286,o),
(131,372,o),
(355,372,cs),
(387,372,l),
(392,394,l),
(227,689,l),
(502,689,l),
(508,714,l),
(199,714,l),
(194,694,l),
(361,397,l),
(113,397,o),
(40,297,o),
(40,166,cs),
(40,56,o),
(110,-10,o),
(225,-10,cs)
);
}
);
width = 477;
},
{
anchors = (
{
name = bottom;
pos = (212,0);
},
{
name = center;
pos = (299,352);
},
{
name = top;
pos = (364,714);
}
);
layerId = "9733853B-DD8E-49B4-939D-1F0D465E8B6E";
shapes = (
{
closed = 1;
nodes = (
(341,-10,o),
(408,2,o),
(470,31,c),
(470,114,l),
(407,84,o),
(337,64,o),
(276,64,cs),
(179,64,o),
(126,102,o),
(126,176,cs),
(126,302,o),
(240,333,o),
(364,333,cs),
(398,333,l),
(411,397,l),
(238,634,l),
(549,634,l),
(566,714,l),
(157,714,l),
(142,643,l),
(315,402,l),
(170,396,o),
(33,337,o),
(33,176,cs),
(33,67,o),
(104,-10,o),
(260,-10,cs)
);
}
);
width = 538;
},
{
anchors = (
{
name = bottom;
pos = (220,0);
},
{
name = center;
pos = (318,352);
},
{
name = top;
pos = (372,714);
}
);
layerId = "FAB9F01D-70CE-4F71-A270-EC67BDAC6531";
shapes = (
{
closed = 1;
nodes = (
(376,-10,o),
(436,3,o),
(499,30,c),
(499,155,l),
(429,125,o),
(374,110,o),
(310,110,cs),
(232,110,o),
(182,142,o),
(182,202,cs),
(182,289,o),
(271,313,o),
(386,313,cs),
(439,313,l),
(462,419,l),
(312,589,l),
(580,589,l),
(606,714,l),
(157,714,l),
(137,617,l),
(308,416,l),
(154,409,o),
(30,348,o),
(30,189,cs),
(30,74,o),
(119,-10,o),
(288,-10,cs)
);
}
);
width = 555;
},
{
anchors = (
{
name = bottom;
pos = (227,0);
},
{
name = center;
pos = (330,352);
},
{
name = top;
pos = (379,714);
}
);
layerId = "84606D06-D269-45BD-896C-8402F9D7AD38";
shapes = (
{
closed = 1;
nodes = (
(399,-10,o),
(455,4,o),
(518,29,c),
(519,186,l),
(450,154,o),
(400,141,o),
(333,141,cs),
(269,141,o),
(220,167,o),
(220,215,cs),
(220,282,o),
(290,297,o),
(399,297,cs),
(465,297,l),
(492,410,l),
(361,558,l),
(600,558,l),
(633,714,l),
(157,714,l),
(132,595,l),
(283,424,l),
(135,416,o),
(28,353,o),
(28,197,cs),
(28,77,o),
(129,-10,o),
(307,-10,cs)
);
}
);
width = 572;
},
{
anchors = (
{
name = bottom;
pos = (95,0);
},
{
name = center;
pos = (179,352);
},
{
name = top;
pos = (247,714);
}
);
layerId = "891911EE-97A3-4583-AC34-B57874F49FBA";
shapes = (
{
closed = 1;
nodes = (
(171,-10,o),
(201,1,o),
(224,15,c),
(224,42,l),
(198,26,o),
(170,15,o),
(133,15,cs),
(65,15,o),
(28,60,o),
(28,136,cs),
(28,240,o),
(80,362,o),
(216,362,cs),
(247,362,l),
(252,387,l),
(133,689,l),
(354,689,l),
(358,714,l),
(110.008,714,l),
(106,689,l),
(224,388,l),
(57,388,o),
(1,243,o),
(1,136,cs),
(1,50,o),
(42,-10,o),
(130,-10,cs)
);
}
);
width = 302;
},
{
anchors = (
{
name = bottom;
pos = (129,0);
},
{
name = center;
pos = (211,352);
},
{
name = top;
pos = (280,714);
}
);
layerId = "A849C433-1DA2-4174-AEA9-F403839AA1E5";
shapes = (
{
closed = 1;
nodes = (
(212,-10,o),
(261,1,o),
(297,20,c),
(297,96,l),
(261,76,o),
(222,63,o),
(178,63,cs),
(123,63,o),
(92,97,o),
(92,162,cs),
(92,259,o),
(143,333,o),
(244,333,cs),
(297,333,l),
(310,395,l),
(197,642,l),
(401,642,l),
(415,714,l),
(123,714,l),
(109,647,l),
(222,401,l),
(83,389,o),
(8,290,o),
(8,156,cs),
(8,52,o),
(62,-10,o),
(165,-10,cs)
);
}
);
width = 370;
},
{
anchors = (
{
name = bottom;
pos = (158,0);
},
{
name = center;
pos = (237,352);
},
{
name = top;
pos = (309,714);
}
);
layerId = "E7382CC2-7CD9-4594-B524-5D480E09B385";
shapes = (
{
closed = 1;
nodes = (
(248,-10,o),
(313,3,o),
(358,25,c),
(358,139,l),
(317,116,o),
(266,101,o),
(220,101,cs),
(172,101,o),
(144,125,o),
(144,177,cs),
(144,260,o),
(193,311,o),
(281,311,cs),
(338,311,l),
(358,401,l),
(252,605,l),
(440,605,l),
(463,714,l),
(133,714,l),
(111,613,l),
(217,411,l),
(87,390,o),
(12,300,o),
(12,162,cs),
(12,46,o),
(77,-10,o),
(197,-10,cs)
);
}
);
width = 427;
},
{
anchors = (
{
name = bottom;
pos = (184,0);
},
{
name = center;
pos = (261,352);
},
{
name = top;
pos = (335,714);
}
);
layerId = "1C9FFC3E-B033-49C1-8526-F3CD51FE3A6C";
shapes = (
{
closed = 1;
nodes = (
(282,-10,o),
(361,4,o),
(415,30,c),
(415,179,l),
(369,154,o),
(308,137,o),
(259,137,cs),
(218,137,o),
(193,152,o),
(193,191,cs),
(193,262,o),
(240,290,o),
(315,290,cs),
(377,290,l),
(402,407,l),
(303,570,l),
(477,570,l),
(507,714,l),
(142,714,l),
(114,581,l),
(212,421,l),
(93,391,o),
(16,311,o),
(16,169,cs),
(16,41,o),
(92,-10,o),
(227,-10,cs)
);
}
);
width = 480;
}
);
script = latin;
subCategory = Uppercase;
unicode = 440;
}
{
category = Letter;
glyphname = ezhtail;
layers = (
{
anchors = (
{
name = bottom;
pos = (118,-240);
},
{
name = center;
pos = (207,144);
},
{
name = top;
pos = (281,528);
}
);
layerId = "4ABFEEF6-B0FE-443E-B48D-B4A70A3A2C9A";
shapes = (
{
closed = 1;
nodes = (
(170,-240,o),
(217,-225,o),
(251,-212,c),
(256,-184,l),
(208,-204,o),
(162,-215,o),
(108,-215,cs),
(40,-215,o),
(6,-195,o),
(6,-147,cs),
(6,-93,o),
(36,-65,o),
(157,-48,cs),
(291,-29,o),
(369,26,o),
(369,142,cs),
(369,228,o),
(313,289,o),
(178,288,c),
(430,503,l),
(435,528,l),
(109,528,l),
(104,503,l),
(389,503,l),
(138,287,l),
(131,263,l),
(177,263,ls),
(294,263,o),
(342,212,o),
(342,138,cs),
(342,41,o),
(279,-8,o),
(150,-25,cs),
(18,-42,o),
(-21,-81,o),
(-21,-149,cs),
(-21,-213,o),
(27,-240,o),
(101,-240,cs)
);
}
);
width = 449;
},
{
anchors = (
{
name = bottom;
pos = (124,-240);
},
{
name = center;
pos = (195,148);
},
{
name = top;
pos = (289,536);
}
);
layerId = "9733853B-DD8E-49B4-939D-1F0D465E8B6E";
shapes = (
{
closed = 1;
nodes = (
(172,-240,o),
(226,-227,o),
(264,-209,c),
(264,-133,l),
(225,-151,o),
(173,-167,o),
(111,-167,cs),
(51,-167,o),
(23,-148,o),
(23,-122,cs),
(23,-90,o),
(47,-75,o),
(129,-63,cs),
(319,-36,o),
(399,19,o),
(399,143,cs),
(399,241,o),
(326,295,o),
(228,303,c),
(437,472,l),
(450,536,l),
(87,536,l),
(72,462,l),
(317,462,l),
(119,299,l),
(108,238,l),
(158,238,ls),
(244,238,o),
(311,220,o),
(311,146,cs),
(311,61,o),
(244,33,o),
(135,16,cs),
(-13,-7,o),
(-59,-45,o),
(-59,-125,cs),
(-59,-195,o),
(1,-240,o),
(109,-240,cs)
);
}
);
width = 464;
},
{
anchors = (
{
name = bottom;
pos = (157,-240);
},
{
name = center;
pos = (240,153);
},
{
name = top;
pos = (324,546);
}
);
layerId = "FAB9F01D-70CE-4F71-A270-EC67BDAC6531";
shapes = (
{
closed = 1;
nodes = (
(237,-240,o),
(323,-221,o),
(373,-201,c),
(373,-91,l),
(324,-108,o),
(252,-130,o),
(170,-130,cs),
(114,-130,o),
(83,-118,o),
(83,-91,cs),
(83,-61,o),
(122,-51,o),
(174,-46,cs),
(421,-21,o),
(467,51,o),
(467,157,cs),
(467,245,o),
(406,292,o),
(320,306,c),
(500,450,l),
(521,546,l),
(116,546,l),
(91,432,l),
(302,432,l),
(146,299,l),
(125,199,l),
(190,199,ls),
(275,199,o),
(319,188,o),
(319,153,cs),
(319,104,o),
(277,87,o),
(181,78,cs),
(35,65,o),
(-40,8,o),
(-40,-97,cs),
(-40,-191,o),
(36,-240,o),
(151,-240,cs)
);
}
);
width = 531;
},
{
anchors = (
{
name = bottom;
pos = (188,-240);
},
{
name = center;
pos = (272,156);
},
{
name = top;
pos = (357,553);
}
);
layerId = "84606D06-D269-45BD-896C-8402F9D7AD38";
shapes = (
{
closed = 1;
nodes = (
(282,-240,o),
(390,-218,o),
(449,-196,c),
(449,-67,l),
(393,-84,o),
(307,-109,o),
(210,-109,cs),
(158,-109,o),
(125,-101,o),
(125,-74,cs),
(125,-45,o),
(162,-40,o),
(205,-37,cs),
(448,-19,o),
(515,53,o),
(515,165,cs),
(515,247,o),
(469,290,o),
(384,308,c),
(544,438,l),
(571,552,l),
(136,552,l),
(104,415,l),
(304,415,l),
(165,299,l),
(137,177,l),
(212,177,ls),
(303,177,o),
(325,170,o),
(325,149,cs),
(325,127,o),
(304,118,o),
(213,113,cs),
(69,105,o),
(-27,37,o),
(-27,-82,cs),
(-27,-189,o),
(60,-240,o),
(180,-240,cs)
);
}
);
width = 596;
},
{
anchors = (
{
name = bottom;
pos = (15,-240);
},
{
name = center;
pos = (84,143);
},
{
name = top;
pos = (178,526);
}
);
layerId = "891911EE-97A3-4583-AC34-B57874F49FBA";
shapes = (
{
closed = 1;
nodes = (
(66,-240,o),
(99,-230,o),
(118,-219,c),
(118,-192,l),
(98,-204,o),
(67,-215,o),
(37,-215,cs),
(-18,-215,o),
(-51,-183,o),
(-51,-127,cs),
(-51,-59,o),
(-16,-24,o),
(49,-1,cs),
(129,28,o),
(192,71,o),
(192,172,cs),
(192,254,o),
(147,290,o),
(81,294,c),
(241,499,l),
(247,526,l),
(58,526,l),
(53,501,l),
(213,501,l),
(50,290,l),
(46,269,l),
(70,269,ls),
(129,269,o),
(165,241,o),
(165,170,cs),
(165,78,o),
(113,49,o),
(42,23,cs),
(-34,-5,o),
(-78,-45,o),
(-78,-130,cs),
(-78,-198,o),
(-38,-240,o),
(36,-240,cs)
);
}
);
width = 244;
},
{
anchors = (
{
name = bottom;
pos = (44,-240);
},
{
name = center;
pos = (118,148);
},
{
name = top;
pos = (207,529);
}
);
layerId = "A849C433-1DA2-4174-AEA9-F403839AA1E5";
shapes = (
{
closed = 1;
nodes = (
(107,-240,o),
(146,-230,o),
(173,-219,c),
(173,-150,l),
(151,-162,o),
(112,-173,o),
(76,-173,cs),
(29,-173,o),
(6,-147,o),
(6,-101,cs),
(6,-52,o),
(33,-20,o),
(102,-2,cs),
(191,23,o),
(248,72,o),
(248,170,cs),
(248,248,o),
(211,291,o),
(146,306,c),
(294,480,l),
(306,536,l),
(62,536,l),
(47,470,l),
(201,470,l),
(64,306,l),
(53,251,l),
(94,251,ls),
(140,251,o),
(170,224,o),
(170,173,cs),
(170,107,o),
(138,81,o),
(67,60,cs),
(-23,34,o),
(-69,-19,o),
(-69,-107,cs),
(-69,-193,o),
(-22,-240,o),
(66,-240,cs)
);
}
);
width = 301;
},
{
anchors = (
{
name = bottom;
pos = (68,-240);
},
{
name = center;
pos = (147,152);
},
{
name = top;
pos = (231,530);
}
);
layerId = "E7382CC2-7CD9-4594-B524-5D480E09B385";
shapes = (
{
closed = 1;
nodes = (
(143,-240,o),
(188,-230,o),
(220,-217,c),
(220,-114,l),
(196,-126,o),
(151,-137,o),
(110,-137,cs),
(70,-137,o),
(54,-116,o),
(54,-85,cs),
(54,-43,o),
(80,-18,o),
(149,-2,cs),
(230,17,o),
(295,72,o),
(295,172,cs),
(295,244,o),
(263,293,o),
(200,314,c),
(341,464,l),
(358,545,l),
(65,545,l),
(43,443,l),
(191,443,l),
(74,320,l),
(57,238,l),
(103,238,ls),
(147,238,o),
(174,218,o),
(174,179,cs),
(174,131,o),
(151,109,o),
(85,91,cs),
(-15,65,o),
(-64,5,o),
(-64,-93,cs),
(-64,-191,o),
(-6,-240,o),
(88,-240,cs)
);
}
);
width = 349;
},
{
anchors = (
{
name = bottom;
pos = (90,-240);
},
{
name = center;
pos = (174,156);
},
{
name = top;
pos = (253,530);
}
);
layerId = "1C9FFC3E-B033-49C1-8526-F3CD51FE3A6C";
shapes = (
{
closed = 1;
nodes = (
(176,-240,o),
(226,-230,o),
(263,-216,c),
(263,-81,l),
(238,-93,o),
(187,-104,o),
(142,-104,cs),
(109,-104,o),
(98,-88,o),
(98,-69,cs),
(98,-34,o),
(123,-15,o),
(193,-2,cs),
(268,12,o),
(338,72,o),
(338,173,cs),
(338,241,o),
(311,294,o),
(249,322,c),
(385,449,l),
(407,553,l),
(68,553,l),
(39,418,l),
(181,418,l),
(84,333,l),
(61,225,l),
(113,225,ls),
(153,225,o),
(177,211,o),
(177,184,cs),
(177,153,o),
(164,135,o),
(102,120,cs),
(-8,93,o),
(-59,28,o),
(-59,-80,cs),
(-59,-189,o),
(8,-240,o),
(109,-240,cs)
);
}
);
width = 393;
}
);
script = latin;
subCategory = Lowercase;
unicode = 442;
}
{
category = Letter;
glyphname = ou;
layers = (
{
anchors = (
{
name = bottom;
pos = (220,0);
},
{
name = center;
pos = (314,376);
},
{
name = top;
pos = (332,528);
}
);
layerId = "4ABFEEF6-B0FE-443E-B48D-B4A70A3A2C9A";
shapes = (
{
closed = 1;
nodes = (
(404,-8,o),
(490,96,o),
(490,265,cs),
(490,382,o),
(426,428,o),
(380,443,c),
(455,450,o),
(509,498,o),
(536,621,cs),
(567,760,l),
(541,760,l),
(511,627,ls),
(484,509,o),
(441,460,o),
(331,460,cs),
(251,460,o),
(199,494,o),
(199,567,cs),
(199,591,o),
(202,612,o),
(209,643,cs),
(234,760,l),
(208,760,l),
(183,643,ls),
(177,613,o),
(173,590,o),
(173,566,cs),
(173,501,o),
(207,469,o),
(244,452,c),
(158,438,o),
(62,357,o),
(62,192,cs),
(62,63,o),
(137,-8,o),
(260,-8,cs)
);
},
{
closed = 1;
nodes = (
(157,17,o),
(89,74,o),
(89,192,cs),
(89,343,o),
(172,435,o),
(300,435,cs),
(397,435,o),
(463,379,o),
(463,264,cs),
(463,122,o),
(398,17,o),
(260,17,cs)
);
}
);
width = 552;
},
{
anchors = (
{
name = bottom;
pos = (232,0);
},
{
name = center;
pos = (318,375);
},
{
name = top;
pos = (346,536);
}
);
layerId = "9733853B-DD8E-49B4-939D-1F0D465E8B6E";
shapes = (
{
closed = 1;
nodes = (
(441,-10,o),
(522,134,o),
(522,285,cs),
(522,365,o),
(486,418,o),
(433,445,c),
(504,468,o),
(547,522,o),
(570,631,cs),
(597,760,l),
(508,760,l),
(481,634,ls),
(459,528,o),
(420,485,o),
(340,485,cs),
(277,485,o),
(241,511,o),
(241,571,cs),
(241,589,o),
(244,610,o),
(249,634,cs),
(276,760,l),
(187,760,l),
(160,631,ls),
(156,610,o),
(154,592,o),
(154,575,cs),
(154,516,o),
(174,478,o),
(213,453,c),
(96,419,o),
(39,316,o),
(39,188,cs),
(39,65,o),
(122,-10,o),
(249,-10,cs)
);
},
{
closed = 1;
nodes = (
(176,63,o),
(132,115,o),
(132,195,cs),
(132,316,o),
(192,412,o),
(309,412,cs),
(386,412,o),
(429,364,o),
(429,286,cs),
(429,164,o),
(370,63,o),
(257,63,cs)
);
}
);
width = 578;
},
{
anchors = (
{
name = bottom;
pos = (257,0);
},
{
name = center;
pos = (345,375);
},
{
name = top;
pos = (373,546);
}
);
layerId = "FAB9F01D-70CE-4F71-A270-EC67BDAC6531";
shapes = (
{
closed = 1;
nodes = (
(468,-10,o),
(575,106,o),
(575,279,cs),
(575,357,o),
(545,414,o),
(481,449,c),
(565,482,o),
(607,546,o),
(627,646,cs),
(650,760,l),
(502,760,l),
(481,660,ls),
(461,565,o),
(437,516,o),
(369,516,cs),
(322,516,o),
(297,542,o),
(297,590,cs),
(297,610,o),
(301,633,o),
(307,661,cs),
(328,760,l),
(182,760,l),
(161,661,ls),
(156,638,o),
(154,611,o),
(154,593,cs),
(154,532,o),
(178,490,o),
(222,462,c),
(121,434,o),
(41,351,o),
(41,206,cs),
(41,72,o),
(134,-10,o),
(280,-10,cs)
);
},
{
closed = 1;
nodes = (
(229,110,o),
(189,145,o),
(189,212,cs),
(189,285,o),
(222,396,o),
(333,396,cs),
(390,396,o),
(427,360,o),
(427,300,cs),
(427,200,o),
(388,110,o),
(290,110,cs)
);
}
);
width = 629;
},
{
anchors = (
{
name = bottom;
pos = (274,0);
},
{
name = center;
pos = (364,375);
},
{
name = top;
pos = (392,553);
}
);
layerId = "84606D06-D269-45BD-896C-8402F9D7AD38";
shapes = (
{
closed = 1;
nodes = (
(552,-10,o),
(613,159,o),
(613,268,cs),
(613,364,o),
(564,422,o),
(509,453,c),
(601,484,o),
(646,558,o),
(665,652,cs),
(687,760,l),
(498,760,l),
(481,675,ls),
(463,586,o),
(450,534,o),
(390,534,cs),
(354,534,o),
(336,559,o),
(336,600,cs),
(336,622,o),
(341,646,o),
(347,676,cs),
(364,760,l),
(179,760,l),
(165,698,ls),
(159,670,o),
(154,640,o),
(154,606,cs),
(154,547,o),
(183,497,o),
(227,471,c),
(106,441,o),
(42,352,o),
(42,222,cs),
(42,73,o),
(148,-10,o),
(306,-10,cs)
);
},
{
closed = 1;
nodes = (
(258,137,o),
(229,175,o),
(229,233,cs),
(229,296,o),
(263,387,o),
(345,387,cs),
(396,387,o),
(425,354,o),
(425,300,cs),
(425,213,o),
(389,137,o),
(312,137,cs)
);
}
);
width = 665;
},
{
anchors = (
{
name = bottom;
pos = (123,0);
},
{
name = center;
pos = (204,375);
},
{
name = top;
pos = (235,526);
}
);
layerId = "891911EE-97A3-4583-AC34-B57874F49FBA";
shapes = (
{
closed = 1;
nodes = (
(264,-10,o),
(318,166,o),
(318,316,cs),
(318,385,o),
(298,431,o),
(255,452,c),
(313,469,o),
(333,526,o),
(351,611,cs),
(383,760,l),
(357,760,l),
(325,611,ls),
(304,511,o),
(275,467,o),
(218,467,cs),
(175,467,o),
(157,496,o),
(157,527,cs),
(157,551,o),
(160,568,o),
(168,605,cs),
(202,760,l),
(176,760,l),
(142,605,ls),
(134,567,o),
(131,555,o),
(131,525,cs),
(131,490,o),
(147,466,o),
(169,455,c),
(100,433,o),
(26,331,o),
(26,145,cs),
(26,47,o),
(61,-10,o),
(134,-10,cs)
);
},
{
closed = 1;
nodes = (
(78,15,o),
(54,65,o),
(54,146,cs),
(54,271,o),
(103,441,o),
(211,441,cs),
(262,441,o),
(291,396,o),
(291,316,cs),
(291,191,o),
(247,15,o),
(137,15,cs)
);
}
);
width = 357;
},
{
anchors = (
{
name = bottom;
pos = (148,0);
},
{
name = center;
pos = (230,375);
},
{
name = top;
pos = (260,529);
}
);
layerId = "A849C433-1DA2-4174-AEA9-F403839AA1E5";
shapes = (
{
closed = 1;
nodes = (
(313,-10,o),
(371,170,o),
(371,310,cs),
(371,375,o),
(352,421,o),
(314,445,c),
(365,467,o),
(388,519,o),
(405,601,cs),
(438,760,l),
(362,760,l),
(329,603,ls),
(311,517,o),
(287,482,o),
(242,482,cs),
(209,482,o),
(194,502,o),
(194,529,cs),
(194,555,o),
(198,576,o),
(205,610,cs),
(237,760,l),
(160,760,l),
(130,618,ls),
(121,580,o),
(117,555,o),
(117,523,cs),
(117,485,o),
(133,460,o),
(156,446,c),
(68,407,o),
(23,277,o),
(23,151,cs),
(23,49,o),
(73,-10,o),
(160,-10,cs)
);
},
{
closed = 1;
nodes = (
(117,58,o),
(101,99,o),
(101,158,cs),
(101,266,o),
(141,414,o),
(228,414,cs),
(270,414,o),
(292,376,o),
(292,317,cs),
(292,211,o),
(250,58,o),
(165,58,cs)
);
}
);
width = 406;
},
{
anchors = (
{
name = bottom;
pos = (168,0);
},
{
name = center;
pos = (252,375);
},
{
name = top;
pos = (280,530);
}
);
layerId = "E7382CC2-7CD9-4594-B524-5D480E09B385";
shapes = (
{
closed = 1;
nodes = (
(359,-10,o),
(415,180,o),
(415,306,cs),
(415,367,o),
(397,412,o),
(362,438,c),
(409,463,o),
(434,513,o),
(450,593,cs),
(485,760,l),
(365,760,l),
(331,596,ls),
(316,520,o),
(297,494,o),
(260,494,cs),
(237,494,o),
(225,513,o),
(225,535,cs),
(225,560,o),
(229,583,o),
(236,613,cs),
(267,760,l),
(147,760,l),
(119,631,ls),
(110,590,o),
(105,557,o),
(105,522,cs),
(105,482,o),
(121,456,o),
(144,439,c),
(59,395,o),
(20,271,o),
(20,162,cs),
(20,54,o),
(83,-10,o),
(185,-10,cs)
);
},
{
closed = 1;
nodes = (
(156,92,o),
(141,128,o),
(141,174,cs),
(141,261,o),
(173,391,o),
(243,391,cs),
(275,391,o),
(293,359,o),
(293,313,cs),
(293,227,o),
(259,92,o),
(192,92,cs)
);
}
);
width = 447;
},
{
anchors = (
{
name = bottom;
pos = (187,0);
},
{
name = center;
pos = (272,375);
},
{
name = top;
pos = (299,530);
}
);
layerId = "1C9FFC3E-B033-49C1-8526-F3CD51FE3A6C";
shapes = (
{
closed = 1;
nodes = (
(401,-10,o),
(455,189,o),
(455,301,cs),
(455,360,o),
(438,403,o),
(407,432,c),
(449,460,o),
(476,508,o),
(492,585,cs),
(528,760,l),
(368,760,l),
(333,589,ls),
(320,523,o),
(306,505,o),
(278,505,cs),
(263,505,o),
(253,522,o),
(253,540,cs),
(253,564,o),
(258,589,o),
(264,616,cs),
(294,760,l),
(134,760,l),
(109,643,ls),
(100,600,o),
(94,559,o),
(94,522,cs),
(94,480,o),
(109,451,o),
(133,432,c),
(49,383,o),
(17,262,o),
(17,172,cs),
(17,58,o),
(93,-10,o),
(208,-10,cs)
);
},
{
closed = 1;
nodes = (
(192,125,o),
(178,154,o),
(178,188,cs),
(178,257,o),
(203,370,o),
(256,370,cs),
(280,370,o),
(294,343,o),
(294,309,cs),
(294,242,o),
(267,125,o),
(217,125,cs)
);
}
);
width = 485;
}
);
script = latin;
subCategory = Lowercase;
unicode = 547;
}
{
category = Letter;
glyphname = Zhook;
layers = (
{
anchors = (
{
name = bottom;
pos = (171,-198);
},
{
name = center;
pos = (281,258);
},
{
name = top;
pos = (365,714);
}
);
layerId = "4ABFEEF6-B0FE-443E-B48D-B4A70A3A2C9A";
shapes = (
{
closed = 1;
nodes = (
(368,-198,o),
(395,-168,o),
(405,-121,cs),
(436,25,l),
(34,25,l),
(567,696,l),
(571,714,l),
(160,714,l),
(155,689,l),
(529,689,l),
(-5,18,l),
(-8,0,l),
(405,0,l),
(380,-115,ls),
(372,-151,o),
(357,-173,o),
(323,-173,cs),
(300,-173,o),
(284,-165,o),
(276,-160,c),
(276,-188,l),
(285,-193,o),
(298,-198,o),
(319,-198,cs)
);
}
);
width = 538;
},
{
anchors = (
{
name = bottom;
pos = (167,-198);
},
{
name = center;
pos = (281,258);
},
{
name = top;
pos = (361,714);
}
);
layerId = "9733853B-DD8E-49B4-939D-1F0D465E8B6E";
shapes = (
{
closed = 1;
nodes = (
(352,-198,o),
(398,-172,o),
(416,-84,cs),
(450,80,l),
(115,80,l),
(560,643,l),
(573,714,l),
(151,714,l),
(134,634,l),
(449,634,l),
(4,70,l),
(-10,0,l),
(356,0,l),
(342,-66,ls),
(333,-108,o),
(316,-123,o),
(286,-123,cs),
(270,-123,o),
(255,-119,o),
(240,-114,c),
(240,-187,l),
(251,-193,o),
(272,-198,o),
(294,-198,cs)
);
}
);
width = 531;
},
{
anchors = (
{
name = bottom;
pos = (161,-230);
},
{
name = center;
pos = (278,242);
},
{
name = top;
pos = (362,714);
}
);
layerId = "FAB9F01D-70CE-4F71-A270-EC67BDAC6531";
shapes = (
{
closed = 1;
nodes = (
(364,-230,o),
(410,-185,o),
(435,-65,cs),
(475,125,l),
(184,125,l),
(566,615,l),
(586,714,l),
(129,714,l),
(103,589,l),
(368,589,l),
(-11,98,l),
(-30,0,l),
(325,0,l),
(311,-64,ls),
(302,-103,o),
(285,-122,o),
(253,-122,cs),
(237,-122,o),
(217,-118,o),
(205,-113,c),
(205,-217,l),
(224,-225,o),
(249,-230,o),
(279,-230,cs)
);
}
);
width = 536;
},
{
anchors = (
{
name = bottom;
pos = (158,-248);
},
{
name = center;
pos = (275,233);
},
{
name = top;
pos = (363,714);
}
);
layerId = "84606D06-D269-45BD-896C-8402F9D7AD38";
shapes = (
{
closed = 1;
nodes = (
(372,-248,o),
(419,-191,o),
(448,-54,cs),
(493,156,l),
(228,156,l),
(570,594,l),
(595,714,l),
(114,714,l),
(81,558,l),
(315,558,l),
(-22,118,l),
(-45,0,l),
(304,0,l),
(290,-63,ls),
(281,-100,o),
(264,-121,o),
(230,-121,cs),
(214,-121,o),
(191,-117,o),
(181,-112,c),
(180,-234,l),
(206,-243,o),
(234,-248,o),
(269,-248,cs)
);
}
);
width = 539;
},
{
anchors = (
{
name = bottom;
pos = (63,-159);
},
{
name = center;
pos = (161,277);
},
{
name = top;
pos = (249,714);
}
);
layerId = "891911EE-97A3-4583-AC34-B57874F49FBA";
shapes = (
{
closed = 1;
nodes = (
(186,-159,o),
(206,-126,o),
(214,-89,cs),
(238,25,l),
(-6,25,l),
(359,689,l),
(364,714,l),
(122,714,l),
(116,688,l),
(329,688,l),
(-37,24,l),
(-42,0,l),
(207,0,l),
(190,-83,ls),
(183,-117,o),
(171,-134,o),
(141,-134,cs),
(125,-134,o),
(114,-131,o),
(103,-126,c),
(103,-152,l),
(113,-156,o),
(125,-159,o),
(142,-159,cs)
);
}
);
width = 305;
},
{
anchors = (
{
name = bottom;
pos = (70,-195);
},
{
name = center;
pos = (178,259);
},
{
name = top;
pos = (263,714);
}
);
layerId = "A849C433-1DA2-4174-AEA9-F403839AA1E5";
shapes = (
{
closed = 1;
nodes = (
(189,-195,o),
(219,-162,o),
(233,-98,cs),
(270,72,l),
(62,72,l),
(384,651,l),
(397,714,l),
(115,714,l),
(100,642,l),
(292,642,l),
(-28,62,l),
(-41,0,l),
(178,0,l),
(161,-79,ls),
(153,-114,o),
(140,-128,o),
(115,-128,cs),
(102,-128,o),
(89,-125,o),
(79,-120,c),
(79,-186,l),
(92,-191,o),
(111,-195,o),
(132,-195,cs)
);
}
);
width = 335;
},
{
anchors = (
{
name = bottom;
pos = (94,-213);
},
{
name = center;
pos = (208,250);
},
{
name = top;
pos = (290,714);
}
);
layerId = "E7382CC2-7CD9-4594-B524-5D480E09B385";
shapes = (
{
closed = 1;
nodes = (
(241,-213,o),
(274,-177,o),
(291,-100,cs),
(335,110,l),
(124,110,l),
(437,623,l),
(456,714,l),
(116,714,l),
(93,605,l),
(291,605,l),
(-21,90,l),
(-39.992,0,l),
(193,0,l),
(180,-63,ls),
(173,-96,o),
(161,-108,o),
(140,-108,cs),
(127,-108,o),
(115,-104,o),
(107,-99,c),
(107,-202,l),
(122,-208,o),
(146,-213,o),
(172,-213,cs)
);
}
);
width = 389;
},
{
anchors = (
{
name = bottom;
pos = (114,-230);
},
{
name = center;
pos = (234,242);
},
{
name = top;
pos = (314,714);
}
);
layerId = "1C9FFC3E-B033-49C1-8526-F3CD51FE3A6C";
shapes = (
{
closed = 1;
nodes = (
(285,-230,o),
(322,-192,o),
(341,-102,cs),
(393,146,l),
(181,146,l),
(484,597,l),
(508,714,l),
(117,714,l),
(87,570,l),
(287,570,l),
(-15,117,l),
(-39,0,l),
(205,0,l),
(195,-49,ls),
(188,-81,o),
(177,-90,o),
(159,-90,cs),
(147,-90,o),
(135,-85,o),
(130,-81,c),
(130,-218,l),
(146,-224,o),
(175,-230,o),
(205,-230,cs)
);
}
);
width = 438;
}
);
script = latin;
subCategory = Uppercase;
unicode = 548;
}
{
category = Letter;
glyphname = Tdiagonalstroke;
layers = (
{
anchors = (
{
name = bottom;
pos = (187,0);
},
{
name = top;
pos = (339,714);
}
);
layerId = "4ABFEEF6-B0FE-443E-B48D-B4A70A3A2C9A";
shapes = (
{
closed = 1;
nodes = (
(-13,-42,l),
(521,793,l),
(495,793,l),
(-41,-42,l)
);
},
{
alignment = -1;
ref = T;
}
);
width = 485;
},
{
anchors = (
{
name = bottom;
pos = (194,0);
},
{
name = top;
pos = (346,714);
}
);
layerId = "9733853B-DD8E-49B4-939D-1F0D465E8B6E";
shapes = (
{
closed = 1;
nodes = (
(22,-33,l),
(599,802,l),
(527,802,l),
(-51,-33,l)
);
},
{
alignment = -1;
ref = T;
}
);
width = 501;
},
{
anchors = (
{
name = bottom;
pos = (208,0);
},
{
name = top;
pos = (360,714);
}
);
layerId = "FAB9F01D-70CE-4F71-A270-EC67BDAC6531";
shapes = (
{
closed = 1;
nodes = (
(59,-44,l),
(616,791,l),
(511,791,l),
(-48,-44,l)
);
},
{
alignment = -1;
ref = T;
}
);
width = 531;
},
{
anchors = (
{
name = bottom;
pos = (217,0);
},
{
name = top;
pos = (369,714);
}
);
layerId = "84606D06-D269-45BD-896C-8402F9D7AD38";
shapes = (
{
closed = 1;
nodes = (
(50,-33,l),
(640,802,l),
(523,802,l),
(-68,-33,l)
);
},
{
alignment = -1;
ref = T;
}
);
width = 552;
},
{
anchors = (
{
name = bottom;
pos = (91,0);
},
{
name = top;
pos = (243,714);
}
);
layerId = "891911EE-97A3-4583-AC34-B57874F49FBA";
shapes = (
{
closed = 1;
nodes = (
(-6,-76,l),
(353,761,l),
(327,761,l),
(-32,-76,l)
);
},
{
alignment = -1;
ref = T;
}
);
width = 294;
},
{
anchors = (
{
name = bottom;
pos = (116,0);
},
{
name = top;
pos = (267,714);
}
);
layerId = "A849C433-1DA2-4174-AEA9-F403839AA1E5";
shapes = (
{
closed = 1;
nodes = (
(8,-42,l),
(412,794,l),
(359,794,l),
(-45,-42,l)
);
},
{
alignment = -1;
ref = T;
}
);
width = 344;
},
{
anchors = (
{
name = bottom;
pos = (138,0);
},
{
name = top;
pos = (290,714);
}
);
layerId = "E7382CC2-7CD9-4594-B524-5D480E09B385";
shapes = (
{
closed = 1;
nodes = (
(12,-38,l),
(447,797,l),
(379,797,l),
(-57,-38,l)
);
},
{
alignment = -1;
ref = T;
}
);
width = 388;
},
{
anchors = (
{
name = bottom;
pos = (159,0);
},
{
name = top;
pos = (310,714);
}
);
layerId = "1C9FFC3E-B033-49C1-8526-F3CD51FE3A6C";
shapes = (
{
closed = 1;
nodes = (
(16,-33,l),
(481,802,l),
(398,802,l),
(-68,-33,l)
);
},
{
alignment = -1;
ref = T;
}
);
width = 429;
}
);
metricWidth = T;
script = latin;
subCategory = Uppercase;
unicode = 574;
}
{
category = Letter;
glyphname = sswashtail;
layers = (
{
anchors = (
{
name = bottom;
pos = (105,-240);
},
{
name = center;
pos = (205,149);
},
{
name = top;
pos = (268,528);
}
);
layerId = "4ABFEEF6-B0FE-443E-B48D-B4A70A3A2C9A";
shapes = (
{
closed = 1;
nodes = (
(276,-240,o),
(296,-233,o),
(307,-228,c),
(307,-203,l),
(291,-210,o),
(274,-215,o),
(250,-215,cs),
(197,-215,o),
(172,-185,o),
(162,-101,cs),
(155,-45,o),
(146,-21,o),
(135,-9,c),
(275,-10,o),
(345,35,o),
(345,144,cs),
(345,220,o),
(280,252,o),
(218,285,cs),
(161,315,o),
(107,343,o),
(107,399,cs),
(107,488,o),
(190,513,o),
(253,513,cs),
(303,513,o),
(356,500,o),
(390,483,c),
(398,507,l),
(363,525,o),
(314,538,o),
(254,538,cs),
(175,538,o),
(80,504,o),
(80,397,cs),
(80,327,o),
(144,294,o),
(206,261,cs),
(263,231,o),
(318,204,o),
(318,143,cs),
(318,60,o),
(270,15,o),
(152,15,cs),
(99,15,o),
(50,32,o),
(12,56,c),
(12,27,l),
(35,13,o),
(67,3,o),
(89,-3,cs),
(119,-11,o),
(128,-34,o),
(137,-106,cs),
(148,-196,o),
(180,-240,o),
(246,-240,cs)
);
}
);
width = 423;
},
{
anchors = (
{
name = bottom;
pos = (108,-240);
},
{
name = center;
pos = (208,153);
},
{
name = top;
pos = (273,536);
}
);
layerId = "9733853B-DD8E-49B4-939D-1F0D465E8B6E";
shapes = (
{
closed = 1;
nodes = (
(264,-240,o),
(291,-233,o),
(306,-226,c),
(306,-154,l),
(288,-161,o),
(265,-167,o),
(243,-167,cs),
(200,-167,o),
(179,-143,o),
(173,-83,cs),
(170,-55,o),
(166,-26,o),
(150,-10,c),
(286,-10,o),
(363,50,o),
(363,155,cs),
(363,230,o),
(313,266,o),
(244,305,cs),
(174,345,o),
(156,364,o),
(156,399,cs),
(156,442,o),
(192,472,o),
(250,472,cs),
(308,472,o),
(349,455,o),
(384,439,c),
(412,509,l),
(372,528,o),
(315,546,o),
(250,546,cs),
(139,546,o),
(68,485,o),
(68,394,cs),
(68,326,o),
(107,286,o),
(183,243,cs),
(252,204,o),
(273,185,o),
(273,146,cs),
(273,96,o),
(231,62,o),
(152,62,cs),
(96,62,o),
(39,84,o),
(5,105,c),
(5,24,l),
(19,15,o),
(32,12,o),
(46,3,cs),
(78,-17,o),
(92,-35,o),
(95,-83,cs),
(102,-192,o),
(141,-240,o),
(235,-240,cs)
);
}
);
width = 432;
},
{
anchors = (
{
name = bottom;
pos = (128,-240);
},
{
name = center;
pos = (232,158);
},
{
name = top;
pos = (295,546);
}
);
layerId = "FAB9F01D-70CE-4F71-A270-EC67BDAC6531";
shapes = (
{
closed = 1;
nodes = (
(281,-240,o),
(309,-235,o),
(331,-227,c),
(331,-113,l),
(313,-118,o),
(297,-122,o),
(277,-122,cs),
(246,-122,o),
(233,-101,o),
(216,-51,cs),
(211,-37,o),
(204,-20,o),
(193,-9,c),
(322,-3,o),
(405,61,o),
(405,180,cs),
(405,254,o),
(357,296,o),
(291,330,cs),
(235,359,o),
(217,374,o),
(217,400,cs),
(217,431,o),
(247,446,o),
(279,446,cs),
(322,446,o),
(366,428,o),
(405,405,c),
(453,510,l),
(397,543,o),
(339,556,o),
(276,556,cs),
(146,556,o),
(68,495,o),
(68,382,cs),
(68,313,o),
(106,276,o),
(174,238,cs),
(241,200,o),
(256,185,o),
(256,158,cs),
(256,118,o),
(213,99,o),
(167,99,cs),
(112,99,o),
(60,115,o),
(11,143,c),
(11,22,l),
(18,18,o),
(25,14,o),
(32,10,cs),
(70,-11,o),
(77,-38,o),
(91,-90,cs),
(117,-184,o),
(151,-240,o),
(250,-240,cs)
);
}
);
width = 473;
},
{
anchors = (
{
name = bottom;
pos = (141,-240);
},
{
name = center;
pos = (248,161);
},
{
name = top;
pos = (310,553);
}
);
layerId = "84606D06-D269-45BD-896C-8402F9D7AD38";
shapes = (
{
closed = 1;
nodes = (
(301,-240,o),
(329,-234,o),
(349,-227,c),
(349,-98,l),
(334,-103,o),
(318,-107,o),
(302,-107,cs),
(267,-107,o),
(255,-89,o),
(241,-57,cs),
(233,-38,o),
(222,-20,o),
(208,-9,c),
(346,-3,o),
(435,65,o),
(435,192,c),
(435,260,o),
(400,311,o),
(325,348,cs),
(279,371,o),
(260,382,o),
(260,401,cs),
(260,423,o),
(274,434,o),
(297,434,cs),
(335,434,o),
(386,412,o),
(423,388,c),
(482,511,l),
(426,546,o),
(367,563,o),
(295,563,cs),
(140,563,o),
(68,492,o),
(68,388,cs),
(68,318,o),
(98,272,o),
(167,234,cs),
(234,197,o),
(243,185,o),
(243,163,cs),
(243,133,o),
(200,129,o),
(177,129,cs),
(124,129,o),
(75,140,o),
(15,173,c),
(15,21,l),
(25,15,o),
(34,11,o),
(44,2,cs),
(66,-18,o),
(74,-39,o),
(91,-90,cs),
(130,-210,o),
(200,-240,o),
(263,-240,cs)
);
}
);
width = 502;
},
{
anchors = (
{
name = bottom;
pos = (29,-240);
},
{
name = center;
pos = (133,148);
},
{
name = top;
pos = (192,526);
}
);
layerId = "891911EE-97A3-4583-AC34-B57874F49FBA";
shapes = (
{
closed = 1;
nodes = (
(155,-240,o),
(169,-235,o),
(176,-232,c),
(176,-206,l),
(167,-211,o),
(153,-215,o),
(138,-215,cs),
(98,-215,o),
(91,-180,o),
(91,-102,cs),
(91,-53,o),
(84,-25,o),
(69,-10,c),
(160,-9,o),
(209,41,o),
(209,135,cs),
(209,197,o),
(182,228,o),
(137,284,cs),
(102,327,o),
(84,361,o),
(84,408,cs),
(84,470,o),
(122,511,o),
(184,511,cs),
(225,511,o),
(250,497,o),
(267,485,c),
(283,508,l),
(262,521,o),
(233,536,o),
(186,536,cs),
(105,536,o),
(57,479,o),
(57,406,cs),
(57,344,o),
(86,305,o),
(119,264,cs),
(161,212,o),
(182,184,o),
(182,134,cs),
(182,58,o),
(149,15,o),
(67,15,cs),
(36,15,o),
(3,29,o),
(-16,43,c),
(-16,12,l),
(-7,6,o),
(10,-1,o),
(28,-5,c),
(55,-18,o),
(65,-40,o),
(65,-103,cs),
(65,-204,o),
(85,-240,o),
(136,-240,cs)
);
}
);
width = 272;
},
{
anchors = (
{
name = bottom;
pos = (51,-240);
},
{
name = center;
pos = (159,153);
},
{
name = top;
pos = (214,529);
}
);
layerId = "A849C433-1DA2-4174-AEA9-F403839AA1E5";
shapes = (
{
closed = 1;
nodes = (
(185,-240,o),
(207,-234,o),
(219,-229,c),
(219,-168,l),
(210,-173,o),
(194,-177,o),
(178,-177,cs),
(141,-177,o),
(135,-152,o),
(133,-79,cs),
(132,-41,o),
(125,-19,o),
(111,-9,c),
(206,-3,o),
(259,59,o),
(259,155,cs),
(259,222,o),
(237,251,o),
(184,306,cs),
(144,346,o),
(134,369,o),
(134,405,cs),
(134,450,o),
(163,480,o),
(209,480,cs),
(239,480,o),
(270,469,o),
(295,449,c),
(329,511,l),
(300,532,o),
(258,546,o),
(207,546,cs),
(112,546,o),
(55,479,o),
(55,394,cs),
(55,337,o),
(78,299,o),
(122,255,cs),
(167,208,o),
(178,185,o),
(178,147,cs),
(178,90,o),
(146,59,o),
(90,59,cs),
(56,59,o),
(13,75,o),
(-11,94,c),
(-11,15,l),
(-5,11,o),
(9,6,o),
(17,4,c),
(42,-8,o),
(60,-28,o),
(64,-93,cs),
(69,-194,o),
(86,-240,o),
(162,-240,cs)
);
}
);
width = 316;
},
{
anchors = (
{
name = bottom;
pos = (70,-240);
},
{
name = center;
pos = (181,157);
},
{
name = top;
pos = (233,530);
}
);
layerId = "E7382CC2-7CD9-4594-B524-5D480E09B385";
shapes = (
{
closed = 1;
nodes = (
(212,-240,o),
(241,-234,o),
(255,-228,c),
(255,-137,l),
(247,-141,o),
(233,-145,o),
(216,-145,cs),
(181,-145,o),
(174,-118,o),
(169,-61,cs),
(167,-33,o),
(161,-17,o),
(152,-7,c),
(248,5,o),
(303,77,o),
(303,169,cs),
(303,243,o),
(278,276,o),
(228,322,cs),
(185,360,o),
(178,377,o),
(178,404,cs),
(178,436,o),
(198,456,o),
(230,456,cs),
(254,456,o),
(291,445,o),
(320,421,c),
(368,513,l),
(333,538,o),
(281,555,o),
(224,555,cs),
(114,555,o),
(55,480,o),
(55,386,cs),
(55,335,o),
(71,294,o),
(123,247,cs),
(167,206,o),
(176,184,o),
(176,157,cs),
(176,116,o),
(148,95,o),
(107,95,cs),
(73,95,o),
(26,110,o),
(-6,134,c),
(-6,19,l),
(-1,16,o),
(8,12,o),
(14,10,c),
(41,-4,o),
(55,-26,o),
(64,-90,cs),
(76,-183,o),
(91,-240,o),
(186,-240,cs)
);
}
);
width = 353;
},
{
anchors = (
{
name = bottom;
pos = (87,-240);
},
{
name = center;
pos = (200,161);
},
{
name = top;
pos = (250,530);
}
);
layerId = "1C9FFC3E-B033-49C1-8526-F3CD51FE3A6C";
shapes = (
{
closed = 1;
nodes = (
(236,-240,o),
(271,-234,o),
(289,-227,c),
(289,-108,l),
(281,-111,o),
(269,-116,o),
(250,-116,cs),
(217,-116,o),
(209,-87,o),
(202,-45,cs),
(199,-26,o),
(195,-14,o),
(189,-6,c),
(287,13,o),
(343,93,o),
(343,183,c),
(343,262,o),
(316,298,o),
(268,337,cs),
(222,373,o),
(219,384,o),
(219,403,cs),
(219,423,o),
(230,434,o),
(249,434,cs),
(268,434,o),
(309,423,o),
(342,394,c),
(403,515,l),
(364,543,o),
(302,563,o),
(239,563,cs),
(116,563,o),
(54,481,o),
(54,379,cs),
(54,333,o),
(63,289,o),
(123,240,cs),
(167,204,o),
(173,183,o),
(173,166,cs),
(173,141,o),
(150,129,o),
(123,129,cs),
(88,129,o),
(38,144,o),
(-2,171,c),
(-2,23,l),
(2,20,o),
(7,18,o),
(10,16,c),
(39,0,o),
(50,-24,o),
(63,-87,cs),
(81,-174,o),
(95,-240,o),
(209,-240,cs)
);
}
);
width = 387;
}
);
script = latin;
subCategory = Lowercase;
unicode = 575;
}
{
category = Letter;
glyphname = zswashtail;
layers = (
{
anchors = (
{
name = bottom;
pos = (100,-240);
},
{
name = center;
pos = (211,144);
},
{
name = top;
pos = (263,528);
}
);
layerId = "4ABFEEF6-B0FE-443E-B48D-B4A70A3A2C9A";
shapes = (
{
closed = 1;
nodes = (
(264,-240,o),
(286,-233,o),
(297,-228,c),
(297,-203,l),
(281,-210,o),
(262,-215,o),
(238,-215,cs),
(180,-215,o),
(155,-185,o),
(142,-101,cs),
(129,-20,o),
(105,25,o),
(28,25,c),
(433,513,l),
(436,528,l),
(114,528,l),
(108,503,l),
(391,503,l),
(-11,17,l),
(-14,0,l),
(19,0,ls),
(87,0,o),
(105,-35,o),
(116,-107,cs),
(130,-197,o),
(163,-240,o),
(234,-240,cs)
);
}
);
width = 414;
},
{
anchors = (
{
name = bottom;
pos = (108,-240);
},
{
name = center;
pos = (212,148);
},
{
name = top;
pos = (273,536);
}
);
layerId = "9733853B-DD8E-49B4-939D-1F0D465E8B6E";
shapes = (
{
closed = 1;
nodes = (
(282,-240,o),
(309,-233,o),
(325,-226,c),
(325,-153,l),
(306,-160,o),
(287,-167,o),
(263,-167,cs),
(216,-167,o),
(198,-142,o),
(191,-83,cs),
(181,3,o),
(157,45,o),
(96,64,c),
(425,465,l),
(439,536,l),
(114,536,l),
(100,470,l),
(330,470,l),
(-3,60,l),
(-15,0,l),
(22,0,ls),
(82,0,o),
(103,-25,o),
(108,-83,cs),
(117,-187,o),
(151,-240,o),
(251,-240,cs)
);
}
);
width = 432;
},
{
anchors = (
{
name = bottom;
pos = (119,-240);
},
{
name = center;
pos = (224,153);
},
{
name = top;
pos = (286,546);
}
);
layerId = "FAB9F01D-70CE-4F71-A270-EC67BDAC6531";
shapes = (
{
closed = 1;
nodes = (
(316,-240,o),
(348,-235,o),
(370,-226,c),
(370,-113,l),
(350,-119,o),
(332,-122,o),
(314,-122,cs),
(274,-122,o),
(263,-93,o),
(234,-22,cs),
(210,37,o),
(186,69,o),
(150,85,c),
(451,448,l),
(472,546,l),
(106,546,l),
(81,432,l),
(275,432,l),
(-6,88,l),
(-23,0,l),
(12,0,l),
(75,0,o),
(89,-31,o),
(109,-88,cs),
(146,-192,o),
(187,-240,o),
(281,-240,cs)
);
}
);
width = 455;
},
{
anchors = (
{
name = bottom;
pos = (133,-240);
},
{
name = center;
pos = (242,156);
},
{
name = top;
pos = (302,553);
}
);
layerId = "84606D06-D269-45BD-896C-8402F9D7AD38";
shapes = (
{
closed = 1;
nodes = (
(348,-240,o),
(380,-235,o),
(402,-226,c),
(401,-90,l),
(386,-96,o),
(373,-99,o),
(360,-99,cs),
(316,-99,o),
(308,-66,o),
(273,0,cs),
(245,53,o),
(224,77,o),
(188,90,c),
(479,435,l),
(505,553,l),
(109,553,l),
(76,407,l),
(246,407,l),
(1,108,l),
(-20,0,l),
(-1,0,l),
(79,0,o),
(97,-30,o),
(122,-88,cs),
(166,-190,o),
(209,-240,o),
(313,-240,cs)
);
}
);
width = 485;
},
{
anchors = (
{
name = bottom;
pos = (-2,-240);
},
{
name = center;
pos = (114,143);
},
{
name = top;
pos = (161,526);
}
);
layerId = "891911EE-97A3-4583-AC34-B57874F49FBA";
shapes = (
{
closed = 1;
nodes = (
(122,-240,o),
(134,-237,o),
(143,-232,c),
(143,-206,l),
(133,-211,o),
(122,-214,o),
(110,-214,cs),
(70,-214,o),
(61,-180,o),
(61,-102,cs),
(61,-20,o),
(39,11,o),
(-2,22,c),
(257,502,l),
(262,526,l),
(93,526,l),
(88,501,l),
(230,501,l),
(-28,24,l),
(-33,0,l),
(-23,0,ls),
(12,0,o),
(35,-26,o),
(35,-104,cs),
(35,-194,o),
(49,-240,o),
(108,-240,cs)
);
}
);
width = 210;
},
{
anchors = (
{
name = bottom;
pos = (33,-240);
},
{
name = center;
pos = (138,148);
},
{
name = top;
pos = (196,529);
}
);
layerId = "A849C433-1DA2-4174-AEA9-F403839AA1E5";
shapes = (
{
closed = 1;
nodes = (
(177,-240,o),
(198,-235,o),
(210,-230,c),
(210,-168,l),
(201,-173,o),
(185,-177,o),
(171,-177,cs),
(139,-177,o),
(125,-152,o),
(123,-73,cs),
(120,0,o),
(100,42,o),
(58,56,c),
(301,481,l),
(313,536,l),
(87,536,l),
(73,470,l),
(213,470,l),
(-25,52,l),
(-36,0,l),
(-17,0,ls),
(21,0,o),
(49,-19,o),
(53,-100,cs),
(57,-199,o),
(82,-240,o),
(157,-240,cs)
);
}
);
width = 279;
},
{
anchors = (
{
name = bottom;
pos = (62,-240);
},
{
name = center;
pos = (166,152);
},
{
name = top;
pos = (225,530);
}
);
layerId = "E7382CC2-7CD9-4594-B524-5D480E09B385";
shapes = (
{
closed = 1;
nodes = (
(223,-240,o),
(252,-235,o),
(267,-228,c),
(267,-137,l),
(258,-141,o),
(245,-145,o),
(228,-145,cs),
(195,-145,o),
(180,-118,o),
(175,-48,cs),
(170,20,o),
(151,61,o),
(108,81,c),
(354,464,l),
(371,545,l),
(87,545,l),
(65,443,l),
(213,443,l),
(-23,74,l),
(-39,0,l),
(-14,0,ls),
(27,0,o),
(60,-22,o),
(69,-105,cs),
(78,-198,o),
(112,-240,o),
(204,-240,cs)
);
}
);
width = 337;
},
{
anchors = (
{
name = bottom;
pos = (89,-240);
},
{
name = center;
pos = (191,156);
},
{
name = top;
pos = (252,530);
}
);
layerId = "1C9FFC3E-B033-49C1-8526-F3CD51FE3A6C";
shapes = (
{
closed = 1;
nodes = (
(266,-240,o),
(301,-234,o),
(319,-227,c),
(319,-108,l),
(311,-111,o),
(299,-116,o),
(280,-116,cs),
(247,-116,o),
(230,-87,o),
(223,-25,cs),
(216,38,o),
(197,80,o),
(154,105,c),
(402,449,l),
(424,553,l),
(85,553,l),
(56,418,l),
(212,418,l),
(-22,95,l),
(-42,0,l),
(-11,0,ls),
(32,0,o),
(70,-24,o),
(83,-110,cs),
(96,-198,o),
(139,-240,o),
(247,-240,cs)
);
}
);
width = 391;
}
);
script = latin;
subCategory = Lowercase;
unicode = 576;
}
{
category = Letter;
glyphname = Bstroke;
layers = (
{
anchors = (
{
name = bottom;
pos = (234,0);
},
{
name = center;
pos = (301,357);
},
{
name = top;
pos = (386,714);
}
);
layerId = "4ABFEEF6-B0FE-443E-B48D-B4A70A3A2C9A";
shapes = (
{
closed = 1;
nodes = (
(240,0,ls),
(404,0,o),
(528,68,o),
(528,223,cs),
(528,303,o),
(488,356,o),
(409,374,c),
(410,376,l),
(516,394,o),
(580,464,o),
(580,571,cs),
(580,659,o),
(521,714,o),
(382,714,cs),
(201,714,l),
(95,214,l),
(27,214,l),
(22,189,l),
(90,189,l),
(50,0,l)
);
},
{
closed = 1;
nodes = (
(82,25,l),
(117,189,l),
(255,189,l),
(260,214,l),
(122,214,l),
(154,363,l),
(314,363,ls),
(428,363,o),
(501,324,o),
(501,223,cs),
(501,81,o),
(385,25,o),
(252,25,cs)
);
},
{
closed = 1;
nodes = (
(159,388,l),
(223,689,l),
(376,689,ls),
(495,689,o),
(553,649,o),
(553,571,cs),
(553,444,o),
(459,388,o),
(322,388,cs)
);
}
);
width = 580;
},
{
anchors = (
{
name = bottom;
pos = (243,0);
},
{
name = center;
pos = (295,357);
},
{
name = top;
pos = (395,714);
}
);
layerId = "9733853B-DD8E-49B4-939D-1F0D465E8B6E";
shapes = (
{
closed = 1;
nodes = (
(269,0,ls),
(428,0,o),
(543,76,o),
(543,222,cs),
(543,302,o),
(493,349,o),
(428,367,c),
(428,372,l),
(525,390,o),
(589,453,o),
(589,550,cs),
(589,664,o),
(509,714,o),
(377,714,cs),
(192,714,l),
(93,249,l),
(18,249,l),
(2,171,l),
(77,171,l),
(41,0,l)
);
},
{
closed = 1;
nodes = (
(146,76,l),
(166,171,l),
(303,171,l),
(319,249,l),
(182,249,l),
(201,336,l),
(313,336,ls),
(412,336,o),
(449,286,o),
(449,222,cs),
(449,129,o),
(385,76,o),
(272,76,cs)
);
},
{
closed = 1;
nodes = (
(217,410,l),
(265,637,l),
(366,637,ls),
(459,637,o),
(496,602,o),
(496,539,cs),
(496,451,o),
(423,410,o),
(334,410,cs)
);
}
);
width = 600;
},
{
anchors = (
{
name = bottom;
pos = (252,0);
},
{
name = center;
pos = (299,357);
},
{
name = top;
pos = (404,714);
}
);
layerId = "FAB9F01D-70CE-4F71-A270-EC67BDAC6531";
shapes = (
{
closed = 1;
nodes = (
(281,0,ls),
(440,0,o),
(562,71,o),
(562,233,cs),
(562,304,o),
(520,351,o),
(455,368,c),
(455,372,l),
(554,393,o),
(611,458,o),
(611,555,cs),
(611,669,o),
(521,714,o),
(385,714,cs),
(177,714,l),
(83,267,l),
(7,267,l),
(-13,170,l),
(62,170,l),
(26,0,l)
);
},
{
closed = 1;
nodes = (
(201,125,l),
(210,170,l),
(321,170,l),
(341,267,l),
(231,267,l),
(241,311,l),
(322,311,ls),
(382,311,o),
(411,282,o),
(411,232,cs),
(411,162,o),
(362,125,o),
(289,125,cs)
);
},
{
closed = 1;
nodes = (
(266,431,l),
(300,590,l),
(374,590,ls),
(430,590,o),
(457,567,o),
(457,523,cs),
(457,458,o),
(410,431,o),
(339,431,cs)
);
}
);
width = 620;
},
{
anchors = (
{
name = bottom;
pos = (258,0);
},
{
name = center;
pos = (300,357);
},
{
name = top;
pos = (410,714);
}
);
layerId = "84606D06-D269-45BD-896C-8402F9D7AD38";
shapes = (
{
closed = 1;
nodes = (
(283,0,ls),
(442,0,o),
(569,67,o),
(569,234,cs),
(569,302,o),
(532,351,o),
(475,370,c),
(475,374,l),
(568,402,o),
(620,461,o),
(620,558,cs),
(620,649,o),
(558,714,o),
(405,714,cs),
(167,714,l),
(74,274,l),
(0,274,l),
(-19,186,l),
(55,186,l),
(16,0,l)
);
},
{
closed = 1;
nodes = (
(227,139,l),
(238,186,l),
(328,186,l),
(347,274,l),
(258,274,l),
(268,319,l),
(311,319,ls),
(373,319,o),
(392,289,o),
(392,247,cs),
(392,184,o),
(343,139,o),
(277,139,cs)
);
},
{
closed = 1;
nodes = (
(288,430,l),
(321,578,l),
(362,578,ls),
(413,578,o),
(438,560,o),
(438,524,cs),
(438,470,o),
(415,430,o),
(333,430,cs)
);
}
);
width = 634;
},
{
anchors = (
{
name = bottom;
pos = (133,0);
},
{
name = center;
pos = (182,357);
},
{
name = top;
pos = (285,714);
}
);
layerId = "891911EE-97A3-4583-AC34-B57874F49FBA";
shapes = (
{
closed = 1;
nodes = (
(110,0,ls),
(255,0,o),
(321,109,o),
(321,242,cs),
(321,316,o),
(286,361,o),
(236,372,c),
(236,374,l),
(334,395,o),
(378,491,o),
(378,584,cs),
(378,662,o),
(338,714,o),
(247,714,cs),
(154,714,l),
(49,214,l),
(-7,214,l),
(-13,189,l),
(44,189,l),
(4,0,l)
);
},
{
closed = 1;
nodes = (
(35,25,l),
(70,189,l),
(187,189,l),
(193,214,l),
(75,214,l),
(107,363,l),
(171,363,ls),
(244,363,o),
(294,331,o),
(294,239,cs),
(294,135,o),
(248,25,o),
(111,25,cs)
);
},
{
closed = 1;
nodes = (
(112,388,l),
(175,689,l),
(242,689,ls),
(317,689,o),
(351,651,o),
(351,582,cs),
(351,491,o),
(305,388,o),
(180,388,cs)
);
}
);
width = 377;
},
{
anchors = (
{
name = bottom;
pos = (160,0);
},
{
name = center;
pos = (217,357);
},
{
name = top;
pos = (311,714);
}
);
layerId = "A849C433-1DA2-4174-AEA9-F403839AA1E5";
shapes = (
{
closed = 1;
nodes = (
(157,0,ls),
(296.001,0,o),
(380,108,o),
(380,246,cs),
(380,304,o),
(354,358,o),
(301,374,c),
(302,377,l),
(397,402,o),
(437,488,o),
(437,579,cs),
(437,669,o),
(367,714,o),
(283,714,cs),
(151,714,l),
(50,238,l),
(10,238,l),
(-3,179,l),
(38,179,l),
(0,0,l)
);
},
{
closed = 1;
nodes = (
(94,66,l),
(118,179,l),
(210,179,l),
(223,238,l),
(131,238,l),
(153,344,l),
(214,344,ls),
(266,344,o),
(297,312,o),
(297,243,cs),
(297,145,o),
(254,66,o),
(157,66,cs)
);
},
{
closed = 1;
nodes = (
(166,407,l),
(216,644,l),
(267,644,ls),
(325,644,o),
(352,617,o),
(352,563,cs),
(352,480,o),
(305,407,o),
(223,407,cs)
);
}
);
width = 431;
},
{
anchors = (
{
name = bottom;
pos = (182,0);
},
{
name = center;
pos = (236,357);
},
{
name = top;
pos = (333,714);
}
);
layerId = "E7382CC2-7CD9-4594-B524-5D480E09B385";
shapes = (
{
closed = 1;
nodes = (
(190,0,ls),
(333,0,o),
(428,112,o),
(428,251,cs),
(428,306,o),
(402,357,o),
(352,374,c),
(353,378,l),
(444,407,o),
(485,487,o),
(485,576,cs),
(485,676,o),
(398,714,o),
(312,714,cs),
(148,714,l),
(51,258,l),
(5,258,l),
(-13,175,l),
(34,175,l),
(-3,0,l)
);
},
{
closed = 1;
nodes = (
(143,96,l),
(160,175,l),
(230,175,l),
(247,258,l),
(178,258,l),
(193,332,l),
(238,332,ls),
(279,332,o),
(299,309,o),
(299,247,cs),
(299,163,o),
(265,96,o),
(190,96,cs)
);
},
{
closed = 1;
nodes = (
(212,422,l),
(252,609,l),
(289,609,ls),
(332,609,o),
(353,588,o),
(353,547,cs),
(353,483,o),
(316,422,o),
(253,422,cs)
);
}
);
width = 475;
},
{
anchors = (
{
name = bottom;
pos = (203,0);
},
{
name = center;
pos = (255,357);
},
{
name = top;
pos = (354,714);
}
);
layerId = "1C9FFC3E-B033-49C1-8526-F3CD51FE3A6C";
shapes = (
{
closed = 1;
nodes = (
(223,0,ls),
(368,0,o),
(473,116,o),
(473,256,cs),
(473,307,o),
(449,355,o),
(401,374,c),
(402,379,l),
(489,411,o),
(530,486,o),
(530,573,cs),
(530,682,o),
(428,714,o),
(340,714,cs),
(146,714,l),
(53,276,l),
(3,276,l),
(-20,171,l),
(31,171,l),
(-5,0,l)
);
},
{
closed = 1;
nodes = (
(188,124,l),
(198,171,l),
(247,171,l),
(269,276,l),
(221,276,l),
(230,320,l),
(261,320,ls),
(290,320,o),
(301,305,o),
(301,250,cs),
(301,179,o),
(274,124,o),
(221,124,cs)
);
},
{
closed = 1;
nodes = (
(254,436,l),
(284,576,l),
(308,576,ls),
(338,576,o),
(353,561,o),
(353,532,cs),
(353,485,o),
(325,436,o),
(281,436,cs)
);
}
);
width = 517;
}
);
script = latin;
subCategory = Uppercase;
unicode = 579;
}
{
category = Letter;
glyphname = rstroke;
layers = (
{
anchors = (
{
name = bottom;
pos = (129,0);
},
{
name = center;
pos = (202,268);
},
{
name = top;
pos = (241,528);
}
);
layerId = "4ABFEEF6-B0FE-443E-B48D-B4A70A3A2C9A";
shapes = (
{
closed = 1;
nodes = (
(58,0,l),
(111,251,l),
(237,251,l),
(243,276,l),
(116,276,l),
(148,407,o),
(245,511,o),
(336,511,cs),
(358,511,o),
(376,508,o),
(389,504,c),
(395,528,l),
(379,533,o),
(358,536,o),
(336,536,cs),
(243,536,o),
(171,447,o),
(140,389,c),
(138,389,l),
(166,528,l),
(144,528,l),
(91,276,l),
(16,276,l),
(10,251,l),
(85,251,l),
(32,0,l)
);
}
);
width = 370;
},
{
anchors = (
{
name = bottom;
pos = (142,0);
},
{
name = center;
pos = (220,273);
},
{
name = top;
pos = (256,536);
}
);
layerId = "9733853B-DD8E-49B4-939D-1F0D465E8B6E";
shapes = (
{
closed = 1;
nodes = (
(116,0,l),
(169,248,l),
(287,248,l),
(302,319,l),
(190,319,l),
(222,399,o),
(281,466,o),
(359,466,cs),
(376,466,o),
(392,464,o),
(410,460,c),
(429,539,l),
(411,544,o),
(390,546,o),
(371,546,cs),
(295,546,o),
(250,492,o),
(208,437,c),
(203,437,l),
(214,536,l),
(142,536,l),
(96,319,l),
(26,319,l),
(11,248,l),
(81,248,l),
(28,0,l)
);
}
);
width = 398;
},
{
anchors = (
{
name = bottom;
pos = (153,0);
},
{
name = center;
pos = (224,278);
},
{
name = top;
pos = (269,546);
}
);
layerId = "FAB9F01D-70CE-4F71-A270-EC67BDAC6531";
shapes = (
{
closed = 1;
nodes = (
(165,0,l),
(212,222,l),
(316,222,l),
(336,319,l),
(242,319,l),
(275,388,o),
(325,417,o),
(377,417,cs),
(397,417,o),
(415,413,o),
(426,409,c),
(458,551,l),
(447,554,o),
(427,556,o),
(411,556,cs),
(340,556,o),
(285,514,o),
(241,445,c),
(236,445,l),
(246,546,l),
(134,546,l),
(86,319,l),
(10,319,l),
(-10,222,l),
(65,222,l),
(18,0,l)
);
}
);
width = 421;
},
{
anchors = (
{
name = bottom;
pos = (160,0);
},
{
name = center;
pos = (228,281);
},
{
name = top;
pos = (278,553);
}
);
layerId = "84606D06-D269-45BD-896C-8402F9D7AD38";
shapes = (
{
closed = 1;
nodes = (
(200,0,l),
(244,207,l),
(338,207,l),
(361,319,l),
(278,319,l),
(302,366,o),
(336,383,o),
(378,383,cs),
(402,383,o),
(424,378,o),
(438,372,c),
(479,559,l),
(473,561,o),
(454,563,o),
(440,563,cs),
(365,563,o),
(320,539,o),
(274,461,c),
(270,461,l),
(279,553,l),
(128,553,l),
(78,319,l),
(1,319,l),
(-23,207,l),
(55,207,l),
(11,0,l)
);
}
);
width = 437;
},
{
anchors = (
{
name = bottom;
pos = (57,0);
},
{
name = center;
pos = (140,268);
},
{
name = top;
pos = (169,526);
}
);
layerId = "891911EE-97A3-4583-AC34-B57874F49FBA";
shapes = (
{
closed = 1;
nodes = (
(32,0,l),
(89,267,l),
(180,267,l),
(185,292,l),
(94,292,l),
(116,390,o),
(154,511,o),
(242,511,cs),
(254,511,o),
(264,509,o),
(271,506,c),
(277,530,l),
(270,533,o),
(258,536,o),
(242,536,cs),
(189,536,o),
(149,498,o),
(123,437,c),
(121,437,l),
(138,526,l),
(117,526,l),
(68,292,l),
(8,292,l),
(3,267,l),
(62,267,l),
(6,0,l)
);
}
);
width = 226;
},
{
anchors = (
{
name = bottom;
pos = (81,0);
},
{
name = center;
pos = (160,273);
},
{
name = top;
pos = (193,529);
}
);
layerId = "A849C433-1DA2-4174-AEA9-F403839AA1E5";
shapes = (
{
closed = 1;
nodes = (
(77,0,l),
(129,247,l),
(222,247,l),
(235,308,l),
(144,308,l),
(162,383,o),
(202,465,o),
(263,465,cs),
(276,465,o),
(288,463,o),
(299,458,c),
(322,540,l),
(309,544,o),
(297,546,o),
(284,546,cs),
(232,546,o),
(195,514,o),
(164,448,c),
(162,448,l),
(173,536,l),
(113,536,l),
(65,308,l),
(11,308,l),
(-2,247,l),
(52,247,l),
(-0.005,0,l)
);
}
);
width = 274;
},
{
anchors = (
{
name = bottom;
pos = (101,0);
},
{
name = center;
pos = (178,277);
},
{
name = top;
pos = (213,530);
}
);
layerId = "E7382CC2-7CD9-4594-B524-5D480E09B385";
shapes = (
{
closed = 1;
nodes = (
(113,0,l),
(162,232,l),
(258,232,l),
(277,321,l),
(186,321,l),
(203,374,o),
(236,426,o),
(285,426,cs),
(301,426,o),
(315,423,o),
(328,418,c),
(364,548,l),
(348,553,o),
(336,555,o),
(323,555,cs),
(268,555,o),
(233,526,o),
(200,461,c),
(196,461,l),
(203,545,l),
(109,545,l),
(61,321,l),
(13,321,l),
(-6,232,l),
(43,232,l),
(-7,0,l)
);
}
);
width = 315;
},
{
anchors = (
{
name = bottom;
pos = (120,0);
},
{
name = center;
pos = (196,281);
},
{
name = top;
pos = (232,530);
}
);
layerId = "1C9FFC3E-B033-49C1-8526-F3CD51FE3A6C";
shapes = (
{
closed = 1;
nodes = (
(148,0,l),
(193,217,l),
(292,217,l),
(317,333,l),
(225,333,l),
(242,366,o),
(268,389,o),
(305,389,cs),
(323,389,o),
(339,386,o),
(354,380,c),
(404,556,l),
(384,562,o),
(372,563,o),
(359,563,cs),
(302,563,o),
(269,537,o),
(233,473,c),
(229,473,l),
(231,553,l),
(105,553,l),
(58,333,l),
(16,333,l),
(-9,217,l),
(34,217,l),
(-12,0,l)
);
}
);
width = 352;
}
);
script = latin;
subCategory = Lowercase;
unicode = 589;
}
{
category = Letter;
glyphname = eopenreversedhook;
layers = (
{
anchors = (
{
name = bottom;
pos = (52,-11);
},
{
name = top;
pos = (145,536);
}
);
layerId = "891911EE-97A3-4583-AC34-B57874F49FBA";
shapes = (
{
closed = 1;
nodes = (
(354,302,o),
(373,310,o),
(389,320,c),
(380,341,l),
(367,334,o),
(354,327,o),
(337,327,cs),
(307,327,o),
(292,350,o),
(284,429,cs),
(280,467,l),
(213,435,l),
(223,413,l),
(259,431,l),
(268,340,o),
(287,302,o),
(334,302,cs)
);
},
{
alignment = -1;
ref = "ze-cy";
}
);
width = 356;
},
{
anchors = (
{
name = bottom;
pos = (139,-10);
},
{
name = top;
pos = (235,538);
}
);
layerId = "4ABFEEF6-B0FE-443E-B48D-B4A70A3A2C9A";
shapes = (
{
closed = 1;
nodes = (
(512,295,o),
(537,301,o),
(561,312,c),
(561,338,l),
(535,326,o),
(511,320,o),
(490,320,cs),
(456,320,o),
(447,350,o),
(447,422,cs),
(447,466,l),
(361,443,l),
(361,417,l),
(421,435,l),
(421,345,o),
(432,295,o),
(491,295,cs)
);
},
{
alignment = -1;
ref = "ze-cy";
}
);
width = 558;
},
{
anchors = (
{
name = bottom;
pos = (190,-10);
},
{
name = top;
pos = (297,556);
}
);
layerId = "FAB9F01D-70CE-4F71-A270-EC67BDAC6531";
shapes = (
{
closed = 1;
nodes = (
(692,259,o),
(731,276,o),
(765,300,c),
(727,383,l),
(710,371,o),
(692,361,o),
(668,361,cs),
(638,361,o),
(624,385,o),
(624,446,cs),
(624,497,l),
(410,443,l),
(414,349,l),
(527,376,l),
(537,294,o),
(582,259,o),
(645,259,cs)
);
},
{
alignment = -1;
ref = "ze-cy";
}
);
width = 743;
},
{
anchors = (
{
name = bottom;
pos = (119,-10);
},
{
name = top;
pos = (212,555);
}
);
layerId = "E7382CC2-7CD9-4594-B524-5D480E09B385";
shapes = (
{
closed = 1;
nodes = (
(503,254,o),
(534,269,o),
(558,290,c),
(533,357,l),
(518,346,o),
(506,341,o),
(485,341,cs),
(461,341,o),
(451,360,o),
(445,431,cs),
(441,477,l),
(288,424,l),
(301,345,l),
(374,372,l),
(385,291,o),
(413,254,o),
(468,254,cs)
);
},
{
alignment = -1;
ref = "ze-cy";
}
);
width = 536;
},
{
anchors = (
{
name = bottom;
pos = (153,-10);
},
{
name = top;
pos = (258,546);
}
);
layerId = "9733853B-DD8E-49B4-939D-1F0D465E8B6E";
shapes = (
{
closed = 1;
nodes = (
(594,263,o),
(632,278,o),
(666,301,c),
(638,363,l),
(613,349,o),
(594,340,o),
(567,340,cs),
(537,340,o),
(523,362,o),
(518,418,cs),
(513,478,l),
(347,436,l),
(351,368,l),
(443,390,l),
(452,297,o),
(491,263,o),
(552,263,cs)
);
},
{
alignment = -1;
ref = "ze-cy";
}
);
width = 650;
},
{
anchors = (
{
name = bottom;
pos = (91,-10);
},
{
name = top;
pos = (182,546);
}
);
layerId = "A849C433-1DA2-4174-AEA9-F403839AA1E5";
shapes = (
{
closed = 1;
nodes = (
(432,275,o),
(458,287,o),
(479,304,c),
(462,349,l),
(448,339,o),
(434,332,o),
(415,332,cs),
(389,332,o),
(379,352,o),
(373,424,cs),
(369,471,l),
(250,425,l),
(260,373,l),
(322,397,l),
(331,313,o),
(352,275,o),
(404,275,cs)
);
},
{
alignment = -1;
ref = "ze-cy";
}
);
width = 454;
},
{
anchors = (
{
name = bottom;
pos = (145,-10);
},
{
name = top;
pos = (240,563);
}
);
layerId = "1C9FFC3E-B033-49C1-8526-F3CD51FE3A6C";
shapes = (
{
closed = 1;
nodes = (
(560,240,o),
(596,258,o),
(623,283,c),
(590,371,l),
(575,359,o),
(563,354,o),
(541,354,cs),
(519,354,o),
(511,373,o),
(504,442,c),
(499,488,l),
(315,429,l),
(330,325,l),
(414,353,l),
(426,277,o),
(460,240,o),
(519,240,cs)
);
},
{
alignment = -1;
ref = "ze-cy";
}
);
width = 606;
},
{
anchors = (
{
name = bottom;
pos = (224,-10);
},
{
name = top;
pos = (325,563);
}
);
layerId = "84606D06-D269-45BD-896C-8402F9D7AD38";
shapes = (
{
closed = 1;
nodes = (
(739,251,o),
(779,270,o),
(813,294,c),
(768,389,l),
(756,378,o),
(739,368,o),
(717,368,cs),
(687,368,o),
(673,393,o),
(677,457,cs),
(680,503,l),
(428,439,l),
(432,330,l),
(564,363,l),
(575,287,o),
(624,251,o),
(688,251,cs)
);
},
{
alignment = -1;
ref = "ze-cy";
}
);
width = 802;
}
);
metricRight = rhotichookmod;
script = latin;
subCategory = Lowercase;
unicode = 605;
}
{
category = Letter;
glyphname = jdotlessstroke;
layers = (
{
anchors = (
{
name = bottom;
pos = (-3,-240);
},
{
name = center;
pos = (22,144);
},
{
name = top;
pos = (160,528);
},
{
name = topright;
pos = (228,528);
}
);
layerId = "4ABFEEF6-B0FE-443E-B48D-B4A70A3A2C9A";
shapes = (
{
closed = 1;
nodes = (
(-21,-240,o),
(16,-201,o),
(33,-119,cs),
(112,255,l),
(181,255,l),
(187,280,l),
(117,280,l),
(170,528,l),
(144,528,l),
(92,280,l),
(21,280,l),
(16,255,l),
(86,255,l),
(8,-115,ls),
(-5,-178,o),
(-31,-215,o),
(-86,-215,cs),
(-102,-215,o),
(-126,-212,o),
(-142,-204,c),
(-142,-230,l),
(-129,-235,o),
(-104,-240,o),
(-86,-240,cs)
);
}
);
width = 207;
},
{
anchors = (
{
name = bottom;
pos = (21,-240);
},
{
name = center;
pos = (63,148);
},
{
name = top;
pos = (186,536);
},
{
name = topright;
pos = (262,536);
}
);
layerId = "9733853B-DD8E-49B4-939D-1F0D465E8B6E";
shapes = (
{
closed = 1;
nodes = (
(35,-240,o),
(78,-177,o),
(99,-77,cs),
(168,248,l),
(237,248,l),
(252,319,l),
(183,319,l),
(229,536,l),
(142,536,l),
(96,319,l),
(27,319,l),
(12,248,l),
(81,248,l),
(14,-69,ls),
(0,-135,o),
(-28,-167,o),
(-68,-167,cs),
(-90,-167,o),
(-110,-162,o),
(-126,-156,c),
(-126,-230,l),
(-111,-236,o),
(-89,-240,o),
(-64,-240,cs)
);
}
);
width = 258;
},
{
anchors = (
{
name = bottom;
pos = (40,-240);
},
{
name = center;
pos = (90,153);
},
{
name = top;
pos = (207,546);
},
{
name = topright;
pos = (311,546);
}
);
layerId = "FAB9F01D-70CE-4F71-A270-EC67BDAC6531";
shapes = (
{
closed = 1;
nodes = (
(79,-240,o),
(132,-159,o),
(153,-59,cs),
(214,230,l),
(289,230,l),
(310,327,l),
(235,327,l),
(282,546,l),
(135,546,l),
(88,327,l),
(13,327,l),
(-8,230,l),
(68,230,l),
(11,-37,ls),
(-1,-95,o),
(-33,-120,o),
(-73,-120,cs),
(-92,-120,o),
(-108,-117,o),
(-129,-110,c),
(-129,-228,l),
(-109,-235,o),
(-75,-240,o),
(-44,-240,cs)
);
}
);
width = 297;
},
{
anchors = (
{
name = bottom;
pos = (53,-240);
},
{
name = center;
pos = (111,156);
},
{
name = top;
pos = (222,553);
},
{
name = topright;
pos = (343,553);
}
);
layerId = "84606D06-D269-45BD-896C-8402F9D7AD38";
shapes = (
{
closed = 1;
nodes = (
(112,-240,o),
(173,-146,o),
(194,-46,cs),
(250,220,l),
(325,220,l),
(351,332,l),
(274,332,l),
(321,553,l),
(132,553,l),
(85,332,l),
(3,332,l),
(-22,220,l),
(61,220,l),
(11,-16,ls),
(0,-68,o),
(-34,-88,o),
(-74,-88,cs),
(-91,-88,o),
(-105,-87,o),
(-129,-79,c),
(-129,-227,l),
(-106,-234,o),
(-63,-240,o),
(-28,-240,cs)
);
}
);
width = 325;
},
{
anchors = (
{
name = bottom;
pos = (-29,-240);
},
{
name = center;
pos = (13,143);
},
{
name = top;
pos = (134,526);
},
{
name = topright;
pos = (187,526);
}
);
layerId = "891911EE-97A3-4583-AC34-B57874F49FBA";
shapes = (
{
closed = 1;
nodes = (
(-13,-240,o),
(1,-142,o),
(20,-53,cs),
(88,265,l),
(152,265,l),
(158,290,l),
(93,290,l),
(143,526,l),
(118,526,l),
(68,290,l),
(7,290,l),
(2,265,l),
(62,265,l),
(-5,-52,ls),
(-30,-179,o),
(-42,-214,o),
(-92,-214,cs),
(-107,-214,o),
(-119,-212,o),
(-131,-208,c),
(-131,-236,l),
(-122,-238,o),
(-109,-240,o),
(-94,-240,cs)
);
}
);
width = 155;
},
{
anchors = (
{
name = bottom;
pos = (-11,-240);
},
{
name = center;
pos = (36,148);
},
{
name = top;
pos = (152,536);
},
{
name = topright;
pos = (240,536);
}
);
layerId = "A849C433-1DA2-4174-AEA9-F403839AA1E5";
shapes = (
{
closed = 1;
nodes = (
(19,-240,o),
(44,-153,o),
(65,-50,cs),
(129,247,l),
(187,247,l),
(201,310,l),
(142,310,l),
(190,536,l),
(114,536,l),
(66,310,l),
(12,310,l),
(-2,247,l),
(52,247,l),
(-10,-44,ls),
(-29,-141,o),
(-41,-170,o),
(-85,-170,cs),
(-99,-170,o),
(-116,-168,o),
(-128,-163,c),
(-128,-233,l),
(-112,-238,o),
(-96,-240,o),
(-77,-240,cs)
);
}
);
width = 192;
},
{
anchors = (
{
name = bottom;
pos = (5,-240);
},
{
name = center;
pos = (54,152);
},
{
name = top;
pos = (168,545);
},
{
name = topright;
pos = (279,545);
}
);
layerId = "E7382CC2-7CD9-4594-B524-5D480E09B385";
shapes = (
{
closed = 1;
nodes = (
(45,-240,o),
(79,-162,o),
(103,-47,cs),
(162,231,l),
(215,231,l),
(236,327,l),
(183,327,l),
(229,545,l),
(110,545,l),
(64,327,l),
(15,327,l),
(-6,231,l),
(43,231,l),
(-14,-38,ls),
(-28,-109,o),
(-40,-134,o),
(-80,-134,cs),
(-93,-134,o),
(-115,-131,o),
(-127,-125,c),
(-127,-231,l),
(-105,-239,o),
(-85,-240,o),
(-64,-240,cs)
);
}
);
width = 223;
},
{
anchors = (
{
name = bottom;
pos = (19,-240);
},
{
name = center;
pos = (72,156);
},
{
name = top;
pos = (191,553);
},
{
name = topright;
pos = (300,553);
}
);
layerId = "1C9FFC3E-B033-49C1-8526-F3CD51FE3A6C";
shapes = (
{
closed = 1;
nodes = (
(69,-240,o),
(112,-170,o),
(138,-45,cs),
(194,217,l),
(242,217,l),
(269,343,l),
(220,343,l),
(265,553,l),
(106,553,l),
(61,343,l),
(18,343,l),
(-9,217,l),
(35,217,l),
(-18,-32,ls),
(-28,-79,o),
(-40,-100,o),
(-75,-100,cs),
(-87,-100,o),
(-113,-96,o),
(-125,-90,c),
(-125,-229,l),
(-98,-239,o),
(-75,-240,o),
(-51,-240,cs)
);
}
);
width = 252;
}
);
script = latin;
subCategory = Lowercase;
unicode = 607;
}
{
category = Letter;
glyphname = iotaserifed;
layers = (
{
anchors = (
{
name = bottom;
pos = (44,0);
},
{
name = center;
pos = (100,264);
},
{
name = top;
pos = (156,528);
}
);
layerId = "4ABFEEF6-B0FE-443E-B48D-B4A70A3A2C9A";
shapes = (
{
closed = 1;
nodes = (
(119,0,l),
(123,20,l),
(63,22,l),
(166,506,l),
(228,508,l),
(232,528,l),
(81,528,l),
(77,508,l),
(140,506,l),
(37,22,l),
(-27,20,l),
(-31,0,l)
);
}
);
width = 200;
},
{
anchors = (
{
name = bottom;
pos = (90,0);
},
{
name = center;
pos = (147,268);
},
{
name = top;
pos = (204,536);
}
);
layerId = "9733853B-DD8E-49B4-939D-1F0D465E8B6E";
shapes = (
{
closed = 1;
nodes = (
(207,0,l),
(218,52,l),
(148,69,l),
(233,466,l),
(309,484,l),
(320,536,l),
(87,536,l),
(76,484,l),
(147,466,l),
(62,69,l),
(-15,52,l),
(-26,0,l)
);
}
);
width = 294;
},
{
anchors = (
{
name = bottom;
pos = (109,0);
},
{
name = center;
pos = (157,273);
},
{
name = top;
pos = (225,546);
}
);
layerId = "FAB9F01D-70CE-4F71-A270-EC67BDAC6531";
shapes = (
{
closed = 1;
nodes = (
(235.855,0,l),
(251.803,79.742,l),
(188.948,107.886,l),
(261.184,435.297,l),
(337.174,465.317,l),
(353.122,545.997,l),
(75.433,545.997,l),
(59.484,465.317,l),
(122.34,435.297,l),
(50.103,107.886,l),
(-23.072,79.742,l),
(-39.02,0,l)
);
}
);
width = 314;
},
{
anchors = (
{
name = bottom;
pos = (120,0);
},
{
name = center;
pos = (184,276);
},
{
name = top;
pos = (238,553);
}
);
layerId = "84606D06-D269-45BD-896C-8402F9D7AD38";
shapes = (
{
closed = 1;
nodes = (
(285.131,0,l),
(305.717,102.927,l),
(241.153,138.484,l),
(301.974,409.837,l),
(384.315,449.136,l),
(404.901,552.999,l),
(79.277,552.999,l),
(58.692,449.136,l),
(123.255,409.837,l),
(62.435,138.484,l),
(-16.164,102.927,l),
(-36.749,0,l)
);
}
);
width = 385;
},
{
anchors = (
{
name = bottom;
pos = (16,0);
},
{
name = center;
pos = (69,263);
},
{
name = top;
pos = (128,526);
}
);
layerId = "891911EE-97A3-4583-AC34-B57874F49FBA";
shapes = (
{
closed = 1;
nodes = (
(84,0,l),
(88,19,l),
(31,22,l),
(133,503,l),
(192,507,l),
(196,526,l),
(54,526,l),
(50,507,l),
(108,503,l),
(6,22,l),
(-54,19,l),
(-58,0,l)
);
}
);
width = 171;
},
{
anchors = (
{
name = bottom;
pos = (64,0);
},
{
name = center;
pos = (113,268);
},
{
name = top;
pos = (176,529);
}
);
layerId = "A849C433-1DA2-4174-AEA9-F403839AA1E5";
shapes = (
{
closed = 1;
nodes = (
(163,0,l),
(173,45,l),
(109,61,l),
(196,475,l),
(267,491,l),
(276,536,l),
(64,536,l),
(55,491,l),
(119,475,l),
(32,61,l),
(-39,45,l),
(-49,0,l)
);
}
);
width = 240;
},
{
anchors = (
{
name = bottom;
pos = (93,0);
},
{
name = center;
pos = (145,272);
},
{
name = top;
pos = (205,530);
}
);
layerId = "E7382CC2-7CD9-4594-B524-5D480E09B385";
shapes = (
{
closed = 1;
nodes = (
(218,0,l),
(232,66,l),
(167,95,l),
(243,450,l),
(319,479,l),
(333,545,l),
(72,545,l),
(58,479,l),
(122,450,l),
(47,95,l),
(-29,66,l),
(-43,0,l)
);
}
);
width = 297;
},
{
anchors = (
{
name = bottom;
pos = (120,0);
},
{
name = center;
pos = (175,276);
},
{
name = top;
pos = (232,530);
}
);
layerId = "1C9FFC3E-B033-49C1-8526-F3CD51FE3A6C";
shapes = (
{
closed = 1;
nodes = (
(271,0,l),
(289,86,l),
(223,126,l),
(287,427,l),
(370,467,l),
(388,553,l),
(80,553,l),
(62,467,l),
(126,427,l),
(62,126,l),
(-19,86,l),
(-37,0,l)
);
}
);
width = 351;
}
);
script = latin;
subCategory = Lowercase;
unicode = 618;
}
{
category = Letter;
glyphname = lmiddletilde;
layers = (
{
anchors = (
{
name = bottom;
pos = (48,0);
},
{
name = center;
pos = (129,380);
},
{
name = top;
pos = (209,760);
}
);
layerId = "4ABFEEF6-B0FE-443E-B48D-B4A70A3A2C9A";
shapes = (
{
closed = 1;
nodes = (
(32,0,l),
(58,0,l),
(138,376,l),
(152,365,o),
(167,356,o),
(185,356,cs),
(231,356,o),
(255,386,o),
(270,440,c),
(247,440,l),
(231,388,o),
(210,377,o),
(186,377,cs),
(171,377,o),
(157,388,o),
(143,401,c),
(219,760,l),
(193,760,l),
(121,420,l),
(107,431,o),
(90,440,o),
(70,440,cs),
(26,440,o),
(3,412,o),
(-11,356,c),
(10,356,l),
(26,408,o),
(47,419,o),
(69,419,cs),
(87,419,o),
(101,408,o),
(116,395,c)
);
}
);
width = 207;
},
{
anchors = (
{
name = bottom;
pos = (117,0);
},
{
name = center;
pos = (200,380);
},
{
name = top;
pos = (279,760);
}
);
layerId = "9733853B-DD8E-49B4-939D-1F0D465E8B6E";
shapes = (
{
closed = 1;
nodes = (
(72,0,l),
(160,0,l),
(230,330,l),
(241,325,o),
(253,322,o),
(265,322,cs),
(322,322,o),
(360,367,o),
(382,450,c),
(329,450,l),
(313,410,o),
(300,394,o),
(271,394,cs),
(263,394,o),
(254,397,o),
(245,401,c),
(322,760,l),
(234,760,l),
(167,443,l),
(157,447,o),
(144,449,o),
(133,449,cs),
(75,449,o),
(36,404,o),
(18,321,c),
(70,321,l),
(84,358,o),
(98,377,o),
(126,377,cs),
(134,377,o),
(143,375,o),
(151,372,c)
);
}
);
width = 348;
},
{
anchors = (
{
name = bottom;
pos = (150,0);
},
{
name = center;
pos = (227,380);
},
{
name = top;
pos = (311,760);
}
);
layerId = "FAB9F01D-70CE-4F71-A270-EC67BDAC6531";
shapes = (
{
closed = 1;
nodes = (
(74,0,l),
(221,0,l),
(284,302,l),
(291,300,o),
(300,299,o),
(309,299,cs),
(374,299,o),
(431,341,o),
(455,450,c),
(381,450,l),
(368,413,o),
(352,397,o),
(329,397,cs),
(321,397,o),
(312,399,o),
(306,401,c),
(382,760,l),
(235,760,l),
(169,446,l),
(164,447,o),
(155,448,o),
(148,448,cs),
(82,448,o),
(24,407,o),
(0,298,c),
(74,298,l),
(84,330,o),
(100,350,o),
(125,350,cs),
(133,350,o),
(141,349,o),
(148,347,c)
);
}
);
width = 415;
},
{
anchors = (
{
name = bottom;
pos = (172,0);
},
{
name = center;
pos = (246,380);
},
{
name = top;
pos = (334,760);
}
);
layerId = "84606D06-D269-45BD-896C-8402F9D7AD38";
shapes = (
{
closed = 1;
nodes = (
(75,0,l),
(264,0,l),
(325,288,l),
(332,287,o),
(339,286,o),
(352,286,cs),
(430,286,o),
(481,331,o),
(505.999,450,c),
(417,450,l),
(408,420,o),
(394,399,o),
(370,399,cs),
(361,399,o),
(355,400,o),
(349,401,c),
(425,760,l),
(236,760,l),
(169,445,l),
(163,446,o),
(158,447,o),
(150,447,cs),
(61,447,o),
(11,389,o),
(-13,285,c),
(77,285,l),
(84,314,o),
(101,335,o),
(127,335,cs),
(135,335,o),
(140,334,o),
(146,333,c)
);
}
);
width = 462;
},
{
anchors = (
{
name = bottom;
pos = (58,0);
},
{
name = center;
pos = (137,380);
},
{
name = top;
pos = (220,760);
}
);
layerId = "891911EE-97A3-4583-AC34-B57874F49FBA";
shapes = (
{
closed = 1;
nodes = (
(49,0,l),
(75,0,l),
(149,347,l),
(160,337,o),
(174,330,o),
(192,330,cs),
(234,330,o),
(261,361,o),
(270,421,c),
(245,421,l),
(237,374,o),
(220,355,o),
(194,355,cs),
(179,355,o),
(167,365,o),
(155,377,c),
(237,760,l),
(211,760,l),
(134,399,l),
(121,411,o),
(106,421,o),
(86,421,cs),
(42,421,o),
(14,392,o),
(5,329,c),
(30,329,l),
(37,371,o),
(51,396,o),
(83,396,cs),
(102,396,o),
(114,383,o),
(128,369,c)
);
}
);
width = 227;
},
{
anchors = (
{
name = bottom;
pos = (93,0);
},
{
name = center;
pos = (172,380);
},
{
name = top;
pos = (254,760);
}
);
layerId = "A849C433-1DA2-4174-AEA9-F403839AA1E5";
shapes = (
{
closed = 1;
nodes = (
(55,0,l),
(132,0,l),
(203,329,l),
(214,322,o),
(227,316,o),
(242,316,cs),
(283,316,o),
(316,348,o),
(334,441,c),
(285,441,l),
(274,394,o),
(264,381,o),
(243,381,cs),
(233,381,o),
(225,387,o),
(216,394,c),
(294,760,l),
(217,760,l),
(147,428,l),
(135,435,o),
(123,440,o),
(108,440,cs),
(56,440,o),
(28,394,o),
(11,315,c),
(60,315,l),
(69,355,o),
(83,375,o),
(106,375,cs),
(116,375,o),
(124,369,o),
(133,362,c)
);
}
);
width = 298;
},
{
anchors = (
{
name = bottom;
pos = (126,0);
},
{
name = center;
pos = (205,380);
},
{
name = top;
pos = (287,760);
}
);
layerId = "E7382CC2-7CD9-4594-B524-5D480E09B385";
shapes = (
{
closed = 1;
nodes = (
(65,0,l),
(186,0,l),
(253,315,l),
(263,309,o),
(275,306,o),
(289,306,cs),
(335,306,o),
(380,342,o),
(398,452,c),
(328,452,l),
(319,412,o),
(308,398,o),
(290,398,cs),
(284,398,o),
(278,402,o),
(272,406,c),
(347,760,l),
(227,760,l),
(160,442,l),
(149,448,o),
(137,451,o),
(123,451,cs),
(57,451,o),
(29,389,o),
(12,305,c),
(82,305,l),
(90,343,o),
(104,359,o),
(121,359,cs),
(128,359,o),
(134,355,o),
(140,351,c)
);
}
);
width = 364;
},
{
anchors = (
{
name = bottom;
pos = (157,0);
},
{
name = center;
pos = (236,380);
},
{
name = top;
pos = (318,760);
}
);
layerId = "1C9FFC3E-B033-49C1-8526-F3CD51FE3A6C";
shapes = (
{
closed = 1;
nodes = (
(75,0,l),
(236,0,l),
(300,301,l),
(310,298,o),
(321,296,o),
(333,296,cs),
(383,296,o),
(438,337,o),
(458,463,c),
(369,463,l),
(361,428,o),
(350,415,o),
(334,415,cs),
(331,415,o),
(328,416,o),
(324,417,c),
(397,760,l),
(237,760,l),
(173,457,l),
(162,460,o),
(151,462,o),
(137,462,cs),
(59,462,o),
(31,385,o),
(14,295,c),
(103,295,l),
(110,331,o),
(125,343,o),
(137,343,cs),
(141,343,o),
(144,342,o),
(148,341,c)
);
}
);
width = 426;
}
);
script = latin;
subCategory = Lowercase;
unicode = 619;
}
{
category = Letter;
glyphname = lbelt;
layers = (
{
anchors = (
{
name = bottom;
pos = (61,0);
},
{
name = center;
pos = (140,380);
},
{
name = top;
pos = (222,760);
}
);
layerId = "4ABFEEF6-B0FE-443E-B48D-B4A70A3A2C9A";
shapes = (
{
closed = 1;
nodes = (
(95,0,l),
(165,330,l),
(244,330,l),
(250,355,l),
(171,355,l),
(258,760,l),
(232,760,l),
(161,431,l),
(153,453,o),
(132,470,o),
(99,470,cs),
(55,470,o),
(22,438,o),
(22,395,cs),
(22,351,o),
(52,330,o),
(107,330,cs),
(139,330,l),
(69,0,l)
);
},
{
closed = 1;
nodes = (
(68,355,o),
(48,369,o),
(48,395,cs),
(48,426,o),
(68,445,o),
(100,445,cs),
(135,445,o),
(150,419,o),
(150,392,cs),
(150,380,o),
(148,372,o),
(145,359,cs),
(144,355,l),
(109,355,l)
);
}
);
width = 234;
},
{
anchors = (
{
name = bottom;
pos = (110,0);
},
{
name = center;
pos = (178,380);
},
{
name = top;
pos = (272,760);
}
);
layerId = "9733853B-DD8E-49B4-939D-1F0D465E8B6E";
shapes = (
{
closed = 1;
nodes = (
(169,0,l),
(232,297,l),
(329,297,l),
(344,369,l),
(247,369,l),
(331,760,l),
(243,760,l),
(185,486,l),
(171,497,o),
(153,506,o),
(131,506,cs),
(55,506,o),
(13,459,o),
(13,396,cs),
(13,341,o),
(50,297,o),
(126,297,cs),
(144,297,l),
(81,0,l)
);
},
{
closed = 1;
nodes = (
(106,369,o),
(93,379,o),
(93,400,cs),
(93,418,o),
(105,434,o),
(129,434,cs),
(153,434,o),
(164,417,o),
(164,395,cs),
(164,389,o),
(163,383,o),
(162,378,cs),
(160,369,l),
(129,369,l)
);
}
);
width = 333;
},
{
anchors = (
{
name = bottom;
pos = (140,0);
},
{
name = center;
pos = (216,380);
},
{
name = top;
pos = (301,760);
}
);
layerId = "FAB9F01D-70CE-4F71-A270-EC67BDAC6531";
shapes = (
{
closed = 1;
nodes = (
(242,0,l),
(304,292,l),
(399,292,l),
(415,369,l),
(320,369,l),
(403,760,l),
(256,760,l),
(199,493,l),
(183,503,o),
(162,511,o),
(142,511,cs),
(70,511,o),
(17,470,o),
(17,392,cs),
(17,337,o),
(53,292,o),
(138,292,cs),
(157,292,l),
(95,0,l)
);
},
{
closed = 1;
nodes = (
(124,369,o),
(106,379,o),
(106,399,cs),
(106,424,o),
(122,434,o),
(144,434,cs),
(165,434,o),
(178,421,o),
(178,399,cs),
(178,394,o),
(177,389,o),
(176,383,cs),
(173,369,l),
(149,369,l)
);
}
);
width = 395;
},
{
anchors = (
{
name = bottom;
pos = (160,0);
},
{
name = center;
pos = (242,380);
},
{
name = top;
pos = (322,760);
}
);
layerId = "84606D06-D269-45BD-896C-8402F9D7AD38";
shapes = (
{
closed = 1;
nodes = (
(292,0,l),
(354,289,l),
(448,289,l),
(464,369,l),
(370,369,l),
(452,760,l),
(264,760,l),
(209,497,l),
(192,506,o),
(175,514,o),
(139,514,cs),
(84,514,o),
(20,482,o),
(20,395,cs),
(20,328,o),
(70,289,o),
(146,289,cs),
(165,289,l),
(104,0,l)
);
},
{
closed = 1;
nodes = (
(136,369,o),
(115,379,o),
(115,401,cs),
(115,423,o),
(129,434,o),
(151,434,cs),
(171,434,o),
(187,423,o),
(187,402,cs),
(187,397,o),
(187,392,o),
(185,383,cs),
(182,369,l),
(163,369,l)
);
}
);
width = 438;
},
{
anchors = (
{
name = bottom;
pos = (74,0);
},
{
name = center;
pos = (150,380);
},
{
name = top;
pos = (236,760);
}
);
layerId = "891911EE-97A3-4583-AC34-B57874F49FBA";
shapes = (
{
closed = 1;
nodes = (
(113,0,l),
(171,272,l),
(245,272,l),
(250,297,l),
(176,297,l),
(275,760,l),
(249,760,l),
(181,441,l),
(175,463,o),
(155,481,o),
(123,481,cs),
(57,481,o),
(25,422,o),
(25,360,cs),
(25,302,o),
(59,272,o),
(111,272,cs),
(145,272,l),
(87,0,l)
);
},
{
closed = 1;
nodes = (
(70,297,o),
(52,320,o),
(52,362,cs),
(52,407,o),
(74,456,o),
(121,456,cs),
(152,456,o),
(166,436,o),
(166,393,cs),
(166,378,o),
(163,359,o),
(159,341,cs),
(150,297,l),
(116,297,l)
);
}
);
width = 260;
},
{
anchors = (
{
name = bottom;
pos = (102,0);
},
{
name = center;
pos = (176,380);
},
{
name = top;
pos = (263,760);
}
);
layerId = "A849C433-1DA2-4174-AEA9-F403839AA1E5";
shapes = (
{
closed = 1;
nodes = (
(166,0,l),
(223,267,l),
(298,267,l),
(309,323,l),
(235,323,l),
(328,760,l),
(251,760,l),
(189,468,l),
(180,486,o),
(161,497,o),
(137,497,cs),
(66,497,o),
(25,438,o),
(25,368,cs),
(25,309,o),
(58,267,o),
(127,267,cs),
(146,267,l),
(89,0,l)
);
},
{
closed = 1;
nodes = (
(98,323,o),
(81,339,o),
(81,373,cs),
(81,410,o),
(98,443,o),
(131,443,cs),
(155,443,o),
(169,429,o),
(169,390,cs),
(169,381,o),
(167,369,o),
(165,357,cs),
(158,323,l),
(136,323,l)
);
}
);
width = 316;
},
{
anchors = (
{
name = bottom;
pos = (125,0);
},
{
name = center;
pos = (197,380);
},
{
name = top;
pos = (287,760);
}
);
layerId = "E7382CC2-7CD9-4594-B524-5D480E09B385";
shapes = (
{
closed = 1;
nodes = (
(209,0,l),
(266,264,l),
(341,264,l),
(358,344,l),
(282,344,l),
(371,760,l),
(251,760,l),
(194,493,l),
(183,503,o),
(167,509,o),
(148,509,cs),
(70,509,o),
(24,448,o),
(24,375,cs),
(24,313,o),
(54,264,o),
(136,264,cs),
(145,264,l),
(89,0,l)
);
},
{
closed = 1;
nodes = (
(113,344,o),
(100,357,o),
(100,385,cs),
(100,412,o),
(114,434,o),
(138,434,cs),
(158,434,o),
(170,423,o),
(170,394,cs),
(170,388,o),
(170,379,o),
(168,371,cs),
(163,344,l),
(148,344,l)
);
}
);
width = 362;
},
{
anchors = (
{
name = bottom;
pos = (147,0);
},
{
name = center;
pos = (218,380);
},
{
name = top;
pos = (308,760);
}
);
layerId = "1C9FFC3E-B033-49C1-8526-F3CD51FE3A6C";
shapes = (
{
closed = 1;
nodes = (
(251,0,l),
(307,262,l),
(382,262,l),
(404,364,l),
(328,364,l),
(412,760,l),
(252,760,l),
(200,516,l),
(187,519,o),
(173,520,o),
(158,520,cs),
(74,520,o),
(24,457,o),
(24,381,cs),
(24,317,o),
(52,262,o),
(145,262,cs),
(146,262,l),
(90,0,l)
);
},
{
closed = 1;
nodes = (
(128,364,o),
(119,373,o),
(119,396,cs),
(119,414,o),
(130,426,o),
(146,426,cs),
(162,426,o),
(173,418,o),
(173,398,cs),
(173,394,o),
(173,389,o),
(172,384,cs),
(168,364,l),
(160,364,l)
);
}
);
width = 405;
}
);
script = latin;
subCategory = Lowercase;
unicode = 620;
}
{
category = Letter;
glyphname = lezh;
layers = (
{
anchors = (
{
name = bottom;
pos = (134,-240);
},
{
name = center;
pos = (244,260);
},
{
name = top;
pos = (346,760);
}
);
layerId = "4ABFEEF6-B0FE-443E-B48D-B4A70A3A2C9A";
shapes = (
{
closed = 1;
nodes = (
(332,-240,o),
(394,-93,o),
(394,23,cs),
(394,168,o),
(296,213,o),
(191,214,c),
(483,503,l),
(488,528,l),
(170,528,l),
(219,760,l),
(193,760,l),
(32,0,l),
(58,0,l),
(165,503,l),
(446,503,l),
(155,212,l),
(151,189,l),
(189,189,ls),
(284,189,o),
(367,148,o),
(367,22,cs),
(367,-78,o),
(315,-215,o),
(148,-215,cs),
(80,-215,o),
(26,-193,o),
(1,-177,c),
(1,-207,l),
(26,-221,o),
(75,-240,o),
(143,-240,cs)
);
}
);
width = 481;
},
{
anchors = (
{
name = bottom;
pos = (201,-240);
},
{
name = center;
pos = (315,260);
},
{
name = top;
pos = (414,760);
}
);
layerId = "9733853B-DD8E-49B4-939D-1F0D465E8B6E";
shapes = (
{
closed = 1;
nodes = (
(425,-240,o),
(527,-128,o),
(527,25,cs),
(527,148,o),
(448,214,o),
(349,222,c),
(591,472,l),
(604,536,l),
(229,536,l),
(277,760,l),
(189,760,l),
(27,0,l),
(115,0,l),
(213,462,l),
(486,462,l),
(252,219,l),
(239,159,l),
(276,159,ls),
(377,159,o),
(439,117,o),
(439,21,cs),
(439,-85,o),
(377,-168,o),
(251,-168,cs),
(179,-168,o),
(123,-146,o),
(88,-125,c),
(88,-206,l),
(129,-228,o),
(176,-240,o),
(249,-240,cs)
);
}
);
width = 618;
},
{
anchors = (
{
name = bottom;
pos = (252,-242);
},
{
name = center;
pos = (357,259);
},
{
name = top;
pos = (464,760);
}
);
layerId = "FAB9F01D-70CE-4F71-A270-EC67BDAC6531";
shapes = (
{
closed = 1;
nodes = (
(500,-242,o),
(622,-130,o),
(622,45,cs),
(622,146,o),
(556,221,o),
(442,231,c),
(677,450,l),
(697,546,l),
(280,546,l),
(326,760,l),
(179,760,l),
(18,0,l),
(165,0,l),
(256,432,l),
(493,432,l),
(298,244,l),
(276,139,l),
(342,139,ls),
(430,139,o),
(469,93,o),
(469,31,cs),
(469,-50,o),
(415,-119,o),
(297,-119,cs),
(252,-119,o),
(184,-103,o),
(131,-73,c),
(131,-203,l),
(180,-227,o),
(241,-242,o),
(315,-242,cs)
);
}
);
width = 722;
},
{
anchors = (
{
name = bottom;
pos = (283,-240);
},
{
name = center;
pos = (389,260);
},
{
name = top;
pos = (496,760);
}
);
layerId = "84606D06-D269-45BD-896C-8402F9D7AD38";
shapes = (
{
closed = 1;
nodes = (
(554,-240,o),
(689,-150,o),
(689,33,cs),
(689,143,o),
(648,219,o),
(528,254,c),
(743,435,l),
(767,553,l),
(317,553,l),
(361,760,l),
(172,760,l),
(11,0,l),
(200,0,l),
(287,411,l),
(501,411,l),
(330,262,l),
(302,124,l),
(353,124,ls),
(472,124,o),
(496,71,o),
(496,30,cs),
(496,-53,o),
(439,-88,o),
(363,-88,cs),
(316,-88,o),
(228,-75,o),
(160,-34,c),
(160,-196,l),
(217,-226,o),
(288,-240,o),
(363,-240,cs)
);
}
);
width = 785;
},
{
anchors = (
{
name = bottom;
pos = (64,-240);
},
{
name = center;
pos = (181,260);
},
{
name = top;
pos = (277,760);
}
);
layerId = "891911EE-97A3-4583-AC34-B57874F49FBA";
shapes = (
{
closed = 1;
nodes = (
(220,-240,o),
(270,-75,o),
(270,46,cs),
(270,145,o),
(229,198,o),
(148,203,c),
(358,500,l),
(363,526,l),
(143,526,l),
(193,760,l),
(167,760,l),
(5,0,l),
(31,0,l),
(138,501,l),
(330,501,l),
(117,199,l),
(113,178,l),
(136,178,ls),
(209,178,o),
(243,133,o),
(243,44,cs),
(243,-65,o),
(201,-215,o),
(86,-215,cs),
(49,-215,o),
(22,-204,o),
(0,-186,c),
(0,-218,l),
(16,-229,o),
(45,-240,o),
(84,-240,cs)
);
}
);
width = 342;
},
{
anchors = (
{
name = bottom;
pos = (119,-240);
},
{
name = center;
pos = (232,260);
},
{
name = top;
pos = (332,760);
}
);
layerId = "A849C433-1DA2-4174-AEA9-F403839AA1E5";
shapes = (
{
closed = 1;
nodes = (
(297,-240,o),
(377,-102,o),
(377,46,cs),
(377,142,o),
(341,206,o),
(255,222,c),
(454,481,l),
(465,536,l),
(191,536,l),
(239,760,l),
(162,760,l),
(0,0,l),
(77,0,l),
(177,469,l),
(357,469,l),
(171,221,l),
(159,164,l),
(193,164,ls),
(269,164,o),
(299,125,o),
(299,41,cs),
(299,-64,o),
(253,-170,o),
(149,-170,cs),
(111,-170,o),
(72,-155,o),
(42,-129,c),
(42,-211,l),
(67,-229,o),
(105,-240,o),
(155,-240,cs)
);
}
);
width = 452;
},
{
anchors = (
{
name = bottom;
pos = (165,-240);
},
{
name = center;
pos = (273,260);
},
{
name = top;
pos = (377,760);
}
);
layerId = "E7382CC2-7CD9-4594-B524-5D480E09B385";
shapes = (
{
closed = 1;
nodes = (
(369,-240,o),
(468,-106,o),
(468,56,cs),
(468,149,o),
(432,218,o),
(344,237,c),
(537,464,l),
(553,545,l),
(229,545,l),
(275,760,l),
(155,760,l),
(-7,0,l),
(113,0,l),
(208,443,l),
(382,443,l),
(216,240,l),
(198,152,l),
(253,152,ls),
(317,152,o),
(348,122,o),
(348,51,cs),
(348,-47,o),
(303,-133,o),
(203,-133,cs),
(162,-133,o),
(113,-113,o),
(78,-83,c),
(78,-207,l),
(112,-229,o),
(151,-240,o),
(215,-240,cs)
);
}
);
width = 544;
},
{
anchors = (
{
name = bottom;
pos = (208,-240);
},
{
name = center;
pos = (311,260);
},
{
name = top;
pos = (420,760);
}
);
layerId = "1C9FFC3E-B033-49C1-8526-F3CD51FE3A6C";
shapes = (
{
closed = 1;
nodes = (
(436,-240,o),
(553,-112,o),
(553,64,cs),
(553,155,o),
(517,229,o),
(428,250,c),
(614,448,l),
(636,553,l),
(265,553,l),
(309,760,l),
(149,760,l),
(-13,0,l),
(148,0,l),
(237,418,l),
(405,418,l),
(259,257,l),
(234,141,l),
(308,141,ls),
(362,141,o),
(393,120,o),
(393,60,cs),
(393,-32,o),
(349,-98,o),
(253,-98,cs),
(211,-98,o),
(152,-75,o),
(112,-40,c),
(112,-203,l),
(154,-229,o),
(196,-240,o),
(271,-240,cs)
);
}
);
width = 630;
}
);
script = latin;
subCategory = Lowercase;
unicode = 622;
}
{
category = Letter;
glyphname = OEsmall;
layers = (
{
anchors = (
{
name = bottom;
pos = (321,0);
},
{
name = center;
pos = (407,264);
},
{
name = top;
pos = (433,528);
}
);
layerId = "4ABFEEF6-B0FE-443E-B48D-B4A70A3A2C9A";
shapes = (
{
closed = 1;
nodes = (
(295,-11,o),
(355,45,o),
(392,101,c),
(372,0,l),
(653,0,l),
(661,29,l),
(406,29,l),
(460,290,l),
(701,290,l),
(707,318,l),
(466,318,l),
(501,501,l),
(756,501,l),
(763,528,l),
(478,528,l),
(457,421,l),
(449,466,o),
(420,540,o),
(308,540,cs),
(188,540,o),
(51,415,o),
(51,210,cs),
(51,44,o),
(109,-11,o),
(207,-11,cs)
);
},
{
closed = 1;
nodes = (
(125,16,o),
(81,72,o),
(81,209,cs),
(81,371,o),
(180,513,o),
(307,513,cs),
(391,513,o),
(446,456,o),
(437,325,cs),
(420,114,o),
(312,16,o),
(209,16,cs)
);
}
);
width = 753;
},
{
anchors = (
{
name = bottom;
pos = (349,0);
},
{
name = center;
pos = (428,267);
},
{
name = top;
pos = (463,536);
}
);
layerId = "9733853B-DD8E-49B4-939D-1F0D465E8B6E";
shapes = (
{
closed = 1;
nodes = (
(295,-8,o),
(340,13,o),
(377,48,c),
(367,0,l),
(696,0,l),
(711,73,l),
(464,73,l),
(500,243,l),
(732,243,l),
(748,316,l),
(516,316,l),
(547,463,l),
(794,463,l),
(809,536,l),
(480,536,l),
(465,467,l),
(434,515,o),
(387,543,o),
(316,543,cs),
(139,543,o),
(48,362,o),
(48,198,cs),
(48,71,o),
(124,-8,o),
(248,-8,cs)
);
},
{
closed = 1;
nodes = (
(179,65,o),
(137,112,o),
(137,195,cs),
(137,344,o),
(206,470,o),
(317,470,cs),
(397,470,o),
(426,407,o),
(426,343,cs),
(426,178,o),
(353,65,o),
(253,65,cs)
);
}
);
width = 811;
},
{
anchors = (
{
name = bottom;
pos = (356,0);
},
{
name = center;
pos = (434,274);
},
{
name = top;
pos = (472,546);
}
);
layerId = "FAB9F01D-70CE-4F71-A270-EC67BDAC6531";
shapes = (
{
closed = 1;
nodes = (
(278,-8,o),
(308,-1,o),
(332,10,c),
(330,0,l),
(709,0,l),
(733,114,l),
(501,114,l),
(525,226,l),
(742,226,l),
(765,338,l),
(548,338,l),
(569,434,l),
(801,434,l),
(825,546,l),
(446,546,l),
(440,518,l),
(412,542,o),
(374,556,o),
(331,556,cs),
(140,556,o),
(44,393,o),
(44,200,cs),
(44,72,o),
(125,-8,o),
(251,-8,cs)
);
},
{
closed = 1;
nodes = (
(216,112,o),
(192,143,o),
(192,200,cs),
(192,299,o),
(234,436,o),
(323,436,cs),
(375,436,o),
(393,395,o),
(393,340,cs),
(393,222,o),
(346,112,o),
(265,112,cs)
);
}
);
width = 827;
},
{
anchors = (
{
name = bottom;
pos = (342,0);
},
{
name = center;
pos = (415,277);
},
{
name = top;
pos = (460,553);
}
);
layerId = "84606D06-D269-45BD-896C-8402F9D7AD38";
shapes = (
{
closed = 1;
nodes = (
(291,-7,o),
(317,-2,o),
(340,10,c),
(339,0,l),
(677,0,l),
(703,129,l),
(503,129,l),
(526,223,l),
(711,223,l),
(738,350,l),
(553,350,l),
(570,426,l),
(769,426,l),
(795,553,l),
(444,553,l),
(442,543,l),
(417,554,o),
(385,562,o),
(349,562,cs),
(123,562,o),
(36,361,o),
(36,207,cs),
(36,80,o),
(115,-7,o),
(265,-7,cs)
);
},
{
closed = 1;
nodes = (
(225,124,o),
(193,147,o),
(193,214,cs),
(193,326,o),
(248,432,o),
(329,432,cs),
(393,432,o),
(396,358,o),
(385,283,cs),
(373,204,o),
(342,124,o),
(277,124,cs)
);
}
);
width = 801;
},
{
anchors = (
{
name = bottom;
pos = (200,0);
},
{
name = center;
pos = (275,263);
},
{
name = top;
pos = (312,526);
}
);
layerId = "891911EE-97A3-4583-AC34-B57874F49FBA";
shapes = (
{
closed = 1;
nodes = (
(177,-10,o),
(219,18,o),
(251,66,c),
(235,0,l),
(419,0,l),
(424,27,l),
(268,27,l),
(318,264,l),
(458,264,l),
(464,291,l),
(324,291,l),
(368,499,l),
(515,499,l),
(521,526,l),
(347,526,l),
(330,447,l),
(319,505,o),
(288,536,o),
(237,536,cs),
(84,536,o),
(30,268,o),
(30,132,cs),
(30,41,o),
(63,-10,o),
(131,-10,cs)
);
},
{
closed = 1;
nodes = (
(81,16,o),
(57,59,o),
(57,130,cs),
(57,257,o),
(105,510,o),
(231,510,cs),
(280,510,o),
(306,465,o),
(306,392,cs),
(306,232,o),
(242,16,o),
(129,16,cs)
);
}
);
width = 512;
},
{
anchors = (
{
name = bottom;
pos = (222,0);
},
{
name = center;
pos = (298,268);
},
{
name = top;
pos = (334,529);
}
);
layerId = "A849C433-1DA2-4174-AEA9-F403839AA1E5";
shapes = (
{
closed = 1;
nodes = (
(185,-10,o),
(222,11,o),
(252,47,c),
(241,0,l),
(466,0,l),
(480,68,l),
(322,68,l),
(359,245,l),
(500,245,l),
(513,308,l),
(373,308,l),
(407,468,l),
(556,468,l),
(571,536,l),
(355,536,l),
(343,479,l),
(327,523,o),
(297,546,o),
(252,546,cs),
(86,546,o),
(25,290,o),
(25,151,cs),
(25,49,o),
(70,-10,o),
(144,-10,cs)
);
},
{
closed = 1;
nodes = (
(123,58,o),
(104,92,o),
(104,149,cs),
(104,259,o),
(147,478,o),
(246,478,cs),
(285,478,o),
(304,443,o),
(304,384,cs),
(304,255,o),
(251,58,o),
(161,58,cs)
);
}
);
width = 556;
},
{
anchors = (
{
name = bottom;
pos = (241,0);
},
{
name = center;
pos = (317,272);
},
{
name = top;
pos = (353,530);
}
);
layerId = "E7382CC2-7CD9-4594-B524-5D480E09B385";
shapes = (
{
closed = 1;
nodes = (
(192,-10,o),
(226,5,o),
(253,31,c),
(247,0,l),
(506,0,l),
(528,103,l),
(368,103,l),
(395,230,l),
(536,230,l),
(556,322,l),
(415,322,l),
(440,442,l),
(591,442,l),
(613,545,l),
(363,545,l),
(355,507,l),
(335,537,o),
(305,555,o),
(266,555,cs),
(88,555,o),
(22,309,o),
(22,166,cs),
(22,56,o),
(77,-10,o),
(156,-10,cs)
);
},
{
closed = 1;
nodes = (
(157,93,o),
(143,119,o),
(143,165,cs),
(143,260,o),
(182,452,o),
(258,452,cs),
(289,452,o),
(303,426,o),
(303,378,cs),
(303,274,o),
(258,93,o),
(188,93,cs)
);
}
);
width = 593;
},
{
anchors = (
{
name = bottom;
pos = (258,0);
},
{
name = center;
pos = (335,276);
},
{
name = top;
pos = (370,530);
}
);
layerId = "1C9FFC3E-B033-49C1-8526-F3CD51FE3A6C";
shapes = (
{
closed = 1;
nodes = (
(198,-10,o),
(228,0,o),
(254,16,c),
(251,0,l),
(542,0,l),
(571,135,l),
(410,135,l),
(427,215,l),
(568,215,l),
(594,335,l),
(453,335,l),
(470,418,l),
(623,418,l),
(652,553,l),
(369,553,l),
(365,532,l),
(341,551,o),
(312,563,o),
(278,563,cs),
(89,563,o),
(18,326,o),
(18,181,cs),
(18,62,o),
(83,-10,o),
(166,-10,cs)
);
},
{
closed = 1;
nodes = (
(189,125,o),
(179,145,o),
(179,180,cs),
(179,261,o),
(214,428,o),
(269,428,cs),
(292,428,o),
(301,409,o),
(301,372,cs),
(301,292,o),
(264,125,o),
(212,125,cs)
);
}
);
width = 627;
}
);
script = latin;
subCategory = Lowercase;
unicode = 630;
}
